<?xml version="1.0" encoding="UTF-8"?><svg id="Layer_1" xmlns="http://www.w3.org/2000/svg" viewBox="0 0 65 520"><defs><style>.cls-1,.cls-2,.cls-3,.cls-4{stroke-width:0px;}.cls-2{fill:gray;}.cls-3{fill:#333;}.cls-4{fill:#e9af4a;}</style></defs><rect class="cls-2" x="29.58" y="141.86" width="6" height="375"/><path class="cls-1" d="m54.15,3.14H10.85c-3.55,0-6.42,2.88-6.42,6.42v128.91c0,3.55,2.88,6.42,6.42,6.42h43.31c3.55,0,6.42-2.88,6.42-6.42V9.56c0-3.55-2.88-6.42-6.42-6.42Z"/><rect class="cls-3" x="19.34" y="16.19" width="37.77" height="21.58" rx="10.79" ry="10.79" transform="translate(-7.88 34.93) rotate(-45)"/><path class="cls-3" d="m12.21,16.19h22.66c5.96,0,10.79,4.83,10.79,10.79h0c0,5.96-4.83,10.79-10.79,10.79h-16.19c-5.96,0-10.79-4.83-10.79-10.79v-6.47c0-2.38,1.93-4.32,4.32-4.32Z" transform="translate(26.64 64.99) rotate(-135)"/><rect class="cls-4" x="19.34" y="107.78" width="37.77" height="21.58" rx="10.79" ry="10.79" transform="translate(-72.65 61.76) rotate(-45)"/><path class="cls-4" d="m12.21,107.78h22.66c5.96,0,10.79,4.83,10.79,10.79h0c0,5.96-4.83,10.79-10.79,10.79h-16.19c-5.96,0-10.79-4.83-10.79-10.79v-6.47c0-2.38,1.93-4.32,4.32-4.32Z" transform="translate(-38.13 221.35) rotate(-135)"/><rect class="cls-4" x="19.38" y="62.1" width="37.65" height="21.51" rx="10.76" ry="10.76" transform="translate(-40.33 48.35) rotate(-45)"/><path class="cls-4" d="m12.27,62.1h22.59c5.94,0,10.76,4.82,10.76,10.76h0c0,5.94-4.82,10.76-10.76,10.76h-16.14c-5.94,0-10.76-4.82-10.76-10.76v-6.45c0-2.37,1.93-4.3,4.3-4.3Z" transform="translate(-5.78 143.32) rotate(-135)"/></svg>