<?xml version="1.0" encoding="UTF-8"?><svg id="Layer_1" xmlns="http://www.w3.org/2000/svg" viewBox="0 0 360 155"><defs><style>.cls-1{fill:#999;}.cls-1,.cls-2,.cls-3,.cls-4{stroke-width:0px;}.cls-3{fill:#c5c9cb;}.cls-4{fill:#333;}</style></defs><rect class="cls-4" x="3.57" y="2.28" width="353" height="150.45" rx="11" ry="11"/><path class="cls-1" d="m336.69,146.97l-56.14.29c-1.05.03-1.77.21-2.11-2l-5.27-28-26.34,28c-1.05,1-3.47,2-5.27,2l-218.12-.29c-7.04,0-12.76-4.79-12.76-10.71V18.43c0-5.91,5.71-10.71,12.76-10.71h10.64s1.55,0,1.55,0c1.25,0,2.37.66,2.78,1.64l13.54,22.9-2.13-22.43c.2-1.21,1.45-2.11,2.92-2.11h12.47l1.49,11.54,7.91-11.54h262.08c5.86,0,10.8,3.32,12.29,7.84.49,1.47-.72,2.96-2.55,3.11l-44.55,3.65,45.37,9.93c1.29.28,2.19,1.25,2.19,2.36v101.64c0,5.91-5.71,10.71-12.76,10.71Z"/><path class="cls-2" d="m81.97,73.42l8.65,18.54c.82,1.71,1.51,2.83,2.06,3.36s1.39.89,2.52,1.08c2.2.34,3.29,1.45,3.29,3.34,0,2.23-1.34,3.83-4.03,4.81-2.69.98-7.08,1.46-13.18,1.46-6.9,0-12.01-.29-15.33-.87-1.53-.27-2.74-.83-3.64-1.67-.9-.84-1.35-1.85-1.35-3.04,0-.92.24-1.62.71-2.13.47-.5,1.35-.97,2.63-1.4,1.43-.49,2.15-1.31,2.15-2.47,0-2.04-1.24-3.25-3.71-3.62-2.65-.37-6.39-.55-11.21-.55-4.06,0-6.48.24-7.28.73-.49.31-.92.85-1.28,1.65-.37.79-.55,1.56-.55,2.29,0,.67.13,1.11.39,1.3.26.2,1.11.53,2.54.98,1.86.55,2.79,1.65,2.79,3.29,0,3.63-4.35,5.45-13.04,5.45-4.94,0-8.57-.34-10.89-1.01-2.14-.64-3.2-2.04-3.2-4.21,0-.95.24-1.68.71-2.2.47-.52,1.32-.99,2.54-1.42,1.98-.7,3.49-1.69,4.51-2.95,1.02-1.27,2.48-3.97,4.37-8.12l6.45-14.14c2.38-5.19,3.97-9.07,4.78-11.65.81-2.58,1.23-5.1,1.26-7.58.03-2.62.19-4.45.48-5.47.29-1.02.94-2.02,1.95-3,2.11-2.14,4.79-3.2,8.05-3.2,3.08,0,6.03,1.21,8.83,3.62,3.91,3.29,9.58,12.89,17.03,28.79Zm-31.85,5.77h8.97c1.65,0,2.47-.37,2.47-1.1,0-1.01-1.14-3.48-3.43-7.41-1.04-1.8-1.83-3-2.38-3.62-.55-.61-1.13-.92-1.74-.92-1.1,0-2.01,1.02-2.75,3.07-.12.27-.56,1.36-1.33,3.25-1.28,3.11-1.92,4.97-1.92,5.58,0,.76.7,1.14,2.11,1.14Z"/><path class="cls-2" d="m118.54,59.46c1.53,0,4.01.34,7.46,1.01.7.12,1.28.18,1.74.18.52,0,1.53-.27,3.02-.82.7-.27,1.3-.41,1.79-.41,1.4,0,2.82.9,4.26,2.7,1.16,1.43,2.11,3.01,2.84,4.71.73,1.71,1.1,3.19,1.1,4.44s-.43,2.24-1.28,3.04-1.92,1.21-3.2,1.21c-1.07,0-2.02-.26-2.86-.78-.84-.52-2.19-1.66-4.05-3.43-1.95-1.89-3.57-2.84-4.85-2.84-.85,0-1.59.31-2.22.94s-.94,1.37-.94,2.22c0,1.5,1.43,2.9,4.3,4.21,5.16,2.32,9.11,4.85,11.85,7.6,2.32,2.32,3.48,5.16,3.48,8.51,0,4.24-1.86,7.78-5.58,10.62-3.2,2.47-7.12,3.71-11.76,3.71-1.19,0-3.36-.2-6.5-.59-2.96-.34-4.62-.5-4.99-.5-.4,0-.85.04-1.37.14-.89.12-1.53.18-1.92.18-1.43,0-2.56-.37-3.39-1.1-1.25-1.13-2.41-2.91-3.48-5.33-1.07-2.43-1.6-4.51-1.6-6.25,0-2.81,1.1-4.21,3.29-4.21.85,0,1.64.28,2.36.85.72.56,2.22,2.07,4.51,4.51,1.25,1.34,2.29,2.27,3.11,2.77.82.5,1.71.75,2.66.75,1.01,0,1.81-.27,2.42-.8s.92-1.24.92-2.13c0-1.37-1.17-2.62-3.52-3.75-4.91-2.41-8.46-4.9-10.64-7.46s-3.27-5.52-3.27-8.88c0-3.63,1.11-6.76,3.34-9.38,3.17-3.75,7.51-5.63,13-5.63Z"/><path class="cls-2" d="m163.21,59.46c1.53,0,4.01.34,7.46,1.01.7.12,1.28.18,1.74.18.52,0,1.53-.27,3.02-.82.7-.27,1.3-.41,1.79-.41,1.4,0,2.82.9,4.26,2.7,1.16,1.43,2.11,3.01,2.84,4.71.73,1.71,1.1,3.19,1.1,4.44s-.43,2.24-1.28,3.04-1.92,1.21-3.2,1.21c-1.07,0-2.02-.26-2.86-.78-.84-.52-2.19-1.66-4.05-3.43-1.95-1.89-3.57-2.84-4.85-2.84-.85,0-1.59.31-2.22.94s-.94,1.37-.94,2.22c0,1.5,1.43,2.9,4.3,4.21,5.16,2.32,9.11,4.85,11.85,7.6,2.32,2.32,3.48,5.16,3.48,8.51,0,4.24-1.86,7.78-5.58,10.62-3.2,2.47-7.12,3.71-11.76,3.71-1.19,0-3.36-.2-6.5-.59-2.96-.34-4.62-.5-4.99-.5-.4,0-.85.04-1.37.14-.89.12-1.53.18-1.92.18-1.43,0-2.56-.37-3.39-1.1-1.25-1.13-2.41-2.91-3.48-5.33-1.07-2.43-1.6-4.51-1.6-6.25,0-2.81,1.1-4.21,3.29-4.21.85,0,1.64.28,2.36.85.72.56,2.22,2.07,4.51,4.51,1.25,1.34,2.29,2.27,3.11,2.77.82.5,1.71.75,2.66.75,1.01,0,1.81-.27,2.42-.8s.92-1.24.92-2.13c0-1.37-1.17-2.62-3.52-3.75-4.91-2.41-8.46-4.9-10.64-7.46s-3.27-5.52-3.27-8.88c0-3.63,1.11-6.76,3.34-9.38,3.17-3.75,7.51-5.63,13-5.63Z"/><path class="cls-2" d="m231.86,84.54h-21.51c-.95,0-1.42.41-1.42,1.24,0,1.98,1.08,3.85,3.23,5.61,2.15,1.75,4.46,2.63,6.93,2.63,1.46,0,3.09-.28,4.88-.85,1.79-.56,3.26-1.26,4.42-2.08,1.04-.73,1.86-1.1,2.47-1.1.79,0,1.57.49,2.33,1.46s1.14,1.98,1.14,3.02c0,2.2-1.37,4.32-4.12,6.36-4.85,3.63-10.45,5.45-16.8,5.45s-11.78-1.86-16.11-5.58c-2.11-1.83-3.84-4.04-5.22-6.64-1.8-3.45-2.7-7.08-2.7-10.89,0-5.13,1.56-9.73,4.67-13.82,2.68-3.54,6.1-6.18,10.25-7.92,3.11-1.31,6.48-1.97,10.12-1.97,5.8,0,10.72,1.65,14.78,4.94,2.04,1.65,3.69,3.6,4.94,5.86,1.43,2.56,2.15,5.07,2.15,7.51,0,1.98-.41,3.61-1.24,4.88s-1.89,1.9-3.2,1.9Zm-20.32-8.56h4.62c1.95,0,2.93-.9,2.93-2.7,0-1.65-.47-2.99-1.42-4.03-.95-1.04-2.18-1.56-3.71-1.56-1.71,0-3.05.67-4.03,2.01-.92,1.25-1.37,2.52-1.37,3.8,0,.92.22,1.56.66,1.92.44.37,1.21.55,2.31.55Z"/><path class="cls-2" d="m265.86,71.45v15.47c0,1.83.45,3.33,1.35,4.49.9,1.16,2.05,1.74,3.46,1.74,1.19,0,2.76-.55,4.71-1.65.46-.27.92-.41,1.37-.41.73,0,1.4.44,2.01,1.33s.92,1.85.92,2.88c0,1.89-1.04,3.71-3.11,5.45-4.33,3.69-9.58,5.54-15.75,5.54-4.88,0-8.8-1.38-11.76-4.14-2.96-2.76-4.44-6.4-4.44-10.92v-21.14c0-.7-.08-1.14-.25-1.3-.17-.17-.6-.25-1.3-.25h-4.71c-.89,0-1.45-.14-1.69-.43s-.37-.97-.37-2.04v-2.01c.03-.92.38-1.59,1.05-2.01l20.96-13.18c.52-.27,1.16-.41,1.92-.41h3.71c.76,0,1.27.18,1.53.53.26.35.39,1.04.39,2.08v6.18c0,.92.14,1.51.43,1.79s.91.41,1.85.41h8.47c1.13,0,1.86.21,2.2.62.33.41.5,1.29.5,2.63v2.7c0,1.46-.21,2.48-.64,3.04-.43.56-1.21.85-2.33.85h-8.28c-.85,0-1.43.15-1.74.46s-.46.88-.46,1.74Z"/><path class="cls-2" d="m300.37,59.46c1.53,0,4.01.34,7.46,1.01.7.12,1.28.18,1.74.18.52,0,1.53-.27,3.02-.82.7-.27,1.3-.41,1.79-.41,1.4,0,2.82.9,4.26,2.7,1.16,1.43,2.11,3.01,2.84,4.71.73,1.71,1.1,3.19,1.1,4.44s-.43,2.24-1.28,3.04c-.85.81-1.92,1.21-3.2,1.21-1.07,0-2.02-.26-2.86-.78-.84-.52-2.19-1.66-4.05-3.43-1.95-1.89-3.57-2.84-4.85-2.84-.85,0-1.59.31-2.22.94s-.94,1.37-.94,2.22c0,1.5,1.43,2.9,4.3,4.21,5.16,2.32,9.11,4.85,11.85,7.6,2.32,2.32,3.48,5.16,3.48,8.51,0,4.24-1.86,7.78-5.58,10.62-3.2,2.47-7.12,3.71-11.76,3.71-1.19,0-3.36-.2-6.5-.59-2.96-.34-4.62-.5-4.99-.5-.4,0-.85.04-1.37.14-.88.12-1.53.18-1.92.18-1.43,0-2.56-.37-3.39-1.1-1.25-1.13-2.41-2.91-3.48-5.33-1.07-2.43-1.6-4.51-1.6-6.25,0-2.81,1.1-4.21,3.3-4.21.85,0,1.64.28,2.36.85s2.22,2.07,4.51,4.51c1.25,1.34,2.29,2.27,3.11,2.77.82.5,1.71.75,2.65.75,1.01,0,1.82-.27,2.43-.8s.92-1.24.92-2.13c0-1.37-1.17-2.62-3.52-3.75-4.91-2.41-8.46-4.9-10.64-7.46-2.18-2.56-3.27-5.52-3.27-8.88,0-3.63,1.11-6.76,3.34-9.38,3.17-3.75,7.51-5.63,13-5.63Z"/><path class="cls-3" d="m263.68,20.61c-26.8,0-55.94,16.88-55.25,18.06.53.92,16.43-5.34,42.01-3.43,22.26,1.67,51.4,16.5,54.89,3.21,3.26-12.41-14.85-17.84-41.65-17.84Z"/></svg>