<?xml version="1.0" encoding="UTF-8"?><svg id="Layer_1" xmlns="http://www.w3.org/2000/svg" viewBox="0 0 500 500"><defs><style>.cls-1{fill:#e9af4a;}.cls-1,.cls-2{stroke-width:0px;}.cls-2{fill:#d38431;}</style></defs><rect class="cls-2" x="20" y="323.21" width="102.4" height="45.97" rx="11" ry="11"/><rect class="cls-2" x="139.4" y="323.82" width="102.4" height="45.97" rx="11" ry="11"/><rect class="cls-2" x="79.7" y="266.03" width="102.4" height="45.97" rx="11" ry="11"/><rect class="cls-2" x="198.71" y="381.23" width="102.4" height="45.97" rx="11" ry="11"/><rect class="cls-2" x="79.7" y="381.45" width="102.4" height="45.97" rx="11" ry="11"/><rect class="cls-2" x="20" y="439.03" width="102.4" height="45.97" rx="11" ry="11"/><rect class="cls-2" x="139.4" y="438.96" width="102.4" height="45.97" rx="11" ry="11"/><rect class="cls-2" x="259.09" y="323.21" width="102.4" height="45.97" rx="11" ry="11"/><rect class="cls-2" x="378.49" y="323.82" width="102.4" height="45.97" rx="11" ry="11"/><rect class="cls-2" x="318.79" y="266.03" width="102.4" height="45.97" rx="11" ry="11"/><rect class="cls-2" x="437.8" y="381.23" width="46.4" height="45.97" rx="11" ry="11"/><rect class="cls-2" x="318.79" y="381.45" width="102.4" height="45.97" rx="11" ry="11"/><rect class="cls-2" x="259.09" y="439.03" width="102.4" height="45.97" rx="11" ry="11"/><rect class="cls-2" x="378.49" y="438.96" width="102.4" height="45.97" rx="11" ry="11"/><rect class="cls-2" x="20" y="95.03" width="102.4" height="45.97" rx="11" ry="11"/><rect class="cls-2" x="79.7" y="153.26" width="102.4" height="45.97" rx="11" ry="11"/><rect class="cls-2" x="20" y="210.84" width="102.4" height="45.97" rx="11" ry="11"/><rect class="cls-2" x="139.4" y="210.77" width="102.4" height="45.97" rx="11" ry="11"/><rect class="cls-2" x="378.49" y="210.77" width="102.4" height="45.97" rx="11" ry="11"/><rect class="cls-1" x="16" y="328.21" width="102.4" height="45.97" rx="11" ry="11"/><rect class="cls-1" x="135.4" y="328.82" width="102.4" height="45.97" rx="11" ry="11"/><rect class="cls-1" x="75.7" y="271.03" width="102.4" height="45.97" rx="11" ry="11"/><rect class="cls-1" x="194.71" y="386.23" width="102.4" height="45.97" rx="11" ry="11"/><rect class="cls-1" x="75.7" y="386.45" width="102.4" height="45.97" rx="11" ry="11"/><rect class="cls-1" x="16" y="444.03" width="102.4" height="45.97" rx="11" ry="11"/><rect class="cls-1" x="135.4" y="443.96" width="102.4" height="45.97" rx="11" ry="11"/><rect class="cls-1" x="255.09" y="328.21" width="102.4" height="45.97" rx="11" ry="11"/><rect class="cls-1" x="374.49" y="328.82" width="102.4" height="45.97" rx="11" ry="11"/><rect class="cls-1" x="314.79" y="271.03" width="102.4" height="45.97" rx="11" ry="11"/><rect class="cls-1" x="433.8" y="386.23" width="45.4" height="45.97" rx="11" ry="11"/><rect class="cls-2" x="19.8" y="381.23" width="46.4" height="45.97" rx="11" ry="11"/><rect class="cls-1" x="15.8" y="386.23" width="45.4" height="45.97" rx="11" ry="11"/><rect class="cls-1" x="314.79" y="386.45" width="102.4" height="45.97" rx="11" ry="11"/><rect class="cls-1" x="255.09" y="444.03" width="102.4" height="45.97" rx="11" ry="11"/><rect class="cls-1" x="374.49" y="443.96" width="102.4" height="45.97" rx="11" ry="11"/><rect class="cls-1" x="16" y="100.03" width="102.4" height="45.97" rx="11" ry="11"/><rect class="cls-1" x="75.7" y="158.26" width="102.4" height="45.97" rx="11" ry="11"/><rect class="cls-1" x="16" y="215.84" width="102.4" height="45.97" rx="11" ry="11"/><rect class="cls-1" x="135.4" y="215.77" width="102.4" height="45.97" rx="11" ry="11"/><rect class="cls-1" x="374.49" y="215.77" width="102.4" height="45.97" rx="11" ry="11"/></svg>