<?xml version="1.0" encoding="UTF-8"?><svg id="Layer_1" xmlns="http://www.w3.org/2000/svg" viewBox="0 0 1920 1080"><defs><style>.cls-1{fill:#999;}.cls-1,.cls-2,.cls-3,.cls-4,.cls-5,.cls-6,.cls-7,.cls-8,.cls-9,.cls-10{stroke-width:0px;}.cls-2{fill:#85b0df;}.cls-3{fill:#bad4ef;}.cls-4{fill:#d6d7d7;}.cls-5{fill:#9cbfe6;}.cls-6{fill:#e6e6e6;}.cls-7{fill:#6ca2d8;}.cls-8{fill:#ccc;}.cls-9{fill:#f2f2f2;}.cls-10{fill:#d7ecfb;}</style></defs><rect class="cls-10" x="0" y="-.5" width="1920" height="750"/><rect class="cls-7" x="-.5" y="-.5" width="1920" height="128"/><rect class="cls-2" x="-.5" y="127.5" width="1920" height="132"/><rect class="cls-5" x="-.5" y="259.5" width="1920" height="148"/><rect class="cls-3" x="-.5" y="407.5" width="1920" height="149"/><rect class="cls-10" x="-.5" y="556.5" width="1920" height="191"/><rect class="cls-1" x=".5" y="735.5" width="1920" height="345"/><rect class="cls-6" x="89.5" y="116.99" width="189" height="643.51"/><polygon class="cls-9" points="278.5 107.5 278.5 107.53 101.82 108.47 89.5 117.24 278.5 117.24 278.5 760.5 288.5 751.01 288.5 107.5 278.5 107.5"/><polygon class="cls-9" points="1578.5 757.67 1567.5 769.5 1467.5 757.67 1456.5 68.1 1467.5 60.5 1578.5 60.5 1578.5 757.67"/><rect class="cls-6" x="1456.5" y="68.05" width="111" height="701.45"/><polygon class="cls-9" points="936.5 751.18 924.5 760.5 711.5 751.18 711.5 231.05 936.5 231.05 936.5 751.18"/><polygon class="cls-9" points="936.5 231.05 711.5 231.05 734.5 151.82 746.5 142.5 901.5 142.5 936.5 231.05"/><rect class="cls-6" x="699.5" y="240.37" width="225" height="520.13"/><polygon class="cls-6" points="924.5 240.37 699.5 240.37 734.5 151.82 889.5 151.82 924.5 240.37"/><polygon class="cls-8" points="490.5 844.5 371.5 844.5 371.5 221.5 490.5 359.5 490.5 844.5"/><polygon class="cls-6" points="385.5 221.5 371.5 221.5 490.5 360 490.5 844.5 500.5 837.5 500.5 355.5 385.5 221.5"/><path class="cls-4" d="m732.5,230.5l-105,123v463l252,17,15-17V230.5h-162Zm127,549h-198v-96h198v96Zm0-140h-198v-96h198v96Zm0-139h-198v-96h198v96Zm1-139h-198l79-96h119v96Z"/><path class="cls-8" d="m717.5,247.5l-105,123v463h267V247.5h-162Zm127,549h-198v-96h198v96Zm0-140h-198v-96h198v96Zm0-139h-198v-96h198v96Zm1-139h-198l79-96h119v96Z"/><polygon class="cls-6" points="1320.5 211.6 1320.5 177.5 1298.5 177.5 1298.5 153.5 1280.86 153.5 1272.5 159.5 1279.66 177.5 1267.12 177.5 1254.5 188.5 1264.15 233.64 1208.5 255.4 1192.5 277.5 1208.5 820.5 1427.5 833.5 1443.5 820.5 1443.5 163.5 1320.5 211.6"/><polygon class="cls-8" points="1309.5 231.94 1309.5 188.5 1291.5 188.5 1291.5 159.5 1272.5 159.5 1272.5 188.5 1254.5 188.5 1254.5 253.13 1192.5 277 1192.5 833.5 1427.5 833.5 1427.5 186.5 1309.5 231.94"/><polygon class="cls-6" points="1853.5 220.67 1824.5 220.67 1824.5 195.5 1805.5 195.5 1799.5 201.09 1804.98 220.67 1752.5 220.67 1740.5 228.13 1728.5 271.02 1728.5 753.04 1863.5 766.5 1875.5 753.04 1875.5 271.02 1853.5 220.67"/><polygon class="cls-8" points="1841.5 228.42 1818.5 228.42 1818.5 201.09 1799.5 201.09 1799.5 228.42 1740.5 228.42 1716.5 279.31 1716.5 766.5 1863.5 766.5 1863.5 279.31 1841.5 228.42"/><polygon class="cls-9" points="1072.85 288.5 1056.5 292.5 978.2 379.5 978.5 379.5 978.5 791.5 1151.5 808.5 1167.5 791.5 1167.5 379.5 1072.85 288.5"/><polygon class="cls-6" points="1056.85 292.5 962.2 383.5 962.5 383.5 962.5 808.5 1151.5 808.5 1151.5 383.5 1056.85 292.5"/></svg>