<?xml version="1.0" encoding="UTF-8"?><svg id="Layer_1" xmlns="http://www.w3.org/2000/svg" viewBox="0 0 1920 1080"><defs><style>.cls-1{fill:#999;}.cls-1,.cls-2,.cls-3,.cls-4,.cls-5,.cls-6,.cls-7,.cls-8,.cls-9{stroke-width:0px;}.cls-2{fill:#4d4d4d;}.cls-3{fill:#666;}.cls-4{fill:#e6e6e6;}.cls-5{fill:#6ca2d8;}.cls-6{fill:gray;}.cls-7{fill:#b3b3b3;}.cls-8{fill:#333;}.cls-9{fill:#ccc;}</style></defs><rect class="cls-4" x=".5" y="739.5" width="1920" height="341"/><rect class="cls-5" x=".5" y=".5" width="1920" height="739"/><rect class="cls-4" x="87.5" y="64.5" width="189" height="678"/><rect class="cls-4" x="960.5" y="330.5" width="189" height="412"/><rect class="cls-4" x="1454.5" y="8.5" width="111" height="734"/><rect class="cls-4" x="697.5" y="194.5" width="225" height="558"/><polygon class="cls-4" points="922.5 194.5 697.5 194.5 732.5 99.5 887.5 99.5 922.5 194.5"/><rect class="cls-9" x="1740.5" y="245.5" width="147" height="517"/><polygon class="cls-9" points="1425.5 763.5 1190.5 763.5 1190.5 207 1425.5 116.5 1425.5 763.5"/><polygon class="cls-9" points="436.5 785.5 317.5 785.5 317.5 162.5 436.5 300.5 436.5 785.5"/><path class="cls-9" d="m715.5,194.5l-105,123v463h267V194.5h-162Zm127,549h-198v-96h198v96Zm0-140h-198v-96h198v96Zm0-139h-198v-96h198v96Zm1-139h-198l79-96h119v96Z"/><polygon class="cls-4" points="583.5 742.5 478.5 742.5 478.5 151.5 583.5 282.41 583.5 742.5"/><polygon class="cls-1" points="513.5 857.5 406.5 857.5 406.5 300.5 513.5 423.88 513.5 857.5"/><rect class="cls-9" x="1252.5" y="118.5" width="55" height="74"/><rect class="cls-9" x="1270.5" y="89.5" width="19" height="29"/><rect class="cls-9" x="1823.5" y="162.5" width="19" height="29"/><polygon class="cls-9" points="1865.5 191.5 1764.5 191.5 1740.5 245.5 1887.5 245.5 1865.5 191.5"/><rect class="cls-7" x="24.5" y="295.5" width="228" height="528"/><rect class="cls-7" x="153.23" y="212.5" width="29.47" height="29"/><polygon class="cls-7" points="218.38 241.5 61.72 241.5 24.5 295.5 252.5 295.5 218.38 241.5"/><polygon class="cls-4" points="1054.85 239.5 960.2 330.5 1149.5 330.5 1054.85 239.5"/><rect class="cls-3" x="153.5" y="490.5" width="189" height="395"/><polygon class="cls-1" points="1120.5 895.33 828.5 895.33 900.03 493.24 1048.97 493.24 1120.5 895.33"/><rect class="cls-1" x="887.5" y="487.77" width="173" height="25.73"/><polygon class="cls-3" points="247.85 399.5 153.2 490.5 342.5 490.5 247.85 399.5"/><rect class="cls-7" x="1581.4" y="464.74" width="128.1" height="358.76"/><polygon class="cls-7" points="1645.35 385.5 1581.2 464.74 1709.5 464.74 1645.35 385.5"/><rect class="cls-7" x="1113.5" y="333.5" width="155" height="492"/><path class="cls-3" d="m1556.5,952.5h-69v-510.72c0-12.86,10.42-23.28,23.28-23.28h29c9.24,0,16.72,7.49,16.72,16.72v517.28Z"/><rect class="cls-6" x="1240.5" y="497.75" width="147" height="387.75"/><rect class="cls-6" x="1323.5" y="435.5" width="19" height="21.75"/><polygon class="cls-6" points="1365.5 457.25 1264.5 457.25 1240.5 497.75 1387.5 497.75 1365.5 457.25"/><rect class="cls-3" x="1165.77" y="491.01" width="392.57" height="15" transform="translate(-78.52 667.16) rotate(-26.78)"/><rect class="cls-3" x="1606.75" y="374.77" width="15" height="251.76" transform="translate(92.05 1235.07) rotate(-42.99)"/><rect class="cls-3" x="1178.5" y="577.5" width="530" height="81"/><rect class="cls-3" x="1474.5" y="917.5" width="96" height="35"/><rect class="cls-8" x="1634.5" y="700.5" width="249" height="299"/><rect class="cls-2" x="998.5" y="752.83" width="213" height="246.67"/><polygon class="cls-2" points="1211.5 752.83 998.5 752.83 1043.85 635.15 1167.53 635.15 1211.5 752.83"/><rect class="cls-2" x="1043.85" y="516.34" width="123.68" height="118.81"/><polygon class="cls-2" points="1105.69 457.5 1043.85 516.59 1167.53 516.59 1105.69 457.5"/><rect class="cls-2" x="1064.46" y="459.76" width="19.24" height="43"/><polygon class="cls-3" points="1920.5 849.72 1802.75 849.72 1802.75 762.08 1920.5 762.08 1920.5 721.9 1802.75 721.9 1802.75 634.26 1920.5 634.26 1920.5 595 1802.75 595 1802.75 507.36 1920.5 507.36 1920.5 468.1 1803.55 468.1 1866.87 380.45 1920.5 380.45 1920.5 348.5 1859.66 348.5 1775.5 460.8 1775.5 883.5 1920.5 883.5 1920.5 849.72"/></svg>