<?xml version="1.0" encoding="UTF-8"?><svg id="Layer_1" xmlns="http://www.w3.org/2000/svg" viewBox="0 0 1920 1080"><defs><style>.cls-1{fill:#999;}.cls-1,.cls-2,.cls-3,.cls-4,.cls-5,.cls-6,.cls-7,.cls-8,.cls-9,.cls-10,.cls-11,.cls-12,.cls-13,.cls-14,.cls-15,.cls-16,.cls-17,.cls-18,.cls-19,.cls-20,.cls-21,.cls-22,.cls-23,.cls-24,.cls-25,.cls-26,.cls-27,.cls-28{stroke-width:0px;}.cls-2{fill:#707070;}.cls-3{fill:#85b0df;}.cls-4{fill:#4d4d4d;}.cls-5{fill:#666;}.cls-6{fill:#bad4ef;}.cls-7{fill:#d6d7d7;}.cls-8{fill:#ececec;}.cls-9{fill:#9cbfe6;}.cls-10{fill:#e6e6e6;}.cls-11{opacity:.9;}.cls-11,.cls-23{fill:#fff;}.cls-12{fill:#bdbebe;}.cls-13{fill:#1a1a1a;}.cls-14{fill:#6ca2d8;}.cls-15{fill:#754c24;}.cls-16{fill:#f6d87b;}.cls-17{opacity:.75;}.cls-18{fill:gray;}.cls-19{fill:#b3b3b3;}.cls-20{fill:#333;}.cls-21{fill:#ccc;}.cls-22{fill:#3e66ae;}.cls-24{fill:#e9af4a;}.cls-25{fill:#d38431;}.cls-26{fill:#f2f2f2;}.cls-27{fill:#c69c6d;}.cls-28{fill:#d7ecfb;}</style></defs><rect class="cls-28" x=".25" y=".16" width="1920" height="750"/><rect class="cls-14" x="-.25" y=".16" width="1920" height="128"/><rect class="cls-3" x="-.25" y="128.16" width="1920" height="132"/><rect class="cls-9" x="-.25" y="260.16" width="1920" height="148"/><rect class="cls-6" x="-.25" y="408.16" width="1920" height="149"/><rect class="cls-28" x="-.25" y="557.16" width="1920" height="191"/><rect class="cls-10" x=".5" y="739.5" width="1920" height="341"/><rect class="cls-10" x="87.5" y="64.5" width="189" height="678"/><polygon class="cls-26" points="276.5 64.5 87.5 64.5 99.5 55.5 276.5 54.5 276.5 64.5"/><rect class="cls-26" x="276.5" y="54.5" width="10" height="678"/><polygon class="cls-26" points="1576.5 746.5 1465.5 746.5 1454.5 15.55 1465.5 7.5 1576.5 7.5 1576.5 746.5"/><rect class="cls-10" x="1454.5" y="15.5" width="111" height="734"/><rect class="cls-26" x="709.5" y="184.5" width="225" height="558"/><polygon class="cls-26" points="934.5 184.5 709.5 184.5 732.5 99.5 744.5 89.5 899.5 89.5 934.5 184.5"/><rect class="cls-10" x="697.5" y="194.5" width="225" height="558"/><polygon class="cls-10" points="922.5 194.5 697.5 194.5 732.5 99.5 887.5 99.5 922.5 194.5"/><polygon class="cls-21" points="488.5 791.5 369.5 791.5 369.5 168.5 488.5 306.5 488.5 791.5"/><polygon class="cls-10" points="498.5 784.5 488.5 791.5 488.5 306.5 498.5 302.5 498.5 784.5"/><polygon class="cls-10" points="498.5 302.5 488.55 307.06 369.5 168.5 383.5 168.5 498.5 302.5"/><path class="cls-7" d="m730.5,177.5l-105,123v463h267V177.5h-162Zm127,549h-198v-96h198v96Zm0-140h-198v-96h198v96Zm0-139h-198v-96h198v96Zm1-139h-198l79-96h119v96Z"/><path class="cls-21" d="m715.5,194.5l-105,123v463h267V194.5h-162Zm127,549h-198v-96h198v96Zm0-140h-198v-96h198v96Zm0-139h-198v-96h198v96Zm1-139h-198l79-96h119v96Z"/><polygon class="cls-19" points="647.5 858.23 637.5 864.5 637.5 430.08 647.5 426.5 647.5 858.23"/><polygon class="cls-19" points="647.5 426.5 637.48 431.48 530.5 307.5 544.5 307.5 647.5 426.5"/><polygon class="cls-1" points="637.5 864.5 530.5 864.5 530.5 307.5 637.5 430.88 637.5 864.5"/><polygon class="cls-10" points="1441.5 750.5 1206.5 750.5 1190.5 207.5 1206.5 185.4 1441.5 93.5 1441.5 750.5"/><polygon class="cls-10" points="1318.5 177.5 1265.12 177.5 1252.5 118.5 1265.12 107.5 1318.5 107.5 1318.5 177.5"/><polygon class="cls-10" points="1296.5 110.5 1278.86 110.5 1270.5 89.5 1278.86 83.5 1296.5 83.5 1296.5 110.5"/><polygon class="cls-21" points="1425.5 763.5 1190.5 763.5 1190.5 207 1425.5 116.5 1425.5 763.5"/><rect class="cls-21" x="1252.5" y="118.5" width="55" height="74"/><rect class="cls-21" x="1270.5" y="89.5" width="19" height="29"/><rect class="cls-10" x="1726.5" y="223.5" width="147" height="517"/><polygon class="cls-10" points="1822.5 171.5 1803.5 171.5 1797.5 148.5 1803.5 142.5 1822.5 142.5 1822.5 171.5"/><polygon class="cls-10" points="1851.5 169.5 1750.5 169.5 1738.5 177.5 1726.5 223.5 1873.5 223.5 1851.5 169.5"/><rect class="cls-21" x="1714.5" y="231.5" width="147" height="517"/><rect class="cls-21" x="1797.5" y="148.5" width="19" height="29"/><polygon class="cls-21" points="1839.5 177.5 1738.5 177.5 1714.5 231.5 1861.5 231.5 1839.5 177.5"/><rect class="cls-21" x="34.5" y="286.5" width="228" height="528"/><polygon class="cls-21" points="228.38 232.5 79.5 232.5 61.5 241.5 34.5 286.5 262.5 286.5 228.38 232.5"/><rect class="cls-19" x="24.5" y="295.5" width="228" height="528"/><polygon class="cls-21" points="181.7 232.5 144.5 232.5 144.5 212.5 151.5 203.5 181.7 203.5 181.7 232.5"/><rect class="cls-19" x="144.23" y="212.5" width="29.47" height="29"/><polygon class="cls-19" points="218.38 241.5 61.5 241.5 24.5 295.5 252.5 295.5 218.38 241.5"/><rect class="cls-26" x="976.5" y="326.5" width="189" height="412"/><polygon class="cls-26" points="1070.85 235.5 1054.5 239.5 976.2 326.5 1165.5 326.5 1070.85 235.5"/><rect class="cls-10" x="960.5" y="330.5" width="189" height="412"/><polygon class="cls-10" points="1054.85 239.5 960.2 330.5 1149.5 330.5 1054.85 239.5"/><polygon class="cls-18" points="428.5 881.5 406.5 890.5 396.5 888.5 396.5 492.5 428.5 492.5 428.5 881.5"/><polygon class="cls-18" points="332.5 396.5 311.5 400.5 226.35 492.5 428.5 492.5 332.5 396.5"/><rect class="cls-5" x="217.5" y="495.5" width="189" height="395"/><polygon class="cls-5" points="311.5 400.5 217.35 495.5 406.35 495.5 311.5 400.5"/><polygon class="cls-18" points="360.5 965.3 329.64 973.5 315.62 971.68 315.62 610.95 360.5 610.95 360.5 965.3"/><polygon class="cls-18" points="225.85 523.5 196.4 527.14 76.97 610.95 360.5 610.95 225.85 523.5"/><rect class="cls-5" x="64.56" y="613.68" width="265.08" height="359.82"/><polygon class="cls-5" points="196.4 527.14 64.35 613.68 329.43 613.68 196.4 527.14"/><polygon class="cls-12" points="1763.5 768.5 1747.5 780.5 1635.4 768.5 1635.4 414.93 1763.5 414.93 1763.5 768.5"/><polygon class="cls-12" points="1699.35 337.5 1683.5 342.39 1635.2 414.93 1763.5 414.93 1699.35 337.5"/><rect class="cls-19" x="1619.4" y="421.74" width="128.1" height="358.76"/><polygon class="cls-19" points="1683.35 342.5 1619.2 421.74 1747.5 421.74 1683.35 342.5"/><path class="cls-18" d="m1902.66,367.5l-20.16,17-64,95.3v422.7h214V367.5h-129.84Zm101.79,501.22h-158.7v-87.65h158.7v87.65Zm0-127.82h-158.7v-87.65h158.7v87.65Zm0-126.9h-158.7v-87.65h158.7v87.65Zm.8-126.9h-158.7l63.32-87.65h95.38v87.65Z"/><path class="cls-5" d="m1882.66,384.5l-84.16,112.3v422.7h214V384.5h-129.84Zm101.79,501.22h-158.7v-87.65h158.7v87.65Zm0-127.82h-158.7v-87.65h158.7v87.65Zm0-126.9h-158.7v-87.65h158.7v87.65Zm.8-126.9h-158.7l63.32-87.65h95.38v87.65Z"/><polygon class="cls-19" points="1276.5 833.5 1121.5 833.5 1111.5 351.5 1121.5 341.5 1276.5 341.5 1276.5 833.5"/><rect class="cls-1" x="1111.5" y="351.5" width="155" height="492"/><polygon class="cls-1" points="1398.5 876.5 1387.5 885.5 1251.5 876.5 1251.5 488.75 1398.5 488.75 1398.5 876.5"/><polygon class="cls-1" points="1349.5 448.25 1330.5 448.25 1323.5 435.5 1330.5 428.5 1349.5 428.5 1349.5 448.25"/><polygon class="cls-1" points="1376.5 447.5 1275.5 447.5 1264.5 457.5 1251.5 488.75 1398.5 488.75 1376.5 447.5"/><rect class="cls-18" x="1240.5" y="497.75" width="147" height="387.75"/><rect class="cls-18" x="1323.5" y="435.5" width="19" height="21.75"/><polygon class="cls-18" points="1365.5 457.25 1264.5 457.25 1240.5 497.75 1387.5 497.75 1365.5 457.25"/><polygon class="cls-1" points="778.5 951.5 767.5 960.5 631.5 951.5 631.5 563.75 778.5 563.75 778.5 951.5"/><polygon class="cls-1" points="729.5 523.25 710.5 523.25 703.5 510.5 710.5 503.5 729.5 503.5 729.5 523.25"/><polygon class="cls-1" points="756.5 522.5 655.5 522.5 644.5 532.5 631.5 563.75 778.5 563.75 756.5 522.5"/><rect class="cls-18" x="620.5" y="572.75" width="147" height="387.75"/><rect class="cls-18" x="703.5" y="510.5" width="19" height="21.75"/><polygon class="cls-18" points="745.5 532.25 644.5 532.25 620.5 572.75 767.5 572.75 745.5 532.25"/><rect class="cls-5" x="1313.77" y="493.01" width="392.57" height="15" transform="translate(-63.55 734.05) rotate(-26.78)"/><path class="cls-2" d="m1712.5,946.5h-69v-510.72c0-12.86,10.42-23.28,23.28-23.28h29c9.24,0,16.72,7.49,16.72,16.72v517.28Z"/><rect class="cls-2" x="1321.77" y="485.01" width="392.57" height="15" transform="translate(-59.09 736.8) rotate(-26.78)"/><rect class="cls-2" x="1762.75" y="368.77" width="15" height="251.76" transform="translate(138.02 1339.82) rotate(-42.99)"/><polygon class="cls-2" points="1334.5 652.5 1323.5 577.5 1334.5 571.5 1864.5 571.5 1864.5 652.5 1853.5 658.5 1334.5 652.5"/><polygon class="cls-2" points="1726.5 946.5 1715.5 952.5 1630.5 946.5 1619.5 917.5 1630.5 911.5 1726.5 911.5 1726.5 946.5"/><path class="cls-4" d="m1701.5,952.5h-69v-510.72c0-12.86,10.42-23.28,23.28-23.28h29c9.24,0,16.72,7.49,16.72,16.72v517.28Z"/><rect class="cls-4" x="1310.77" y="491.01" width="392.57" height="15" transform="translate(-62.97 732.49) rotate(-26.78)"/><rect class="cls-4" x="1751.75" y="374.77" width="15" height="251.76" transform="translate(130.98 1333.93) rotate(-42.99)"/><rect class="cls-4" x="1323.5" y="577.5" width="530" height="81"/><rect class="cls-4" x="1619.5" y="917.5" width="96" height="35"/><polygon class="cls-5" points="1009.5 887.5 993.5 898.5 796.5 887.5 796.5 644.83 1009.5 644.83 1009.5 887.5"/><polygon class="cls-5" points="1009.5 644.83 796.5 644.83 841.85 527.15 965.53 527.15 1009.5 644.83"/><polygon class="cls-5" points="965.53 527.15 841.85 527.15 841.85 408.34 965.5 408.5 965.53 527.15"/><polygon class="cls-5" points="903.69 349.41 887.5 356.41 841.85 408.5 965.5 408.5 903.69 349.41"/><polygon class="cls-5" points="871.7 395.76 852.46 395.76 846.5 358.5 852.46 352.76 871.7 352.76 871.7 395.76"/><rect class="cls-4" x="780.5" y="651.83" width="213" height="246.67"/><polygon class="cls-4" points="993.5 651.83 780.5 651.83 825.85 534.15 949.53 534.15 993.5 651.83"/><polygon class="cls-4" points="949.53 534.15 825.85 534.15 825.5 415.5 949.5 415.5 949.53 534.15"/><polygon class="cls-4" points="887.5 356.5 825.5 415.5 949.5 415.5 887.5 356.5"/><polygon class="cls-4" points="865.7 401.76 846.46 401.76 846.5 358.5 865.5 358.5 865.7 401.76"/><polygon class="cls-4" points="1525.5 1040.5 1509.5 1051.5 1312.5 1040.5 1312.5 797.83 1525.5 797.83 1525.5 1040.5"/><polygon class="cls-4" points="1525.5 797.83 1312.5 797.83 1357.85 680.15 1481.53 680.15 1525.5 797.83"/><polygon class="cls-4" points="1481.53 680.15 1357.85 680.15 1357.85 561.34 1481.5 561.5 1481.53 680.15"/><polygon class="cls-4" points="1419.69 502.41 1403.5 509.41 1357.85 561.5 1481.5 561.5 1419.69 502.41"/><polygon class="cls-4" points="1387.7 548.76 1368.46 548.76 1362.5 511.5 1368.46 505.76 1387.7 505.76 1387.7 548.76"/><rect class="cls-20" x="1296.5" y="804.83" width="213" height="246.67"/><polygon class="cls-20" points="1509.5 804.83 1296.5 804.83 1341.85 687.15 1465.53 687.15 1509.5 804.83"/><polygon class="cls-20" points="1465.53 687.15 1341.85 687.15 1341.5 568.5 1465.5 568.5 1465.53 687.15"/><polygon class="cls-20" points="1403.5 509.5 1341.5 568.5 1465.5 568.5 1403.5 509.5"/><polygon class="cls-20" points="1381.7 554.76 1362.46 554.76 1362.5 511.5 1381.5 511.5 1381.7 554.76"/><polygon class="cls-2" points="383.5 1020.57 370.51 1025.5 370.51 683.89 383.5 681.08 383.5 1020.57"/><polygon class="cls-2" points="383.5 681.08 370.48 684.99 231.5 587.5 249.69 587.5 383.5 681.08"/><polygon class="cls-4" points="370.51 1025.5 231.5 1025.5 231.5 587.5 370.51 684.52 370.51 1025.5"/><polygon class="cls-4" points="597.5 1067.57 583.06 1072.5 583.06 730.89 597.5 728.08 597.5 1067.57"/><polygon class="cls-4" points="597.5 728.08 583.03 731.99 428.5 634.5 448.72 634.5 597.5 728.08"/><polygon class="cls-20" points="583.06 1072.5 428.5 1072.5 428.5 634.5 583.06 731.52 583.06 1072.5"/><polygon class="cls-20" points="1092.5 1049.79 1063.5 1069.5 801.35 1049.79 772.5 650.5 801.35 627.5 1092.5 627.5 1092.5 1049.79"/><rect class="cls-13" x="772.5" y="650.07" width="291.15" height="419.43"/><rect class="cls-17" x=".5" y="1.5" width="1920" height="1081"/><rect class="cls-11" x="197.36" y="130.97" width="1525" height="822" rx="411" ry="411"/><polygon class="cls-24" points="1323.78 588.91 1329.6 592.17 1329.6 597.4 1374.12 597.4 1374.12 588.27 1329.3 588.27 1323.58 582.98 1324.32 587.44 1323.78 588.91"/><path class="cls-24" d="m1449.66,674.59v-134.47l-13.28,5.31h0s13.28-5.31,13.28-5.31l-24.9-24.9-34.72-34.72-12.97,21.89h0s11.62,11.62,11.62,11.62v5.35l-20.38-13.96-11.62,13.13,11.62,43.99-11.97-20.75-11.27,13.28,5.81,22.41,34.03-2.49-4.15,81.35-65.58-9.96v-48.97h10.87l-.07-4.98-4.98-3.32.83-2.49-1.02-6.18.4.36-2.7-2.49-11.62,13.28,11.62,107.08-18.64-87.16-12.9,14.94-11.62,18.26-12.45-15.77-11.62,13.28,8.02,36.2-13-31.22-58.94,68.21v95.31h237.4v13.28l24.9-11.95v-137.46s-13.28,0-13.28,0h0s13.28,0,13.28,0Zm-41.53,53.89l-14.09,81.41h-205.86l9.96-103.76,108.74,5.81,101.71-18.19-.46,34.73Z"/><polygon class="cls-24" points="1340.55 638.85 1342.05 635.84 1340.72 634.17 1336.59 633.07 1336.02 637.34 1333.76 638.1 1333.01 641.11 1323.38 646.39 1348.08 646.39 1346.58 641.11 1340.55 638.85"/><polygon class="cls-24" points="1330.75 637.34 1333.01 635.84 1335.27 630.56 1341.21 629.9 1344.32 626.79 1340.55 626.79 1338.29 623.78 1332.4 630 1324.72 632.07 1315.19 629.77 1315.19 646.37 1322.26 646.39 1330.75 640.36 1330.75 637.34"/><polygon class="cls-24" points="1329.6 597.4 1331.88 599.2 1335.27 605.69 1343.56 605.69 1348.08 613.98 1348.08 617.75 1349.59 619.25 1351.85 619.25 1354.87 619.25 1356.37 615.49 1359.39 615.49 1362.4 612.47 1362.52 610.21 1363.16 607.95 1364.64 606.44 1367.68 606.44 1363.91 608.16 1363.91 611.64 1361.65 616.99 1358.17 616.99 1356.24 620.76 1353.37 621.89 1351.63 622.94 1352.88 622.94 1356.37 624.53 1358.64 626.04 1358.64 630.56 1360.14 631.31 1367.68 628.3 1370.49 630.56 1373.16 632.07 1369.8 632.07 1367.68 629.81 1359.39 635.08 1356.11 632.44 1355.62 627.54 1353.36 626.79 1350.16 627.71 1344.59 632.55 1345.41 635.84 1344.32 637.34 1348.08 639.6 1349.39 646.39 1373.26 646.39 1373.26 597.4 1329.6 597.4"/><polygon class="cls-24" points="1334.88 624.46 1331.88 623.96 1331.5 617.75 1328.49 617.75 1327.73 615.49 1324.72 610.96 1328.49 613.98 1329.24 615.49 1332.26 614.69 1333.76 616.99 1333.17 620.76 1339.04 620.76 1342.05 623.78 1345.48 622.06 1343.56 617.75 1345.29 613.69 1342.81 607.95 1333.76 609.46 1330 599.66 1326.05 597.4 1315.19 597.4 1315.19 628.94 1324.72 629.81 1331.88 627.14 1334.88 624.46"/><polygon class="cls-24" points="1248.78 717.76 1247.54 719.44 1252.93 725.23 1253.76 721.91 1252.93 717.76 1256.25 716.1 1257.91 711.95 1246.29 711.95 1247.95 715.27 1248.78 717.76"/><polygon class="cls-24" points="1255.42 718.69 1256.25 722.74 1256.25 726.89 1268.7 724.4 1270.36 716.93 1277 716.1 1283.65 719.38 1283.65 711.95 1257.91 711.95 1257.91 717.32 1255.42 718.69"/><polygon class="cls-24" points="1277 717.76 1272.48 719.42 1272.07 726.89 1255.42 731.04 1255.42 737.68 1252.1 743.49 1256.25 753.45 1250.44 743.49 1252.1 737.68 1248.78 736.85 1245.46 733.53 1249.03 729.37 1247.95 728.9 1242.14 726.89 1235.5 722.74 1233.84 717.76 1228.86 716.1 1225.54 716.97 1225.54 770.05 1283.65 770.05 1283.65 719.4 1277 717.76"/><polygon class="cls-24" points="1235.5 716.93 1237.16 721.91 1242.97 725.23 1247.95 724.4 1248.56 724.18 1244.63 720.25 1246.29 716.93 1246.29 711.95 1241.43 711.95 1225.54 711.95 1225.54 716.97 1228.86 715.27 1235.5 716.93"/><polygon class="cls-24" points="1247.12 733.53 1248.78 736.02 1252.1 737.68 1251.27 729.38 1247.12 733.53"/><polygon class="cls-24" points="954.96 813.89 971.11 824.07 1132.4 773.61 1182.65 721.88 1173.55 708.3 1109.24 715.43 1101.99 727.08 1091.44 712.49 1079.3 698.59 1053.71 737.68 1077.52 717.45 1064.91 703.72 1041.84 722.64 1037.2 698.92 1023.25 684.57 1001.42 738.51 999.7 727.29 984.5 713.89 975.68 726.06 974.86 710.66 958.83 696.71 937.5 737 954.96 813.89"/><polygon class="cls-25" points="971.11 824.07 1142.83 785.09 1182.65 721.88 1120.42 728.78 1113.4 740.06 1091.44 712.49 1052.17 770.16 1077.52 717.45 1055.19 735.76 1037.2 698.92 1011.38 757.6 999.7 727.29 983.25 750.29 974.86 710.66 954.22 749.66 971.11 824.07"/><polygon class="cls-24" points="990.53 756.86 999.99 758.07 1000.94 753.58 1006.64 748.15 997.19 743.87 997.67 738.56 982.24 761.56 987.37 765.01 987.91 762.29 991.46 761.59 990.53 756.86"/><polygon class="cls-24" points="1035.36 768.13 1033.79 764.93 1035.47 762.43 1032.94 757.09 1030.44 755.42 1027.66 763.35 1026.5 766.68 1023.34 764.56 1017.71 769 1015.34 772.54 1016.99 774.67 1010.92 773.4 1017.9 786.59 1023.09 790.07 1033.49 774.56 1036.47 768.87 1035.36 768.13"/><polygon class="cls-24" points="1023.83 762.58 1023 758.43 1023 755.94 1019.68 758.43 1020.51 755.94 1019.64 754.17 1015.18 753.23 1014.83 747.35 1013.51 750.06 1007.82 755.48 1006.86 759.97 1019.14 766.16 1023.83 762.58"/><polygon class="cls-24" points="1013.91 772.06 1012.26 769.93 1014.63 766.39 1002.35 760.2 992.9 758.99 993.83 763.73 990.28 764.42 989.74 767.15 1014.83 783.98 1007.85 770.79 1013.91 772.06"/><polygon class="cls-24" points="1042.26 753.46 1036.56 752.73 1034.95 755.2 1037.48 760.54 1035.81 763.04 1037.37 766.24 1038.48 766.98 1035.5 772.67 1048.86 752.76 1047.88 752.11 1042.26 753.46"/><polygon class="cls-24" points="1127.77 746.78 1127.04 741.09 1122.64 740.48 1121.33 737.81 1121.61 736.05 1118.8 738.26 1118.9 736.41 1117.15 733.49 1113.95 731.64 1113.04 734.95 1110.87 742.84 1108.34 741.38 1106.94 743.89 1099.53 743.45 1095.99 745.25 1130.96 765.38 1138.21 752.78 1138.33 747.59 1128.87 744.06 1127.77 746.78"/><polygon class="cls-24" points="1155.71 725.29 1150.49 722.29 1150.15 724.96 1146.75 725.88 1147.97 730.41 1138.7 729.87 1138.07 734.29 1132.9 739.94 1142.36 743.47 1142.25 748.66 1155.71 725.29"/><polygon class="cls-24" points="1120.15 734.03 1122.96 731.82 1122.69 733.58 1124 736.25 1128.39 736.86 1129.12 742.55 1130.22 739.83 1135.39 734.18 1136.02 729.76 1123.68 724.57 1118.51 729.25 1120.26 732.18 1120.15 734.03"/><polygon class="cls-24" points="1021.57 740.76 1019.52 742.39 1021.14 744.45 1019.69 744.99 1020.68 750.16 1022.36 753.19 1024.66 753.45 1023.83 755.11 1025.49 760.92 1026.61 761.93 1027.7 758.67 1030.32 750.92 1032.77 752.52 1034.08 750.47 1034.08 750.47 1034.31 750.1 1041.68 750.97 1045.32 749.38 1019.87 732.7 1024.54 737.75 1022.25 738.22 1021.57 740.76"/><rect class="cls-24" x="1320.17" y="741" width="47.31" height="83.01"/><path class="cls-25" d="m1377.07,502.39v30.26l-20.38-13.96v57.12l-11.62-20.75-6.64,33.2h34.86v58.11h-58.11v-47.93l-8.3-6.86v120.36l-18.64-87.16-24.52,33.2-12.45-15.77-3.6,49.49-12.17-32.05-59.77,69.04v95.31h249.02v-149.41s0-124.51,0-124.51l-47.69-47.69Zm17.78,239.37l-16.79-2.61-5.48,30.94-1.81-31.26-25.47-2.34,20.93-5.17-30.07-15.88,36.42,10.07,22.73-18.48-15.65,23.67,15.2,11.06Zm-169.31,22.47v-52.3h58.11v52.3h-58.11Z"/><rect class="cls-24" x="1321" y="741" width="47.31" height="83.01"/><path class="cls-27" d="m557.39,520.48c0,53.5-49.32,126.81-88.07,126.81s-88.07-73.31-88.07-126.81,39.43-96.87,88.07-96.87,88.07,43.37,88.07,96.87Z"/><circle class="cls-20" cx="426.17" cy="535.45" r="8.81"/><circle class="cls-20" cx="509.84" cy="535.45" r="8.81"/><path class="cls-22" d="m516.8,605.9h-85.27c-43.82,0-79.34,35.52-79.34,79.34l4.3,157.26,54.72,27.6v-143.55h3.02v143.55s144.07,0,144.07,0l-.03-174.37,37.87-13.21s-35.52-76.62-79.34-76.62Z"/><path class="cls-15" d="m553.91,498.18c-5.05,50.9-42.31,100.68-87.22,100.68s-76.89-49.78-81.94-100.68c-2.26,5.63-3.48,12.91-3.48,22.3,0,53.5,50.2,126.81,88.07,126.81s88.07-73.31,88.07-126.81c0-9.39-1.22-16.67-3.48-22.3Z"/><path class="cls-22" d="m537.23,706.03l6.76-59.1,84.17-26.75,26.66,8.18c8.82,8.86,9.52,18.77,4.76,26.63-1.71,2.81-4.32,4.96-7.39,6.15l-114.96,44.88Z"/><path class="cls-27" d="m471.91,625.44c-.95,3.92,1.96,7.82,6.39,8.52,2.6.41,5.22.64,7.86.69l30.71-.56,2.48-19.86-29.05-10.26c-2.33-.73-4.72-1.28-7.14-1.62-3.07-.44-5.97,1.32-6.63,4.03l-4.63,19.07Z"/><path class="cls-27" d="m507.32,631.97l-33.64,13.77c-2.24.92-4.91.03-5.97-1.99l-.8-1.53c-1.06-2.02-.1-4.4,2.15-5.31l33.64-13.77c2.24-.92,4.91-.03,5.97,1.99l.8,1.53c1.06,2.02.1,4.4-2.15,5.31Z"/><path class="cls-22" d="m656.65,649.87l-18.16,9.13c-2.02,1.02-4.39,1.34-6.68.9l-108.13-20.55c-4.95-.94-8.29-5.13-7.66-9.6l1.59-11.24c.62-4.41,4.92-7.63,9.91-7.4l114.25,5.2c19.63,1.2,21.51,23.25,20.42,31.85-.34,2.72-2.89.36-5.54,1.7Z"/><path class="cls-23" d="m618.8,657.1c-52.16-9.86-90.29-17.16-93.72-17.92-.06-.01-.16-.03-.31-.06-1.62-.32-5.77-1.16-9.32-3.25-.79-.46-1.87-1.18-2.9-2.17l4.33.38c.68.55,1.89,1.42,3.77,2.24,1.95.86,3.75,1.29,4.84,1.51,31.19,5.96,62.38,11.92,93.57,17.87l-.27,1.39Z"/><path class="cls-24" d="m557.39,501.1s-39.43,25.54-88.07,25.54-88.07-25.54-88.07-25.54c0,0,0-109.2,88.07-109.2s88.07,109.2,88.07,109.2Z"/><path class="cls-24" d="m557.39,501.1s-39.43-2.64-88.07-2.64-88.07,2.64-88.07,2.64c0,0,0-109.2,88.07-109.2s88.07,109.2,88.07,109.2Z"/><path class="cls-25" d="m490.69,498.46h-42.73c-2.69,0-4.77-2.35-4.46-5.02l12.14-101.99c.27-2.26,2.18-3.96,4.46-3.96h18.45c2.27,0,4.19,1.7,4.46,3.96l12.14,101.99c.32,2.67-1.77,5.02-4.46,5.02Z"/><path class="cls-16" d="m525.25,429.62c9.9,14.25,9.95,37.18,8.95,37.34-.78.12-2.68-11.09-13.34-23.85-9.28-11.11-29.45-20.06-22.31-27.77,6.67-7.2,16.8.04,26.7,14.29Z"/><path class="cls-8" d="m1311.64,131.03h-703c-226.99,0-411,184.01-411,411h0c0,226.99,184.01,411,411,411h703c226.99,0,411-184.01,411-411h0c0-226.99-184.01-411-411-411Zm309.5,411c0,173.35-140.53,313.87-313.87,313.87h-694.25c-173.35,0-313.87-140.53-313.87-313.87h0c0-173.35,140.53-313.88,313.87-313.88h694.25c173.35,0,313.87,140.53,313.87,313.87h0Z"/></svg>