<?xml version="1.0" encoding="UTF-8"?><svg id="Layer_1" xmlns="http://www.w3.org/2000/svg" width="410" height="155" viewBox="0 0 410 155"><defs><style>.cls-1{fill:#999;}.cls-1,.cls-2,.cls-3{stroke-width:0px;}.cls-2{fill:#c5c9cb;}.cls-3{fill:#333;}</style></defs><rect class="cls-3" x="2.57" y="2.28" width="405" height="150.45" rx="11" ry="11"/><path class="cls-1" d="m384.76,146.97l-64.41.29c-1.2.03-2.03.21-2.42-2l-6.04-28-30.21,28c-1.21,1-3.99,2-6.04,2l-250.26-.29c-8.08,0-14.63-4.79-14.63-10.71V18.43c0-5.91,6.55-10.71,14.63-10.71h12.21s1.78,0,1.78,0c1.44,0,2.72.66,3.19,1.64l15.54,22.9-2.44-22.43c.23-1.21,1.66-2.11,3.35-2.11h14.31l1.71,11.54,9.07-11.54h300.68c6.73,0,12.4,3.32,14.11,7.84.56,1.47-.83,2.96-2.93,3.11l-51.12,3.65,52.05,9.93c1.48.28,2.52,1.25,2.52,2.36v101.64c0,5.91-6.55,10.71-14.63,10.71Z"/><path class="cls-2" d="m309.71,16.31c-39.64-6.51-85.15,1.01-84.31,2.19.66.92,25.06-.63,62.63,7.25,32.7,6.85,73.7,26.77,80.75,16.12,6.58-9.94-19.43-19.04-59.08-25.56Z"/></svg>