<?xml version="1.0" encoding="UTF-8"?><svg id="Layer_1" xmlns="http://www.w3.org/2000/svg" viewBox="0 0 500 500"><defs><style>.cls-1{fill:#4d4d4d;}.cls-1,.cls-2,.cls-3{stroke-width:0px;}.cls-2{fill:#e9af4b;}.cls-3{fill:#d38431;}</style></defs><polygon class="cls-3" points="50.44 359.43 71.08 354.38 77.81 349.32 23.07 349.32 50.44 359.43"/><path class="cls-3" d="m474.09,162.89L337.54,16.38l-.07-.14L47.95,162.36h-23.59l-8.86,5.02v11.83h15.05l7.61,51.9,6.81.08v71.98h-21.9l-6.73,4.89,6.73,41.27h54.75v-46.16h-22.74v-71.87l243.31,2.81v215.12h-10.95l-9.26,5.05,9.26,24.42,71.59,5.05,9.26-5.05v-29.48h-11.79v-214.44l118.75,1.37,9.26-5.05v-68.22h-10.42Zm-175.71,0H81.55l216.83-109.43v109.43Zm58.11,0V55.25l100.33,107.64h-100.33Z"/><path class="cls-2" d="m475.24,236.16v-68.22h-10.42L328.27,21.44l-.07-.14L38.68,167.41H15.49v69.06h22.73v71.75h-21.9v46.16h54.75v-46.16h-22.74v-71.75h3.26v-.31h237.53v218.12h-10.95v29.48h80.85v-29.48h-11.79v-218.12h128.01ZM347.23,60.31l100.33,107.64h-100.33V60.31Zm-58.11,107.64H65.68l223.45-112.77v112.77Z"/><polygon class="cls-2" points="71.08 354.38 16.33 354.38 43.29 364.33 44.97 364.02 71.08 354.38"/><polygon class="cls-1" points="44.1 398.27 39.07 393.96 39.07 386.38 44.97 381.33 44.97 364.02 43.29 364.33 43.29 380.48 37.39 385.54 37.39 394.8 44.13 400.7 50.23 394.95 49.04 393.75 44.1 398.27"/></svg>