<?xml version="1.0" encoding="UTF-8"?><svg id="Layer_1" xmlns="http://www.w3.org/2000/svg" viewBox="0 0 390 155"><defs><style>.cls-1{fill:#999;}.cls-1,.cls-2,.cls-3,.cls-4{stroke-width:0px;}.cls-3{fill:#c5c9cb;}.cls-4{fill:#333;}</style></defs><rect class="cls-4" x="2.57" y="2.28" width="385" height="150.45" rx="11" ry="11" transform="translate(-.42 1.05) rotate(-.31)"/><path class="cls-1" d="m366.26,146.05l-61.23.62c-1.14.03-1.93.22-2.31-1.99l-5.9-27.97-28.57,28.15c-1.14,1.01-3.78,2.02-5.73,2.03l-237.9.99c-7.68.04-13.94-4.72-13.97-10.63l-.64-117.83c-.03-5.91,6.17-10.74,13.85-10.78l11.6-.06h1.69c1.37-.02,2.59.63,3.04,1.61l14.89,22.82-2.44-22.42c.21-1.21,1.57-2.12,3.17-2.13l13.6-.07,1.69,11.53,8.56-11.59,285.83-1.54c6.4-.03,11.8,3.26,13.45,7.77.54,1.47-.77,2.96-2.77,3.12l-48.57,3.91,49.54,9.67c1.41.28,2.4,1.24,2.41,2.35l.55,101.64c.03,5.91-6.17,10.74-13.85,10.78Z"/><path class="cls-2" d="m77.25,42.73c3.84,0,7.46.54,10.85,1.63,1.52.5,2.56.75,3.12.75.59,0,1.82-.34,3.69-1.01.62-.21,1.25-.31,1.89-.31,1.64,0,3.21.97,4.7,2.9,2.4,3.11,3.6,6.5,3.6,10.2,0,2.52-.64,4.56-1.91,6.11s-2.95,2.33-5.03,2.33c-1.7,0-3.37-.62-5.01-1.85-.5-.38-1.71-1.76-3.65-4.13-3.22-3.96-6.93-5.93-11.12-5.93-3.81,0-6.83,1.39-9.07,4.17s-3.36,6.53-3.36,11.25c0,7,1.79,12.96,5.36,17.89,1.35,1.79,2.96,3.21,4.83,4.29,1.88,1.07,3.74,1.6,5.58,1.6,1.52,0,2.78-.51,3.76-1.52.98-1.01,1.47-2.31,1.47-3.89,0-1.41-.41-2.4-1.23-2.99-.32-.23-.62-.37-.9-.42-.28-.04-1.12-.07-2.53-.07-1.26,0-2.31-.4-3.14-1.21-.83-.8-1.25-1.82-1.25-3.05,0-2.43,1.61-4.16,4.83-5.19,3.54-1.11,7.63-1.67,12.26-1.67,4.95,0,9.11.51,12.48,1.54,3.19,1,4.79,2.8,4.79,5.4,0,1.05-.37,1.97-1.1,2.75-.73.78-1.68,1.24-2.86,1.38-1.03.15-1.69.38-2,.68-.31.31-.62,1.06-.95,2.26-1.26,4.66-3.72,8.55-7.38,11.69-2.52,2.14-5.56,3.81-9.12,5.01s-7.3,1.8-11.23,1.8c-6.42,0-12.3-1.48-17.67-4.44-5.51-3.02-9.7-7.24-12.57-12.66-2.4-4.51-3.6-9.39-3.6-14.63s1.44-10.34,4.31-15.12c3.05-5.13,7.31-9.08,12.79-11.87,4.78-2.46,10.22-3.69,16.35-3.69Z"/><path class="cls-2" d="m135.34,60.44c1.55,0,2.5.22,2.83.66.34.44.64,1.85.9,4.22.15,1.29.6,1.93,1.36,1.93.59,0,1.14-.42,1.67-1.27,2.34-3.66,5.41-5.49,9.18-5.49,2.67,0,4.85.87,6.55,2.59.82.85,1.49,1.94,2.02,3.27.53,1.33.79,2.62.79,3.85,0,1.38-.32,2.79-.97,4.24-.64,1.45-1.48,2.64-2.5,3.58-1.88,1.79-4.17,2.68-6.9,2.68-1.49,0-2.75-.26-3.76-.79s-2.34-1.6-3.98-3.21c-.62-.62-1.19-.92-1.71-.92-.82,0-1.36.46-1.6,1.38-.25.92-.37,2.86-.37,5.82,0,4.42.16,7.44.48,9.05.21.88.49,1.49.86,1.82.37.34,1.15.68,2.35,1.03,2.64.79,3.96,2.17,3.96,4.13,0,1.2-.42,2.25-1.27,3.14-.85.89-1.98,1.49-3.38,1.78-2.81.59-6.94.88-12.39.88s-9.13-.46-11.82-1.36c-2.4-.82-3.6-2.24-3.6-4.26,0-1.52.88-2.89,2.64-4.09.85-.56,1.44-1.06,1.76-1.52.32-.45.54-1.08.66-1.87.47-2.67.7-7.6.7-14.81,0-1.32-.15-2.26-.44-2.83-.29-.57-.88-1.03-1.76-1.38-2.08-.82-3.12-2.01-3.12-3.56,0-1.41.72-2.62,2.15-3.62,1.44-1.01,3.84-2.02,7.21-3.01,4.51-1.35,8.35-2.04,11.51-2.06Z"/><path class="cls-2" d="m187.16,60.13c5.1,0,9.42,1.29,12.96,3.87,1.88,1.38,3.19,2.95,3.93,4.72.75,1.77,1.12,4.21,1.12,7.32l-.09,6.55c0,4.54.32,7.48.97,8.83.32.64.63,1.05.92,1.23s.91.34,1.85.48,1.41.76,1.41,1.85c0,1.41-.56,2.87-1.69,4.39-1.13,1.52-2.59,2.8-4.37,3.82-2.2,1.29-4.5,1.93-6.9,1.93-3.08,0-5.51-1.05-7.29-3.16-.62-.76-1.19-1.14-1.71-1.14-.59,0-1.36.37-2.33,1.1-2.93,2.14-6.25,3.21-9.98,3.21s-6.94-.82-9.32-2.46c-1.55-1.08-2.78-2.5-3.69-4.24-.91-1.74-1.36-3.57-1.36-5.47,0-3.05,1.23-5.74,3.69-8.09,3.84-3.69,9.58-5.55,17.23-5.58,1.7,0,2.77-.17,3.21-.5.44-.34.66-1.12.66-2.35,0-3.11-.32-5.35-.97-6.75-.64-1.39-1.7-2.09-3.16-2.09-.88,0-1.66.26-2.35.79-.69.53-1.55,1.49-2.57,2.9-2.61,3.72-5.33,5.58-8.17,5.58-1.44,0-2.61-.43-3.52-1.28s-1.36-1.96-1.36-3.34.56-2.81,1.69-4.22c1.13-1.41,2.66-2.64,4.59-3.69,5.3-2.81,10.84-4.22,16.61-4.22Zm-2.94,25.45c-1.29,0-2.41.53-3.36,1.58-.95,1.05-1.43,2.31-1.43,3.78s.34,2.54,1.01,3.41c.67.86,1.57,1.29,2.68,1.29,2.34,0,3.52-1.98,3.52-5.93,0-1.61-.17-2.7-.5-3.25-.34-.56-.97-.85-1.91-.88Z"/><path class="cls-2" d="m238.97,68.35h5.45c.91,0,1.56.14,1.96.42.4.28.56.74.5,1.38l-.35,5.23c-.06,1.05-.22,1.72-.48,2-.26.28-.85.42-1.76.42-.21,0-.69-.03-1.45-.09-.53-.03-.97-.04-1.32-.04-1.23,0-2.07.4-2.5,1.21-.44.8-.66,2.34-.66,4.59,0,3.08.34,5.67,1.01,7.78.26.91.64,1.58,1.14,2,.5.43,1.32.8,2.46,1.12,2.58.76,3.87,2.18,3.87,4.26,0,2.2-1.5,3.78-4.5,4.75-3,.97-7.93,1.45-14.79,1.45-10.17,0-15.25-2.02-15.25-6.06,0-1,.21-1.73.64-2.2.42-.47,1.35-1.01,2.79-1.63,1.55-.7,2.49-2.01,2.81-3.91.5-2.87.75-5.95.75-9.23,0-1.46-.26-2.48-.77-3.05-.51-.57-1.44-.84-2.79-.81-1.58,0-2.59-.08-3.03-.24-.44-.16-.64-.55-.62-1.16l.35-5.54c.06-.91.21-1.47.46-1.69.25-.22.94-.36,2.09-.42,1.08-.06,1.63-.59,1.63-1.58,0-.41-.4-1.35-1.19-2.81-1.35-2.43-2.02-4.86-2.02-7.29,0-3.57,1.23-6.49,3.69-8.75,3.6-3.31,8.77-4.96,15.51-4.96,5.54,0,9.96,1.3,13.27,3.91,2.55,2.02,3.82,4.35,3.82,6.99,0,1.9-.63,3.51-1.89,4.81-1.26,1.3-2.83,1.96-4.7,1.96-2.11,0-4.13-.73-6.06-2.2-.47-.38-1.58-1.54-3.34-3.47-1.26-1.35-2.52-2.02-3.78-2.02-.82,0-1.52.29-2.11.88s-.88,1.3-.88,2.15c0,2.31,2.2,4.79,6.59,7.43,1.35.82,2.26,1.46,2.75,1.93s.92,1.13,1.3,1.98c.21.35.67.53,1.41.53Z"/><path class="cls-2" d="m276.28,63.21v25.53c0,2.02.18,3.5.55,4.44.37.94,1.11,1.8,2.22,2.59.91.64,1.52,1.19,1.82,1.65.31.45.46,1.03.46,1.73,0,3.78-4.79,5.67-14.37,5.67-5.16,0-9.24-.41-12.26-1.23-1.03-.29-1.85-.81-2.48-1.54-.63-.73-.95-1.57-.95-2.5,0-.79.16-1.41.48-1.85s1.14-1.14,2.46-2.11c.91-.67,1.55-1.77,1.93-3.3s.57-3.79.57-6.81c0-.97-.07-2.78-.2-5.43-.13-2.65-.23-4.2-.29-4.64-.18-1.2-1-2.12-2.46-2.77-1.82-.79-2.72-1.96-2.72-3.52,0-1.85,1.19-3.22,3.56-4.13,3.28-1.26,6.8-2.33,10.55-3.21s6.65-1.32,8.7-1.32c1.61,0,2.42.91,2.42,2.72Zm-8.7-19.25c2.55,0,4.57.48,6.06,1.43,1.49.95,2.24,2.23,2.24,3.84,0,2.26-1.13,4.04-3.38,5.36-3.57,2.08-7.9,3.12-12.96,3.12-2.14,0-3.84-.41-5.1-1.23-1.7-1.05-2.55-2.52-2.55-4.39,0-2.52,1.8-4.5,5.41-5.93,3.66-1.46,7.09-2.2,10.28-2.2Z"/><path class="cls-2" d="m309.37,46.11l-.4,13.75c-.03,1.38-.04,3.4-.04,6.06,0,2.96.04,4.7.13,5.23.21,1.2.82,1.8,1.85,1.8.88,0,2.23-.56,4.04-1.69,1.82-1.13,2.72-1.97,2.72-2.53,0-.32-.32-.91-.97-1.76-.47-.62-.7-1.2-.7-1.76,0-3.16,3.9-4.75,11.69-4.75,4.04,0,7.24.41,9.58,1.23.94.32,1.71.88,2.33,1.67s.92,1.64.92,2.55c0,1.32-.63,2.24-1.89,2.77-.26.12-1.11.31-2.55.57-1.29.23-2.96,1.03-5.01,2.4-2.05,1.36-3.08,2.35-3.08,2.96,0,.41,1.24,2.34,3.71,5.78,2.48,3.44,4.78,6.44,6.92,8.99,1.38,1.67,2.45,2.84,3.23,3.52.78.67,1.85,1.39,3.23,2.15,2.11,1.14,3.16,2.45,3.16,3.91,0,1.55-.67,2.77-2,3.65-1.33.88-3.16,1.32-5.47,1.32h-14.24c-1.79-.03-3.18-.69-4.17-1.98l-7.29-9.36c-1.93-2.46-3.11-3.93-3.54-4.39-.42-.47-.78-.7-1.08-.7-.35,0-.59.26-.7.79s-.18,1.52-.18,2.99c0,1.32.15,2.28.44,2.88.29.6.97,1.32,2.02,2.17.76.62,1.14,1.52,1.14,2.72,0,2.05-1.08,3.53-3.25,4.44s-5.74,1.36-10.72,1.36c-5.86,0-9.67-.25-11.43-.75-1-.29-1.85-.89-2.55-1.78-.7-.89-1.05-1.84-1.05-2.84,0-1.11.62-2.08,1.85-2.9,1.05-.67,1.73-1.19,2.02-1.54s.53-.91.7-1.67c.67-4.1,1-10.43.97-18.98v-9.62c0-3.28-.17-5.38-.5-6.28-.34-.91-1.17-1.45-2.48-1.63-2.4-.32-3.6-1.32-3.6-2.99,0-1.11.53-2.12,1.58-3.01,1.05-.89,2.78-1.78,5.19-2.66,7.68-2.84,13.36-4.26,17.05-4.26,1.67,0,2.48.72,2.42,2.15Z"/><path class="cls-3" d="m316.46,21.69c-25.9-6.88-58.4,1.96-58.04,3.27.28,1.02,17.25-.94,41.48,7.47,21.09,7.33,45.44,29.15,52.23,17.19,6.33-11.16-9.77-21.05-35.67-27.93Z"/></svg>