<?xml version="1.0" encoding="UTF-8"?><svg id="Layer_1" xmlns="http://www.w3.org/2000/svg" width="305" height="155" viewBox="0 0 305 155"><defs><style>.cls-1{fill:#f6d87b;}.cls-1,.cls-2,.cls-3{stroke-width:0px;}.cls-2{fill:#e9af4a;}.cls-3{fill:#d38431;}</style></defs><rect class="cls-3" x="1.88" y="1.62" width="300.89" height="150.45" rx="11" ry="11"/><path class="cls-2" d="m285.83,7.22h-25.48c-.95,0-1.82.52-2.25,1.35l-21.72,42.47,6.01-41.03c.22-1.47-.96-2.79-2.49-2.79H18.83c-6,0-10.87,4.79-10.87,10.71v117.84c0,5.91,4.87,10.71,10.87,10.71h10.39c1.07,0,2.02-.66,2.37-1.64l7.02-19.54,2.7,19.07c.17,1.21,1.23,2.11,2.49,2.11h73.09l2.09-9.94,4.1,9.94h162.75c5,0,9.21-3.32,10.48-7.84.41-1.47-.62-2.96-2.17-3.11l-37.98-3.65,38.67-9.93c1.1-.28,1.87-1.25,1.87-2.36V17.93c0-5.91-4.87-10.71-10.87-10.71Z"/><path class="cls-1" d="m287.25,30.65c6.83,14.01-.17,36.28-1.35,36.41-.92.1.38-10.82-7.78-23.38-7.1-10.94-27.22-19.98-16.74-27.35,9.78-6.88,19.04.32,25.88,14.32Z"/></svg>