<?xml version="1.0" encoding="UTF-8"?><svg id="Layer_1" xmlns="http://www.w3.org/2000/svg" viewBox="0 0 340 155"><defs><style>.cls-1{fill:#999;}.cls-1,.cls-2,.cls-3,.cls-4{stroke-width:0px;}.cls-3{fill:#c5c9cb;}.cls-4{fill:#333;}</style></defs><rect class="cls-4" x="2.45" y="2.28" width="335.1" height="150.45" rx="11" ry="11"/><path class="cls-1" d="m318.68,146.97l-53.29.29c-.99.03-1.68.21-2-2l-5-28-25,28c-1,1-3.3,2-5,2l-207.06-.29c-6.69,0-12.11-4.79-12.11-10.71V18.43c0-5.91,5.42-10.71,12.11-10.71h10.1s1.47,0,1.47,0c1.19,0,2.25.66,2.64,1.64l12.86,22.9-2.02-22.43c.19-1.21,1.37-2.11,2.77-2.11h11.84l1.41,11.54,7.5-11.54h248.79c5.57,0,10.26,3.32,11.67,7.84.46,1.47-.69,2.96-2.42,3.11l-42.29,3.65,43.07,9.93c1.23.28,2.08,1.25,2.08,2.36v101.64c0,5.91-5.42,10.71-12.11,10.71Z"/><path class="cls-2" d="m66.59,41.56c9.52,0,14.28,1.97,14.28,5.9,0,1.07-.24,1.94-.73,2.61-.49.67-1.42,1.42-2.79,2.24-1.19.73-1.94,1.69-2.27,2.88-.32,1.19-.48,3.6-.48,7.23,0,2.14.4,3.45,1.19,3.94.46.31,1.15.49,2.08.55.93.06,3.12.09,6.57.09,3.14,0,5.1-.17,5.86-.5.76-.33,1.14-1.17,1.14-2.52,0-4.03-.18-6.83-.55-8.42-.37-1.59-1.08-2.67-2.15-3.25-1.34-.76-2.23-1.41-2.65-1.95-.43-.53-.64-1.24-.64-2.13,0-1.25.47-2.39,1.42-3.41.95-1.02,2.18-1.72,3.71-2.08,3.17-.76,7.15-1.14,11.95-1.14,5.61,0,9.76.51,12.43,1.53,2.67,1.02,4,2.62,4,4.78,0,1.83-.95,3.2-2.84,4.12-1.19.55-1.97,1.08-2.33,1.58-.37.5-.66,1.44-.87,2.81-.12.76-.27,4.15-.46,10.16s-.27,10.79-.27,14.33c0,6.19.23,10.13.69,11.81.24.92.52,1.53.82,1.83.3.31,1.27.92,2.88,1.83,1.16.64,1.74,1.62,1.74,2.93,0,2.32-1.38,4-4.14,5.06-2.76,1.05-7.24,1.58-13.43,1.58-5.43,0-9.44-.53-12.04-1.6-2.35-.98-3.52-2.49-3.52-4.53,0-1.74.9-3.1,2.7-4.07.88-.49,1.49-.98,1.81-1.46.32-.49.63-1.39.94-2.7.55-2.56.82-5.71.82-9.43,0-1.92-.28-3.11-.85-3.57-.56-.46-2.04-.69-4.42-.69-5.46,0-8.94.31-10.44.92-.61.25-.99.96-1.14,2.15-.18,1.46-.27,3.27-.27,5.4,0,3.48.49,5.98,1.46,7.51.33.49,1.13,1.11,2.38,1.88,1.28.73,1.92,1.94,1.92,3.62,0,2.14-1.48,3.77-4.44,4.9-2.96,1.13-7.19,1.69-12.68,1.69-5,0-9.09-.52-12.27-1.56-1.37-.46-2.45-1.11-3.23-1.95-.78-.84-1.17-1.76-1.17-2.77s.24-1.79.73-2.33c.49-.55,1.56-1.25,3.2-2.11.85-.43,1.46-.98,1.81-1.65.35-.67.62-1.8.8-3.39.46-3.57.69-8.24.69-14,0-1.07-.02-2.33-.05-3.8-.12-7.32-.18-11.5-.18-12.54.03-2.62-.19-4.35-.66-5.19-.47-.84-1.72-1.76-3.73-2.77-1.34-.64-2.01-1.6-2.01-2.88,0-3.08,2.99-5.22,8.97-6.41,3.48-.7,7.05-1.05,10.71-1.05Z"/><path class="cls-2" d="m148.6,63.39v40.55c0,4.12-.32,7.29-.96,9.52-.64,2.23-1.74,4-3.3,5.31-1.59,1.31-3.65,2.37-6.2,3.18-2.55.81-5.13,1.21-7.76,1.21-2.99,0-5.48-.59-7.48-1.78-2-1.19-3-2.67-3-4.44,0-.79.28-1.48.85-2.06.56-.58,1.24-.87,2.04-.87.37,0,.85.05,1.46.14.61.09.99.14,1.14.14.55,0,1.04-.26,1.49-.78.44-.52.66-1.1.66-1.74,0-.3-.05-.73-.14-1.28-.21-1.13-.32-2.18-.32-3.16v-29.06c0-1.37-.24-2.44-.71-3.2-.47-.76-1.29-1.37-2.45-1.83-1.74-.7-2.61-1.75-2.61-3.16,0-1.62.7-3.01,2.1-4.19,1.4-1.17,3.69-2.27,6.87-3.27,2.26-.7,5-1.36,8.24-1.97,3.23-.61,5.63-.92,7.19-.92,1.07,0,1.81.27,2.24.82.43.55.64,1.5.64,2.84Zm-9.7-20.82c2.65,0,4.76.5,6.32,1.49s2.33,2.33,2.33,4c0,2.35-1.17,4.21-3.52,5.58-3.72,2.17-8.22,3.25-13.5,3.25-2.2,0-3.97-.43-5.31-1.28-1.77-1.13-2.65-2.66-2.65-4.58,0-2.62,1.88-4.68,5.63-6.18,3.81-1.53,7.38-2.29,10.71-2.29Z"/><path class="cls-2" d="m198.86,84.54h-21.51c-.95,0-1.42.41-1.42,1.24,0,1.98,1.08,3.85,3.23,5.61,2.15,1.75,4.46,2.63,6.93,2.63,1.46,0,3.09-.28,4.87-.85,1.79-.56,3.26-1.26,4.42-2.08,1.04-.73,1.86-1.1,2.47-1.1.79,0,1.57.49,2.33,1.46s1.14,1.98,1.14,3.02c0,2.2-1.37,4.32-4.12,6.36-4.85,3.63-10.45,5.45-16.8,5.45s-11.78-1.86-16.11-5.58c-2.11-1.83-3.84-4.04-5.22-6.64-1.8-3.45-2.7-7.08-2.7-10.89,0-5.13,1.56-9.73,4.67-13.82,2.68-3.54,6.1-6.18,10.25-7.92,3.11-1.31,6.48-1.97,10.11-1.97,5.8,0,10.73,1.65,14.78,4.94,2.04,1.65,3.69,3.6,4.94,5.86,1.43,2.56,2.15,5.07,2.15,7.51,0,1.98-.41,3.61-1.24,4.88-.82,1.27-1.89,1.9-3.2,1.9Zm-20.32-8.56h4.62c1.95,0,2.93-.9,2.93-2.7,0-1.65-.47-2.99-1.42-4.03-.95-1.04-2.18-1.56-3.71-1.56-1.71,0-3.05.67-4.03,2.01-.92,1.25-1.37,2.52-1.37,3.8,0,.92.22,1.56.66,1.92.44.37,1.21.55,2.31.55Z"/><path class="cls-2" d="m228.47,59.78c1.74,0,2.61,1.24,2.61,3.71v.78c-.03.49-.05.88-.05,1.19,0,1.65.49,2.47,1.46,2.47.52,0,1.33-.66,2.43-1.97,1.65-1.89,3.72-3.39,6.22-4.51,2.5-1.11,5.06-1.67,7.69-1.67,5.1,0,8.63,1.86,10.62,5.58.76,1.37,1.39,2.06,1.88,2.06.34,0,1.13-.61,2.38-1.83,3.97-3.88,8.47-5.81,13.5-5.81,3.94,0,7.15,1.08,9.66,3.25,2.62,2.26,3.94,5.65,3.94,10.16,0,.98-.03,2.62-.09,4.94-.06.79-.09,3.19-.09,7.19,0,2.56-.02,4.36-.05,5.4-.03.64-.05,1.1-.05,1.37,0,1.95.61,3.66,1.83,5.13.73.88,1.18,1.47,1.35,1.76.17.29.25.68.25,1.17,0,3.91-4.59,5.86-13.78,5.86-4.06,0-7.33-.49-9.82-1.46-2.49-.98-3.73-2.26-3.73-3.84,0-.61.08-1.08.25-1.4.17-.32.75-1.17,1.76-2.54.95-1.25,1.42-5.42,1.42-12.5,0-4.12-.29-6.99-.87-8.6-.67-1.92-2.01-2.88-4.03-2.88-1.01,0-1.9.31-2.68.94-.78.62-1.29,1.41-1.53,2.36-.27,1.1-.43,4.03-.46,8.79.09,5.13.25,8.24.48,9.34.23,1.1,1,2.62,2.31,4.58.3.46.46,1.04.46,1.74,0,3.63-4.75,5.45-14.23,5.45-5.71,0-9.55-.43-11.53-1.28-1.59-.67-2.38-1.86-2.38-3.57,0-.76.1-1.3.3-1.6.2-.3.88-1.01,2.04-2.11.67-.64,1.11-1.24,1.3-1.81.2-.56.34-1.59.44-3.09.21-3.36.32-6.74.32-10.16,0-5.98-1.53-8.97-4.58-8.97-2.29,0-3.65,1.28-4.07,3.84-.37,2.41-.55,5.86-.55,10.34,0,3.36.07,5.55.21,6.59s.51,2.12,1.12,3.25c.73,1.31,1.1,2.38,1.1,3.2,0,1.98-1.39,3.36-4.17,4.12-3.02.82-6.35,1.24-9.98,1.24-4.7,0-8.15-.37-10.34-1.12-2.2-.75-3.3-1.93-3.3-3.55,0-.61.14-1.13.43-1.56.29-.43.95-1.1,1.99-2.01,1.37-1.25,2.17-2.97,2.38-5.17.34-3.78.5-7.7.5-11.76,0-2.9-.15-4.92-.44-6.06-.29-1.14-.91-2.07-1.85-2.77-.92-.7-1.5-1.24-1.76-1.6s-.39-.87-.39-1.51c0-2.04,1.6-3.66,4.81-4.85,7.72-2.78,13.5-4.18,17.35-4.21Z"/><path class="cls-3" d="m248.49,15.83c-26.44-4.34-57.93,7.59-57.45,8.86.38.99,17.08-2.61,42.01,3.43,21.7,5.25,48.05,24.62,53.65,12.07,5.23-11.72-11.76-20.01-38.2-24.36Z"/></svg>