<?xml version="1.0" encoding="UTF-8"?><svg id="Layer_1" xmlns="http://www.w3.org/2000/svg" viewBox="0 0 653 500"><defs><style>.cls-1{fill:#e9af4a;}.cls-1,.cls-2{stroke-width:0px;}.cls-2{fill:#d38431;}</style></defs><polygon class="cls-1" points="489.25 199.38 496.57 203.46 496.57 210.04 552.54 210.04 552.54 198.56 496.19 198.56 488.99 191.92 489.93 197.52 489.25 199.38"/><path class="cls-1" d="m647.5,307.09v-169.05l-16.7,6.68h0s16.7-6.68,16.7-6.68l-31.31-31.31-43.65-43.65-16.3,27.52h0s14.61,14.61,14.61,14.61v6.73l-25.62-17.55-14.61,16.5,14.61,55.31-15.05-26.09-14.17,16.7,7.3,28.18,42.78-3.13-5.22,102.26-82.44-12.52v-61.57h13.66l-.09-6.26-6.26-4.17,1.04-3.13-1.28-7.76.5.46-3.39-3.13-14.61,16.7,14.61,134.61-23.44-109.57-16.22,18.78-14.61,22.96-15.65-19.83-14.61,16.7,10.08,45.51-16.34-39.25-74.09,85.75v119.82h298.45v16.7l31.31-15.03v-172.81s-16.7,0-16.7,0h0s16.7,0,16.7,0Zm-52.21,67.75l-17.71,102.34h-258.79l12.52-130.44,136.7,7.3,127.86-22.87-.58,43.66Z"/><polygon class="cls-1" points="510.33 262.15 512.22 258.36 510.55 256.27 505.35 254.89 504.64 260.26 501.8 261.21 500.85 265 488.74 271.63 519.8 271.63 517.91 265 510.33 262.15"/><polygon class="cls-1" points="498.01 260.26 500.85 258.36 503.7 251.73 511.16 250.9 515.07 246.99 510.33 246.99 507.49 243.2 500.09 251.03 490.43 253.63 478.45 250.74 478.45 271.61 487.34 271.63 498.01 264.05 498.01 260.26"/><polygon class="cls-1" points="496.57 210.04 499.43 212.3 503.7 220.46 514.12 220.46 519.8 230.89 519.8 235.62 521.7 237.52 524.54 237.52 528.33 237.52 530.23 232.78 534.02 232.78 537.81 228.99 537.95 226.15 538.75 223.31 540.61 221.41 544.44 221.41 539.7 223.57 539.7 227.95 536.86 234.68 532.48 234.68 530.05 239.41 526.45 240.83 524.26 242.15 525.83 242.15 530.23 244.15 533.07 246.05 533.07 251.73 534.96 252.68 544.44 248.89 547.97 251.73 551.33 253.63 547.11 253.63 544.44 250.78 534.02 257.42 529.9 254.1 529.28 247.94 526.44 246.99 522.41 248.14 515.41 254.23 516.44 258.36 515.07 260.26 519.8 263.1 521.45 271.63 551.45 271.63 551.45 210.04 496.57 210.04"/><polygon class="cls-1" points="503.2 244.07 499.43 243.44 498.96 235.62 495.17 235.62 494.22 232.78 490.43 227.1 495.17 230.89 496.12 232.78 499.91 231.78 501.8 234.68 501.05 239.41 508.43 239.41 512.22 243.2 516.53 241.05 514.12 235.62 516.3 230.53 513.17 223.31 501.8 225.2 497.06 212.88 492.11 210.04 478.45 210.04 478.45 249.7 490.43 250.78 499.43 247.43 503.2 244.07"/><polygon class="cls-1" points="394.97 361.35 393.4 363.47 400.19 370.74 401.23 366.57 400.19 361.35 404.36 359.27 406.45 354.05 391.84 354.05 393.92 358.22 394.97 361.35"/><polygon class="cls-1" points="403.32 362.52 404.36 367.61 404.36 372.83 420.01 369.7 422.1 360.31 430.45 359.27 438.8 363.39 438.8 354.05 406.45 354.05 406.45 360.8 403.32 362.52"/><polygon class="cls-1" points="430.45 361.35 424.76 363.44 424.24 372.83 403.32 378.05 403.32 386.4 399.14 393.7 404.36 406.22 397.05 393.7 399.14 386.4 394.97 385.35 390.79 381.18 395.28 375.95 393.92 375.36 386.62 372.83 378.27 367.61 376.18 361.35 369.92 359.27 365.75 360.37 365.75 427.09 438.8 427.09 438.8 363.42 430.45 361.35"/><polygon class="cls-1" points="378.27 360.31 380.36 366.57 387.66 370.74 393.92 369.7 394.69 369.42 389.75 364.48 391.84 360.31 391.84 354.05 385.72 354.05 365.75 354.05 365.75 360.37 369.92 358.22 378.27 360.31"/><polygon class="cls-1" points="392.88 381.18 394.97 384.31 399.14 386.4 398.1 375.96 392.88 381.18"/><polygon class="cls-1" points="25.59 482.2 45.9 495 248.66 431.57 311.83 366.53 300.39 349.46 219.55 358.43 210.43 373.07 197.17 354.73 181.9 337.26 149.74 386.4 179.67 360.97 163.82 343.71 134.82 367.49 128.98 337.67 111.44 319.63 84 387.44 81.84 373.34 62.73 356.49 51.65 371.79 50.61 352.43 30.46 334.89 3.65 385.54 25.59 482.2"/><polygon class="cls-2" points="45.9 495 261.77 445.99 311.83 366.53 233.6 375.21 224.77 389.38 197.17 354.73 147.8 427.22 179.67 360.97 151.6 383.99 128.98 337.67 96.52 411.44 81.84 373.34 61.17 402.25 50.61 352.43 24.67 401.45 45.9 495"/><polygon class="cls-1" points="70.31 410.5 82.2 412.03 83.41 406.38 90.56 399.56 78.68 394.17 79.29 387.5 59.89 416.42 66.35 420.75 67.02 417.33 71.48 416.45 70.31 410.5"/><polygon class="cls-1" points="126.67 424.67 124.7 420.65 126.81 417.51 123.62 410.8 120.49 408.69 116.99 418.67 115.53 422.85 111.56 420.19 104.48 425.77 101.5 430.22 103.57 432.9 95.95 431.3 104.73 447.88 111.24 452.25 124.32 432.76 128.06 425.61 126.67 424.67"/><polygon class="cls-1" points="112.17 417.7 111.13 412.48 111.13 409.35 106.96 412.48 108 409.35 106.9 407.12 101.3 405.94 100.86 398.55 99.2 401.95 92.04 408.77 90.84 414.42 106.28 422.19 112.17 417.7"/><polygon class="cls-1" points="99.7 429.62 97.63 426.94 100.62 422.49 85.18 414.71 73.29 413.19 74.46 419.14 70 420.02 69.32 423.44 100.86 444.6 92.08 428.02 99.7 429.62"/><polygon class="cls-1" points="135.34 406.23 128.18 405.31 126.15 408.42 129.34 415.13 127.23 418.27 129.2 422.29 130.6 423.23 126.85 430.38 143.64 405.36 142.41 404.53 135.34 406.23"/><polygon class="cls-1" points="242.84 397.84 241.92 390.69 236.4 389.91 234.75 386.56 235.09 384.35 231.56 387.13 231.7 384.8 229.49 381.12 225.46 378.8 224.32 382.96 221.6 392.88 218.41 391.05 216.65 394.2 207.33 393.65 202.89 395.91 246.85 421.22 255.97 405.38 256.11 398.86 244.22 394.42 242.84 397.84"/><polygon class="cls-1" points="277.96 370.82 271.4 367.04 270.97 370.41 266.7 371.56 268.23 377.26 256.58 376.58 255.79 382.14 249.29 389.24 261.19 393.68 261.04 400.2 277.96 370.82"/><polygon class="cls-1" points="233.26 381.81 236.8 379.03 236.45 381.24 238.1 384.59 243.62 385.37 244.54 392.52 245.92 389.1 252.42 382 253.21 376.44 237.7 369.92 231.19 375.8 233.4 379.48 233.26 381.81"/><polygon class="cls-1" points="109.34 390.27 106.75 392.32 108.8 394.9 106.97 395.58 108.22 402.08 110.33 405.89 113.22 406.22 112.17 408.31 114.26 415.62 115.67 416.87 117.04 412.79 120.34 403.04 123.41 405.06 125.05 402.48 125.05 402.48 125.35 402.01 134.62 403.1 139.19 401.1 107.2 380.14 113.07 386.48 110.18 387.08 109.34 390.27"/><rect class="cls-1" x="484.71" y="390.57" width="59.48" height="104.35"/><path class="cls-2" d="m556.24,90.61v38.04l-25.62-17.55v71.81l-14.61-26.09-8.35,41.74h43.83v73.05h-73.05v-60.25l-10.44-8.62v151.31l-23.44-109.57-30.83,41.74-15.65-19.83-4.53,62.21-15.3-40.3-75.13,86.79v119.82h313.06v-187.83s0-156.53,0-156.53l-59.95-59.95Zm22.35,300.92l-21.1-3.28-6.89,38.9-2.28-39.3-32.02-2.94,26.31-6.5-37.81-19.96,45.78,12.66,28.58-23.24-19.68,29.75,19.1,13.9Zm-212.85,28.25v-65.74h73.05v65.74h-73.05Z"/><rect class="cls-1" x="485.75" y="390.57" width="59.48" height="104.35"/></svg>