<?xml version="1.0" encoding="UTF-8"?><svg id="Layer_1" xmlns="http://www.w3.org/2000/svg" viewBox="0 0 1847 1053"><defs><style>.cls-1{fill:#e6e6e6;}.cls-1,.cls-2,.cls-3,.cls-4,.cls-5{stroke-width:0px;}.cls-2{fill:#ccc;}.cls-3{fill:#fff;}.cls-6{opacity:.75;}.cls-4{fill:#e9af4a;}.cls-5{fill:#d38431;}</style></defs><rect class="cls-2" x="0" y="1019.53" width="318.18" height="31.82"/><rect class="cls-2" x="-63.64" y="924.08" width="159.09" height="31.82" transform="translate(955.89 924.08) rotate(90)"/><polygon class="cls-2" points="0 860.44 0 701.35 31.82 714.08 31.82 860.44 0 860.44"/><polygon class="cls-2" points="159.09 542.26 318.18 701.35 286.36 714.08 159.09 586.8 159.09 542.26"/><polygon class="cls-2" points="159.09 586.8 31.82 714.08 0 701.35 159.09 542.26 159.09 586.8"/><polygon class="cls-2" points="286.36 860.44 286.36 714.08 318.18 701.35 318.18 860.44 286.36 860.44"/><polygon class="cls-1" points="318.18 860.44 318.18 701.35 350 688.62 350 860.44 318.18 860.44"/><polygon class="cls-1" points="350 860.44 350 1036.08 318.18 1051.35 318.18 860.44 350 860.44"/><rect class="cls-2" x="222.73" y="924.08" width="159.09" height="31.82" transform="translate(1242.26 637.71) rotate(90)"/><rect class="cls-3" x="31.82" y="1028.01" width="111.36" height="15.91"/><rect class="cls-3" x="175" y="1028.01" width="111.36" height="15.91"/><polygon class="cls-1" points="350 688.62 318.18 656.8 318.18 701.35 350 688.62"/><polygon class="cls-1" points="193.03 531.65 159.09 542.26 190.91 574.08 193.03 531.65"/><polygon class="cls-1" points="318.18 701.35 318.18 656.8 193.03 531.65 190.91 574.08 318.18 701.35"/><polygon class="cls-4" points="318.18 656.8 318.18 656.8 193.03 531.65 159.09 542.26 190.91 574.08 190.91 574.08 318.18 701.35 350 688.62 318.18 656.8"/><polygon class="cls-4" points="318.18 701.35 318.18 860.44 350 860.44 350 688.62 318.18 701.35"/><polygon class="cls-4" points="318.18 1051.35 350 1036.08 350 860.44 318.18 860.44 318.18 1051.35"/><path class="cls-5" d="m159.09,542.26L0,701.35v350h318.18v-350l-159.09-159.09Zm127.27,477.27H31.82v-305.45l127.27-127.27,127.27,127.27v305.45Z"/><rect class="cls-2" x="400" y="1019.53" width="318.18" height="31.82"/><rect class="cls-2" x="336.36" y="924.08" width="159.09" height="31.82" transform="translate(1355.89 524.08) rotate(90)"/><polygon class="cls-2" points="400 860.44 400 701.35 431.82 714.08 431.82 860.44 400 860.44"/><polygon class="cls-2" points="559.09 542.26 718.18 701.35 686.36 714.08 559.09 586.8 559.09 542.26"/><polygon class="cls-2" points="559.09 586.8 431.82 714.08 400 701.35 559.09 542.26 559.09 586.8"/><polygon class="cls-2" points="686.36 860.44 686.36 714.08 718.18 701.35 718.18 860.44 686.36 860.44"/><polygon class="cls-1" points="718.18 860.44 718.18 701.35 750 688.62 750 860.44 718.18 860.44"/><polygon class="cls-1" points="750 860.44 750 1036.08 718.18 1051.35 718.18 860.44 750 860.44"/><rect class="cls-2" x="622.73" y="924.08" width="159.09" height="31.82" transform="translate(1642.26 237.71) rotate(90)"/><rect class="cls-3" x="431.82" y="1028.01" width="111.36" height="15.91"/><rect class="cls-3" x="575" y="1028.01" width="111.36" height="15.91"/><polygon class="cls-1" points="750 688.62 718.18 656.8 718.18 701.35 750 688.62"/><polygon class="cls-1" points="593.03 531.65 559.09 542.26 590.91 574.08 593.03 531.65"/><polygon class="cls-1" points="718.18 701.35 718.18 656.8 593.03 531.65 590.91 574.08 718.18 701.35"/><polygon class="cls-4" points="718.18 656.8 718.18 656.8 593.03 531.65 559.09 542.26 590.91 574.08 590.91 574.08 718.18 701.35 750 688.62 718.18 656.8"/><polygon class="cls-4" points="718.18 701.35 718.18 860.44 750 860.44 750 688.62 718.18 701.35"/><polygon class="cls-4" points="718.18 1051.35 750 1036.08 750 860.44 718.18 860.44 718.18 1051.35"/><polygon class="cls-5" points="559.09 542.26 400 701.35 400 860.44 400 1019.53 400 1051.35 718.18 1051.35 718.18 1019.53 718.18 860.44 718.18 701.35 559.09 542.26"/><rect class="cls-2" x="800" y="1019.53" width="318.18" height="31.82"/><rect class="cls-2" x="736.36" y="924.08" width="159.09" height="31.82" transform="translate(1755.89 124.08) rotate(90)"/><polygon class="cls-2" points="800 860.44 800 701.35 831.82 714.08 831.82 860.44 800 860.44"/><polygon class="cls-2" points="959.09 542.26 1118.18 701.35 1086.36 714.08 959.09 586.8 959.09 542.26"/><polygon class="cls-2" points="959.09 586.8 831.82 714.08 800 701.35 959.09 542.26 959.09 586.8"/><polygon class="cls-2" points="1086.36 860.44 1086.36 714.08 1118.18 701.35 1118.18 860.44 1086.36 860.44"/><polygon class="cls-1" points="1118.18 860.44 1118.18 701.35 1150 688.62 1150 860.44 1118.18 860.44"/><polygon class="cls-1" points="1150 860.44 1150 1036.08 1118.18 1051.35 1118.18 860.44 1150 860.44"/><rect class="cls-2" x="1022.73" y="924.08" width="159.09" height="31.82" transform="translate(2042.26 -162.29) rotate(90)"/><rect class="cls-3" x="831.82" y="1028.01" width="111.36" height="15.91"/><rect class="cls-3" x="975" y="1028.01" width="111.36" height="15.91"/><polygon class="cls-1" points="1150 688.62 1118.18 656.8 1118.18 701.35 1150 688.62"/><polygon class="cls-1" points="993.03 531.65 959.09 542.26 990.91 574.08 993.03 531.65"/><polygon class="cls-1" points="1118.18 701.35 1118.18 656.8 993.03 531.65 990.91 574.08 1118.18 701.35"/><polygon class="cls-4" points="1118.18 656.8 993.03 531.65 959.09 542.26 990.91 574.08 1118.18 701.35 1150 688.62 1118.18 656.8"/><polygon class="cls-4" points="1118.18 701.35 1118.18 860.44 1150 860.44 1150 688.62 1118.18 701.35"/><polygon class="cls-4" points="1118.18 1019.53 1118.18 1051.35 1150 1036.08 1150 860.44 1118.18 860.44 1118.18 1019.53"/><rect class="cls-4" x="1118.18" y="1019.53" width="0" height="31.82"/><path class="cls-5" d="m990.91,574.08l-31.82-31.82-159.09,159.09v350h318.18v-350l-127.27-127.27Zm-51.97,176.06v74.24h-74.24v-74.24h74.24Zm-6.36-66.82v-53.03h53.03v53.03h-53.03Zm-2.12,224.85h9.55l-1.06,59.39v14.85h-74.24v-74.24h65.76Zm106.06,111.36h-42.42v-74.24h42.42v74.24Zm15.91-195.15h-74.24v-74.24h74.24v74.24Z"/><polygon class="cls-5" points="1118.18 1019.53 1118.18 860.44 1118.18 1019.53 1118.18 1019.53"/><g class="cls-6"><polygon class="cls-4" points="1006.82 824.38 1041.82 750.14 1041.46 750.14 1006.11 824.38 1006.82 824.38"/><polygon class="cls-4" points="985.4 824.38 1033.51 750.14 1033.33 750.14 984.55 824.38 985.4 824.38"/><polygon class="cls-4" points="1006.11 824.38 1041.46 750.14 1033.51 750.14 985.4 824.38 1006.11 824.38"/><polygon class="cls-4" points="930.86 982.41 938.94 965.44 938.94 967.56 940 908.17 931.1 908.17 882.98 982.41 930.86 982.41"/><polygon class="cls-4" points="882.98 982.41 931.1 908.17 930.45 908.17 882.73 982.41 882.98 982.41"/></g><polygon class="cls-4" points="938.94 982.41 938.94 967.56 931.52 982.41 938.94 982.41"/><rect class="cls-4" x="985.61" y="945.29" width="60.45" height="106.06"/><rect class="cls-4" x="864.7" y="750.14" width="74.24" height="74.24"/><rect class="cls-4" x="932.58" y="630.29" width="53.03" height="53.03"/><polygon class="cls-4" points="1052.42 824.38 1052.42 750.14 1041.82 750.14 1006.82 824.38 1052.42 824.38"/><polygon class="cls-4" points="978.18 824.38 984.55 824.38 1033.33 750.14 978.18 750.14 978.18 824.38"/><polygon class="cls-4" points="930.45 908.17 864.7 908.17 864.7 982.41 882.73 982.41 930.45 908.17"/><polygon class="cls-4" points="930.86 982.41 931.52 982.41 938.94 967.56 938.94 965.44 930.86 982.41"/><rect class="cls-2" x="1416" y="490.53" width="318.18" height="31.82"/><rect class="cls-2" x="1352.36" y="395.08" width="159.09" height="31.82" transform="translate(1842.89 -1020.92) rotate(90)"/><polygon class="cls-2" points="1416 331.44 1416 172.35 1447.82 185.08 1447.82 331.44 1416 331.44"/><polygon class="cls-2" points="1575.09 13.26 1416 172.35 1447.82 185.08 1575.09 57.8 1702.36 185.08 1734.18 172.35 1575.09 13.26"/><polygon class="cls-2" points="1702.36 331.44 1702.36 185.08 1734.18 172.35 1734.18 331.44 1702.36 331.44"/><polygon class="cls-1" points="1734.18 331.44 1734.18 172.35 1766 159.62 1766 331.44 1734.18 331.44"/><polygon class="cls-1" points="1766 331.44 1766 507.08 1734.18 522.35 1734.18 331.44 1766 331.44"/><rect class="cls-2" x="1638.73" y="395.08" width="159.09" height="31.82" transform="translate(2129.26 -1307.29) rotate(90)"/><rect class="cls-3" x="1447.82" y="499.01" width="111.36" height="15.91"/><rect class="cls-3" x="1591" y="499.01" width="111.36" height="15.91"/><polygon class="cls-1" points="1734.18 127.8 1609.03 2.65 1575.09 13.26 1606.91 45.08 1734.18 172.35 1766 159.62 1734.18 127.8"/><polygon class="cls-4" points="1734.18 172.35 1734.18 331.44 1766 331.44 1766 159.62 1734.18 172.35"/><polygon class="cls-4" points="1734.18 522.35 1766 507.08 1766 331.44 1734.18 331.44 1734.18 522.35"/><path class="cls-5" d="m1702.36,185.08v305.45h-254.55V185.08l-31.82-12.73v350h318.18V172.35l-31.82,12.73Zm-143.18,329.85h-111.36v-15.91h111.36v15.91Zm143.18,0h-111.36v-15.91h111.36v15.91Z"/><rect class="cls-2" x="1016" y="490.53" width="318.18" height="31.82"/><rect class="cls-2" x="952.36" y="395.08" width="159.09" height="31.82" transform="translate(1442.89 -620.92) rotate(90)"/><polygon class="cls-2" points="1175.09 13.26 1016 172.35 1016 331.44 1047.82 331.44 1047.82 185.08 1175.09 57.8 1302.36 185.08 1302.36 331.44 1334.18 331.44 1334.18 172.35 1175.09 13.26"/><polygon class="cls-1" points="1366 331.44 1366 507.08 1334.18 522.35 1334.18 331.44 1366 331.44"/><rect class="cls-2" x="1238.73" y="395.08" width="159.09" height="31.82" transform="translate(1729.26 -907.29) rotate(90)"/><rect class="cls-3" x="1047.82" y="499.01" width="111.36" height="15.91"/><rect class="cls-3" x="1191" y="499.01" width="111.36" height="15.91"/><polygon class="cls-1" points="1334.18 172.35 1334.18 331.44 1366 331.44 1366 159.62 1334.18 172.35"/><polygon class="cls-1" points="1334.18 127.8 1209.03 2.65 1175.09 13.26 1206.91 45.08 1334.18 172.35 1366 159.62 1334.18 127.8"/><polygon class="cls-4" points="1366 331.44 1366 507.08 1334.18 522.35 1334.18 331.44 1366 331.44"/><path class="cls-5" d="m1302.36,331.44v159.09h-254.55v-159.09h-31.82v190.91h318.18v-190.91h-31.82Zm-143.18,183.48h-111.36v-15.91h111.36v15.91Zm143.18,0h-111.36v-15.91h111.36v15.91Z"/><rect class="cls-2" x="216" y="490.53" width="318.18" height="31.82"/><rect class="cls-2" x="152.36" y="395.08" width="159.09" height="31.82" transform="translate(642.89 179.08) rotate(90)"/><polygon class="cls-2" points="216 331.44 216 172.35 247.82 185.08 247.82 331.44 216 331.44"/><polygon class="cls-2" points="375.09 13.26 534.18 172.35 502.36 185.08 375.09 57.8 375.09 13.26"/><polygon class="cls-2" points="375.09 57.8 247.82 185.08 216 172.35 375.09 13.26 375.09 57.8"/><polygon class="cls-2" points="502.36 331.44 502.36 185.08 534.18 172.35 534.18 331.44 502.36 331.44"/><polygon class="cls-1" points="534.18 331.44 534.18 172.35 566 159.62 566 331.44 534.18 331.44"/><polygon class="cls-1" points="566 331.44 566 507.08 534.18 522.35 534.18 331.44 566 331.44"/><rect class="cls-2" x="438.73" y="395.08" width="159.09" height="31.82" transform="translate(929.26 -107.29) rotate(90)"/><rect class="cls-3" x="247.82" y="499.02" width="111.36" height="15.91"/><rect class="cls-3" x="391" y="499.02" width="111.36" height="15.91"/><polygon class="cls-1" points="566 159.62 534.18 127.8 534.18 172.35 566 159.62"/><polygon class="cls-1" points="409.03 2.65 375.09 13.26 406.91 45.08 409.03 2.65"/><polygon class="cls-1" points="534.18 172.35 534.18 127.8 409.03 2.65 406.91 45.08 534.18 172.35"/><rect class="cls-2" x="616" y="490.53" width="318.18" height="31.82"/><polygon class="cls-2" points="775.09 13.26 616 172.35 616 331.44 616 490.53 647.82 490.53 647.82 331.44 647.82 185.08 775.09 57.8 902.36 185.08 902.36 331.44 902.36 490.53 934.18 490.53 934.18 331.44 934.18 172.35 775.09 13.26"/><rect class="cls-3" x="647.82" y="499.01" width="111.36" height="15.91"/><rect class="cls-3" x="791" y="499.01" width="111.36" height="15.91"/><polygon class="cls-1" points="934.18 172.35 934.18 331.44 966 331.44 966 159.62 934.18 172.35"/><polygon class="cls-1" points="934.18 522.35 966 507.08 966 331.44 934.18 331.44 934.18 522.35"/><polygon class="cls-1" points="934.18 127.8 809.03 2.65 775.09 13.26 806.91 45.08 934.18 172.35 966 159.62 934.18 127.8"/><rect class="cls-5" x="616" y="490.53" width="318.18" height="31.82"/><rect class="cls-3" x="647.82" y="499.01" width="111.36" height="15.91"/><rect class="cls-3" x="791" y="499.01" width="111.36" height="15.91"/><polygon class="cls-4" points="934.18 490.53 934.18 509.62 934.18 509.62 934.18 522.35 966 507.08 966 506.44 966 505.38 966 477.8 934.18 490.53"/><polygon class="cls-4" points="1685.75 755.88 1693.07 759.96 1693.07 766.54 1749.04 766.54 1749.04 755.06 1692.69 755.06 1685.49 748.42 1686.43 754.02 1685.75 755.88"/><path class="cls-4" d="m1844,863.59v-169.05l-16.7,6.68h0s16.7-6.68,16.7-6.68l-31.31-31.31-43.65-43.65-16.3,27.52h0s14.61,14.61,14.61,14.61v6.73l-25.62-17.55-14.61,16.5,14.61,55.31-15.05-26.09-14.17,16.7,7.3,28.18,42.78-3.13-5.22,102.26-82.44-12.52v-61.57h13.66l-.09-6.26-6.26-4.17,1.04-3.13-1.28-7.76.5.46-3.39-3.13-14.61,16.7,14.61,134.61-23.44-109.57-16.22,18.78-14.61,22.96-15.65-19.83-14.61,16.7,10.08,45.51-16.34-39.25-74.09,85.75v119.82h298.45v16.7l31.31-15.03v-172.81s-16.7,0-16.7,0h0s16.7,0,16.7,0Zm-52.21,67.75l-17.71,102.34h-258.79l12.52-130.44,136.7,7.3,127.86-22.87-.58,43.66Z"/><polygon class="cls-4" points="1706.83 818.65 1708.72 814.86 1707.05 812.77 1701.85 811.39 1701.14 816.76 1698.3 817.71 1697.35 821.5 1685.24 828.13 1716.3 828.13 1714.41 821.5 1706.83 818.65"/><polygon class="cls-4" points="1694.51 816.76 1697.35 814.86 1700.2 808.23 1707.66 807.4 1711.57 803.49 1706.83 803.49 1703.99 799.7 1696.59 807.53 1686.93 810.13 1674.95 807.24 1674.95 828.11 1683.84 828.13 1694.51 820.55 1694.51 816.76"/><polygon class="cls-4" points="1693.07 766.54 1695.93 768.8 1700.2 776.96 1710.62 776.96 1716.3 787.39 1716.3 792.12 1718.2 794.02 1721.04 794.02 1724.83 794.02 1726.73 789.28 1730.52 789.28 1734.31 785.49 1734.45 782.65 1735.25 779.81 1737.11 777.91 1740.94 777.91 1736.2 780.07 1736.2 784.45 1733.36 791.18 1728.98 791.18 1726.55 795.91 1722.95 797.33 1720.76 798.65 1722.33 798.65 1726.73 800.65 1729.57 802.55 1729.57 808.23 1731.46 809.18 1740.94 805.39 1744.47 808.23 1747.83 810.13 1743.61 810.13 1740.94 807.28 1730.52 813.92 1726.4 810.6 1725.78 804.44 1722.94 803.49 1718.91 804.64 1711.91 810.73 1712.94 814.86 1711.57 816.76 1716.3 819.6 1717.95 828.13 1747.95 828.13 1747.95 766.54 1693.07 766.54"/><polygon class="cls-4" points="1699.7 800.57 1695.93 799.94 1695.46 792.12 1691.67 792.12 1690.72 789.28 1686.93 783.6 1691.67 787.39 1692.62 789.28 1696.41 788.28 1698.3 791.18 1697.55 795.91 1704.93 795.91 1708.72 799.7 1713.03 797.55 1710.62 792.12 1712.8 787.03 1709.67 779.81 1698.3 781.7 1693.56 769.38 1688.61 766.54 1674.95 766.54 1674.95 806.2 1686.93 807.28 1695.93 803.93 1699.7 800.57"/><polygon class="cls-4" points="1591.47 917.85 1589.9 919.97 1596.69 927.24 1597.73 923.07 1596.69 917.85 1600.86 915.77 1602.95 910.55 1588.34 910.55 1590.42 914.72 1591.47 917.85"/><polygon class="cls-4" points="1599.82 919.02 1600.86 924.11 1600.86 929.33 1616.51 926.2 1618.6 916.81 1626.95 915.77 1635.3 919.89 1635.3 910.55 1602.95 910.55 1602.95 917.3 1599.82 919.02"/><polygon class="cls-4" points="1626.95 917.85 1621.26 919.94 1620.74 929.33 1599.82 934.55 1599.82 942.9 1595.64 950.2 1600.86 962.72 1593.55 950.2 1595.64 942.9 1591.47 941.85 1587.29 937.68 1591.78 932.45 1590.42 931.86 1583.12 929.33 1574.77 924.11 1572.68 917.85 1566.42 915.77 1562.25 916.87 1562.25 983.59 1635.3 983.59 1635.3 919.92 1626.95 917.85"/><polygon class="cls-4" points="1574.77 916.81 1576.86 923.07 1584.16 927.24 1590.42 926.2 1591.19 925.92 1586.25 920.98 1588.34 916.81 1588.34 910.55 1582.22 910.55 1562.25 910.55 1562.25 916.87 1566.42 914.72 1574.77 916.81"/><polygon class="cls-4" points="1589.38 937.68 1591.47 940.81 1595.64 942.9 1594.6 932.46 1589.38 937.68"/><polygon class="cls-4" points="1222.09 1038.7 1242.4 1051.5 1445.16 988.07 1508.33 923.03 1496.89 905.96 1416.05 914.93 1406.93 929.57 1393.67 911.23 1378.4 893.76 1346.24 942.9 1376.17 917.47 1360.32 900.21 1331.32 923.99 1325.48 894.17 1307.94 876.13 1280.5 943.94 1278.34 929.84 1259.23 912.99 1248.15 928.29 1247.11 908.93 1226.96 891.39 1200.15 942.04 1222.09 1038.7"/><polygon class="cls-5" points="1242.4 1051.5 1458.27 1002.49 1508.33 923.03 1430.1 931.71 1421.27 945.88 1393.67 911.23 1344.3 983.72 1376.17 917.47 1348.1 940.49 1325.48 894.17 1293.02 967.94 1278.34 929.84 1257.67 958.75 1247.11 908.93 1221.17 957.95 1242.4 1051.5"/><polygon class="cls-4" points="1266.81 967 1278.7 968.53 1279.91 962.88 1287.06 956.06 1275.18 950.67 1275.79 944 1256.39 972.92 1262.85 977.25 1263.52 973.83 1267.98 972.95 1266.81 967"/><polygon class="cls-4" points="1323.17 981.17 1321.2 977.15 1323.31 974.01 1320.12 967.3 1316.99 965.19 1313.49 975.17 1312.03 979.35 1308.06 976.69 1300.98 982.27 1298 986.72 1300.07 989.4 1292.45 987.8 1301.23 1004.38 1307.74 1008.75 1320.82 989.26 1324.56 982.11 1323.17 981.17"/><polygon class="cls-4" points="1308.67 974.2 1307.63 968.98 1307.63 965.85 1303.46 968.98 1304.5 965.85 1303.4 963.62 1297.8 962.44 1297.36 955.05 1295.7 958.45 1288.54 965.27 1287.34 970.92 1302.78 978.69 1308.67 974.2"/><polygon class="cls-4" points="1296.2 986.12 1294.13 983.44 1297.12 978.99 1281.68 971.21 1269.79 969.69 1270.96 975.64 1266.5 976.52 1265.82 979.94 1297.36 1001.1 1288.58 984.52 1296.2 986.12"/><polygon class="cls-4" points="1331.84 962.73 1324.68 961.81 1322.65 964.92 1325.84 971.63 1323.73 974.77 1325.7 978.79 1327.1 979.73 1323.35 986.88 1340.14 961.86 1338.91 961.03 1331.84 962.73"/><polygon class="cls-4" points="1439.34 954.34 1438.42 947.19 1432.9 946.41 1431.25 943.06 1431.59 940.85 1428.06 943.63 1428.2 941.3 1425.99 937.62 1421.96 935.3 1420.82 939.46 1418.1 949.38 1414.91 947.55 1413.15 950.7 1403.83 950.15 1399.39 952.41 1443.35 977.72 1452.47 961.88 1452.61 955.36 1440.72 950.92 1439.34 954.34"/><polygon class="cls-4" points="1474.46 927.32 1467.9 923.54 1467.47 926.91 1463.2 928.06 1464.73 933.76 1453.08 933.08 1452.29 938.64 1445.79 945.74 1457.69 950.18 1457.54 956.7 1474.46 927.32"/><polygon class="cls-4" points="1429.76 938.31 1433.3 935.53 1432.95 937.74 1434.6 941.09 1440.12 941.87 1441.04 949.02 1442.42 945.6 1448.92 938.5 1449.71 932.94 1434.2 926.42 1427.69 932.3 1429.9 935.98 1429.76 938.31"/><polygon class="cls-4" points="1305.84 946.77 1303.25 948.82 1305.3 951.4 1303.47 952.08 1304.72 958.58 1306.83 962.39 1309.72 962.72 1308.67 964.81 1310.76 972.12 1312.17 973.37 1313.54 969.29 1316.84 959.54 1319.91 961.56 1321.55 958.98 1321.55 958.98 1321.85 958.51 1331.12 959.6 1335.69 957.6 1303.7 936.64 1309.57 942.98 1306.68 943.58 1305.84 946.77"/><rect class="cls-4" x="1681.21" y="947.07" width="59.48" height="104.35"/><path class="cls-5" d="m1752.74,647.11v38.04l-25.62-17.55v71.81l-14.61-26.09-8.35,41.74h43.83v73.05h-73.05v-60.25l-10.44-8.62v151.31l-23.44-109.57-30.83,41.74-15.65-19.83-4.53,62.21-15.3-40.3-75.13,86.79v119.82h313.06v-187.83s0-156.53,0-156.53l-59.95-59.95Zm22.35,300.92l-21.1-3.28-6.89,38.9-2.28-39.3-32.02-2.94,26.31-6.5-37.81-19.96,45.78,12.66,28.58-23.24-19.68,29.75,19.1,13.9Zm-212.85,28.25v-65.74h73.05v65.74h-73.05Z"/><rect class="cls-4" x="1682.25" y="947.07" width="59.48" height="104.35"/></svg>