<?xml version="1.0" encoding="UTF-8"?><svg id="Layer_1" xmlns="http://www.w3.org/2000/svg" viewBox="0 0 340 500"><defs><style>.cls-1{fill:#e6e6e6;}.cls-1,.cls-2,.cls-3,.cls-4,.cls-5{stroke-width:0px;}.cls-2{fill:#ccc;}.cls-3{fill:#fff;}.cls-4{fill:#e9af4a;}.cls-5{fill:#d38431;}</style></defs><rect class="cls-2" x="5" y="465" width="300" height="30"/><polygon class="cls-2" points="155 15 5 165 5 315 5 465 35 465 35 315 35 177 155 57 275 177 275 315 275 465 305 465 305 315 305 165 155 15"/><rect class="cls-3" x="35" y="473" width="105" height="15"/><rect class="cls-3" x="170" y="473" width="105" height="15"/><polygon class="cls-1" points="305 165 305 315 335 315 335 153 305 165"/><polygon class="cls-1" points="305 495 335 480.6 335 315 305 315 305 495"/><polygon class="cls-1" points="305 123 187 5 155 15 185 45 305 165 335 153 305 123"/><path class="cls-5" d="m5,465v30h300v-30H5Zm135,23H35v-15h105v15Zm135,0h-105v-15h105v15Z"/><polygon class="cls-4" points="305 465 305 483 305 483 305 495 335 480.6 335 480 335 479 335 453 305 465"/></svg>