<?xml version="1.0" encoding="UTF-8"?><svg id="Layer_1" xmlns="http://www.w3.org/2000/svg" viewBox="0 0 340 500"><defs><style>.cls-1{fill:#e6e6e6;}.cls-1,.cls-2,.cls-3,.cls-4{stroke-width:0px;}.cls-2{fill:#ccc;}.cls-3{fill:#e9af4a;}.cls-4{fill:#d38431;}</style></defs><rect class="cls-2" x="-55" y="375" width="150" height="30" transform="translate(410 370) rotate(90)"/><polygon class="cls-2" points="155 15 5 165 5 315 35 315 35 177 155 57 275 177 275 315 305 315 305 165 155 15"/><polygon class="cls-1" points="335 315 335 480.6 305 495 305 315 335 315"/><rect class="cls-2" x="215" y="375" width="150" height="30" transform="translate(680 100) rotate(90)"/><polygon class="cls-1" points="305 165 305 315 335 315 335 153 305 165"/><polygon class="cls-1" points="305 123 187 5 155 15 185 45 305 165 335 153 305 123"/><polygon class="cls-3" points="335 315 335 480.6 305 495 305 315 335 315"/><path class="cls-4" d="m275,315v150H35v-150H5v180h300v-180h-30Zm-135,173H35v-15h105v15Zm135,0h-105v-15h105v15Z"/></svg>