<?xml version="1.0" encoding="UTF-8"?><svg id="Layer_1" xmlns="http://www.w3.org/2000/svg" viewBox="0 0 340 500"><defs><style>.cls-1{fill:#e6e6e6;}.cls-1,.cls-2,.cls-3,.cls-4{stroke-width:0px;}.cls-2{fill:#ccc;}.cls-3{fill:#e9af4a;}.cls-4{fill:#d38431;}</style></defs><rect class="cls-2" x="-55" y="375" width="150" height="30" transform="translate(410 370) rotate(90)"/><polygon class="cls-2" points="5 315 5 165 35 177 35 315 5 315"/><polygon class="cls-2" points="155 15 5 165 35 177 155 57 275 177 305 165 155 15"/><polygon class="cls-2" points="275 315 275 177 305 165 305 315 275 315"/><polygon class="cls-1" points="305 315 305 165 335 153 335 315 305 315"/><polygon class="cls-1" points="335 315 335 480.6 305 495 305 315 335 315"/><rect class="cls-2" x="215" y="375" width="150" height="30" transform="translate(680 100) rotate(90)"/><polygon class="cls-1" points="305 123 187 5 155 15 185 45 305 165 335 153 305 123"/><polygon class="cls-3" points="305 165 305 315 335 315 335 153 305 165"/><polygon class="cls-3" points="305 495 335 480.6 335 315 305 315 305 495"/><path class="cls-4" d="m275,177v288H35V177l-30-12v330h300V165l-30,12Zm-135,311H35v-15h105v15Zm135,0h-105v-15h105v15Z"/></svg>