<?xml version="1.0" encoding="UTF-8"?><svg id="Layer_1" xmlns="http://www.w3.org/2000/svg" viewBox="0 0 340 500"><defs><style>.cls-1{fill:#e6e6e6;}.cls-1,.cls-2,.cls-3{stroke-width:0px;}.cls-2{fill:#e9af4a;}.cls-3{fill:#d38431;}</style></defs><polygon class="cls-1" points="305 315 305 165 335 153 335 315 305 315"/><polygon class="cls-1" points="335 315 335 480.6 305 495 305 315 335 315"/><polygon class="cls-2" points="305 123 187 5 155 15 185 45 305 165 335 153 305 123"/><polygon class="cls-2" points="305 165 305 315 335 315 335 153 305 165"/><polygon class="cls-2" points="305 495 335 480.6 335 315 305 315 305 495"/><path class="cls-3" d="m155,15L5,165v330h300V165L155,15Zm-15,473H35v-15h105v15Zm135,0h-105v-15h105v15Zm0-173v150H35V177l120-120,120,120v138Z"/></svg>