<?xml version="1.0" encoding="UTF-8"?><svg id="Layer_1" xmlns="http://www.w3.org/2000/svg" viewBox="0 0 340 500"><defs><style>.cls-1{fill:#e6e6e6;}.cls-1,.cls-2,.cls-3,.cls-4,.cls-5{stroke-width:0px;}.cls-2{fill:#ccc;}.cls-3{fill:#fff;}.cls-4{fill:#e9af4a;}.cls-5{fill:#d38431;}</style></defs><rect class="cls-2" x="5" y="465" width="300" height="30"/><rect class="cls-2" x="-55" y="375" width="150" height="30" transform="translate(410 370) rotate(90)"/><polygon class="cls-2" points="5 315 5 165 35 177 35 315 5 315"/><polygon class="cls-2" points="155 15 305 165 275 177 155 57 155 15"/><polygon class="cls-2" points="155 57 35 177 5 165 155 15 155 57"/><polygon class="cls-2" points="275 315 275 177 305 165 305 315 275 315"/><polygon class="cls-1" points="305 315 305 165 335 153 335 315 305 315"/><polygon class="cls-1" points="335 315 335 480.6 305 495 305 315 335 315"/><rect class="cls-2" x="215" y="375" width="150" height="30" transform="translate(680 100) rotate(90)"/><rect class="cls-3" x="35" y="473" width="105" height="15"/><rect class="cls-3" x="170" y="473" width="105" height="15"/><polygon class="cls-1" points="335 153 305 123 305 165 335 153"/><polygon class="cls-1" points="187 5 155 15 185 45 187 5"/><polygon class="cls-1" points="305 165 305 123 187 5 185 45 305 165"/><polygon class="cls-4" points="305 123 305 123 187 5 155 15 185 45 185 45 305 165 335 153 305 123"/><polygon class="cls-4" points="305 165 305 315 335 315 335 153 305 165"/><polygon class="cls-4" points="305 495 335 480.6 335 315 305 315 305 495"/><polygon class="cls-5" points="155 15 5 165 5 315 5 465 5 495 305 495 305 465 305 315 305 165 155 15"/></svg>