<?xml version="1.0" encoding="UTF-8"?><svg id="Layer_1" xmlns="http://www.w3.org/2000/svg" viewBox="0 0 340 500"><defs><style>.cls-1{fill:#e6e6e6;}.cls-1,.cls-2,.cls-3,.cls-4,.cls-5{stroke-width:0px;}.cls-2{fill:#ccc;}.cls-3{fill:#fff;}.cls-6{opacity:.75;}.cls-4{fill:#e9af4a;}.cls-5{fill:#d38431;}</style></defs><rect class="cls-3" x="16" y="174" width="274" height="314"/><rect class="cls-2" x="5" y="465" width="300" height="30"/><rect class="cls-2" x="-55" y="375" width="150" height="30" transform="translate(410 370) rotate(90)"/><polygon class="cls-2" points="5 315 5 165 35 177 35 315 5 315"/><polygon class="cls-2" points="155 15 305 165 275 177 155 57 155 15"/><polygon class="cls-2" points="155 57 35 177 5 165 155 15 155 57"/><polygon class="cls-2" points="275 315 275 177 305 165 305 315 275 315"/><polygon class="cls-1" points="305 315 305 165 335 153 335 315 305 315"/><polygon class="cls-1" points="335 315 335 480.6 305 495 305 315 335 315"/><rect class="cls-2" x="215" y="375" width="150" height="30" transform="translate(680 100) rotate(90)"/><rect class="cls-3" x="35" y="473" width="105" height="15"/><rect class="cls-3" x="170" y="473" width="105" height="15"/><polygon class="cls-1" points="335 153 305 123 305 165 335 153"/><polygon class="cls-1" points="187 5 155 15 185 45 187 5"/><polygon class="cls-1" points="305 165 305 123 187 5 185 45 305 165"/><polygon class="cls-4" points="305 123 187 5 155 15 185 45 305 165 335 153 305 123"/><polygon class="cls-4" points="305 165 305 315 335 315 335 153 305 165"/><polygon class="cls-4" points="305 465 305 495 335 480.6 335 315 305 315 305 465"/><rect class="cls-4" x="305" y="465" width="0" height="30"/><path class="cls-5" d="m185,45l-30-30L5,165v330h300V165l-120-120Zm-49,166v70h-70v-70h70Zm-6-63v-50h50v50h-50Zm-2,212h9l-1,56v14h-70v-70h62Zm100,105h-40v-70h40v70Zm15-184h-70v-70h70v70Z"/><polygon class="cls-5" points="305 465 305 315 305 465 305 465"/><g class="cls-6"><polygon class="cls-4" points="200 281 233 211 232.67 211 199.33 281 200 281"/><polygon class="cls-4" points="179.8 281 225.17 211 225 211 179 281 179.8 281"/><polygon class="cls-4" points="199.33 281 232.67 211 225.17 211 179.8 281 199.33 281"/><polygon class="cls-4" points="128.38 430 136 414 136 416 137 360 128.61 360 83.24 430 128.38 430"/><polygon class="cls-4" points="83.24 430 128.61 360 128 360 83 430 83.24 430"/></g><polygon class="cls-4" points="136 430 136 416 129 430 136 430"/><rect class="cls-4" x="180" y="395" width="57" height="100"/><rect class="cls-4" x="66" y="211" width="70" height="70"/><rect class="cls-4" x="130" y="98" width="50" height="50"/><polygon class="cls-4" points="243 281 243 211 233 211 200 281 243 281"/><polygon class="cls-4" points="173 281 179 281 225 211 173 211 173 281"/><polygon class="cls-4" points="128 360 66 360 66 430 83 430 128 360"/><polygon class="cls-4" points="128.38 430 129 430 136 416 136 414 128.38 430"/></svg>