<?xml version="1.0" encoding="UTF-8"?><svg id="Layer_1" xmlns="http://www.w3.org/2000/svg" viewBox="0 0 210 210"><defs><style>.cls-1,.cls-2,.cls-3{stroke-width:0px;}.cls-2{fill:#e9af4a;}.cls-3{fill:#d38431;}</style></defs><rect class="cls-2" x="33.09" y="30.14" width="147.28" height="147.28" rx="10" ry="10" transform="translate(104.64 -45.07) rotate(45)"/><rect class="cls-3" x="39.68" y="36.66" width="134.04" height="134.04" rx="10" ry="10" transform="translate(104.57 -45.08) rotate(45)"/><rect class="cls-2" x="47.31" y="44.29" width="118.78" height="118.78" rx="10" ry="10" transform="translate(104.57 -45.08) rotate(45)"/><path class="cls-1" d="m119.02,86.5v31.21c0,2.47.22,4.28.67,5.42.45,1.15,1.35,2.2,2.71,3.17,1.11.79,1.85,1.46,2.23,2.01.38.56.56,1.26.56,2.12,0,4.62-5.85,6.93-17.56,6.93-6.3,0-11.3-.5-14.99-1.5-1.25-.36-2.27-.98-3.04-1.88-.77-.89-1.15-1.92-1.15-3.06,0-.97.2-1.72.59-2.26.39-.54,1.4-1.4,3.01-2.58,1.11-.82,1.9-2.17,2.36-4.03.46-1.86.7-4.64.7-8.33,0-1.18-.08-3.39-.24-6.63-.16-3.24-.28-5.13-.35-5.67-.21-1.47-1.22-2.6-3.01-3.38-2.22-.97-3.33-2.4-3.33-4.3,0-2.26,1.45-3.94,4.35-5.05,4.01-1.54,8.31-2.85,12.89-3.92,4.58-1.07,8.13-1.61,10.64-1.61,1.97,0,2.95,1.11,2.95,3.33Zm-10.64-23.53c3.12,0,5.59.58,7.41,1.75,1.83,1.16,2.74,2.73,2.74,4.7,0,2.76-1.38,4.94-4.14,6.55-4.37,2.54-9.65,3.81-15.85,3.81-2.61,0-4.69-.5-6.23-1.5-2.08-1.29-3.12-3.08-3.12-5.37,0-3.08,2.2-5.5,6.61-7.25,4.48-1.79,8.67-2.69,12.57-2.69Z"/></svg>