<?xml version="1.0" encoding="UTF-8"?><svg id="Layer_1" xmlns="http://www.w3.org/2000/svg" viewBox="0 0 1920 1080"><defs><style>.cls-1{fill:#999;}.cls-1,.cls-2,.cls-3,.cls-4,.cls-5,.cls-6,.cls-7,.cls-8,.cls-9,.cls-10,.cls-11,.cls-12,.cls-13,.cls-14,.cls-15,.cls-16,.cls-17,.cls-18,.cls-19,.cls-20,.cls-21,.cls-22,.cls-23,.cls-24,.cls-25,.cls-26,.cls-27,.cls-28{stroke-width:0px;}.cls-2{fill:#707070;}.cls-3{fill:#85b0df;}.cls-4{fill:#4d4d4d;}.cls-5{fill:#666;}.cls-6{fill:#bad4ef;}.cls-7{fill:#d6d7d7;}.cls-8{fill:#ececec;}.cls-9{fill:#9cbfe6;}.cls-10{fill:#e6e6e6;}.cls-11{opacity:.9;}.cls-11,.cls-23{fill:#fff;}.cls-12{fill:#bdbebe;}.cls-13{fill:#1a1a1a;}.cls-14{fill:#6ca2d8;}.cls-15{fill:#754c24;}.cls-16{fill:#f6d87b;}.cls-17,.cls-29{opacity:.75;}.cls-18{fill:gray;}.cls-19{fill:#b3b3b3;}.cls-20{fill:#333;}.cls-21{fill:#ccc;}.cls-22{fill:#3e66ae;}.cls-24{fill:#e9af4a;}.cls-25{fill:#d38431;}.cls-26{fill:#f2f2f2;}.cls-27{fill:#c69c6d;}.cls-28{fill:#d7ecfb;}</style></defs><rect class="cls-28" x=".25" y="-.4" width="1920" height="750"/><rect class="cls-14" x="-.25" y="-.4" width="1920" height="128"/><rect class="cls-3" x="-.25" y="127.6" width="1920" height="132"/><rect class="cls-9" x="-.25" y="259.6" width="1920" height="148"/><rect class="cls-6" x="-.25" y="407.6" width="1920" height="149"/><rect class="cls-28" x="-.25" y="556.6" width="1920" height="191"/><rect class="cls-10" x=".5" y="739.5" width="1920" height="341"/><rect class="cls-10" x="87.5" y="64.5" width="189" height="678"/><polygon class="cls-26" points="276.5 64.5 87.5 64.5 99.5 55.5 276.5 54.5 276.5 64.5"/><rect class="cls-26" x="276.5" y="54.5" width="10" height="678"/><polygon class="cls-26" points="1576.5 746.5 1465.5 746.5 1454.5 15.55 1465.5 7.5 1576.5 7.5 1576.5 746.5"/><rect class="cls-10" x="1454.5" y="15.5" width="111" height="734"/><rect class="cls-26" x="709.5" y="184.5" width="225" height="558"/><polygon class="cls-26" points="934.5 184.5 709.5 184.5 732.5 99.5 744.5 89.5 899.5 89.5 934.5 184.5"/><rect class="cls-10" x="697.5" y="194.5" width="225" height="558"/><polygon class="cls-10" points="922.5 194.5 697.5 194.5 732.5 99.5 887.5 99.5 922.5 194.5"/><polygon class="cls-21" points="488.5 791.5 369.5 791.5 369.5 168.5 488.5 306.5 488.5 791.5"/><polygon class="cls-10" points="498.5 784.5 488.5 791.5 488.5 306.5 498.5 302.5 498.5 784.5"/><polygon class="cls-10" points="498.5 302.5 488.55 307.06 369.5 168.5 383.5 168.5 498.5 302.5"/><path class="cls-7" d="m730.5,177.5l-105,123v463h267V177.5h-162Zm127,549h-198v-96h198v96Zm0-140h-198v-96h198v96Zm0-139h-198v-96h198v96Zm1-139h-198l79-96h119v96Z"/><path class="cls-21" d="m715.5,194.5l-105,123v463h267V194.5h-162Zm127,549h-198v-96h198v96Zm0-140h-198v-96h198v96Zm0-139h-198v-96h198v96Zm1-139h-198l79-96h119v96Z"/><polygon class="cls-19" points="647.5 858.23 637.5 864.5 637.5 430.08 647.5 426.5 647.5 858.23"/><polygon class="cls-19" points="647.5 426.5 637.48 431.48 530.5 307.5 544.5 307.5 647.5 426.5"/><polygon class="cls-1" points="637.5 864.5 530.5 864.5 530.5 307.5 637.5 430.88 637.5 864.5"/><polygon class="cls-10" points="1441.5 750.5 1206.5 750.5 1190.5 207.5 1206.5 185.4 1441.5 93.5 1441.5 750.5"/><polygon class="cls-10" points="1318.5 177.5 1265.12 177.5 1252.5 118.5 1265.12 107.5 1318.5 107.5 1318.5 177.5"/><polygon class="cls-10" points="1296.5 110.5 1278.86 110.5 1270.5 89.5 1278.86 83.5 1296.5 83.5 1296.5 110.5"/><polygon class="cls-21" points="1425.5 763.5 1190.5 763.5 1190.5 207 1425.5 116.5 1425.5 763.5"/><rect class="cls-21" x="1252.5" y="118.5" width="55" height="74"/><rect class="cls-21" x="1270.5" y="89.5" width="19" height="29"/><rect class="cls-10" x="1726.5" y="223.5" width="147" height="517"/><polygon class="cls-10" points="1822.5 171.5 1803.5 171.5 1797.5 148.5 1803.5 142.5 1822.5 142.5 1822.5 171.5"/><polygon class="cls-10" points="1851.5 169.5 1750.5 169.5 1738.5 177.5 1726.5 223.5 1873.5 223.5 1851.5 169.5"/><rect class="cls-21" x="1714.5" y="231.5" width="147" height="517"/><rect class="cls-21" x="1797.5" y="148.5" width="19" height="29"/><polygon class="cls-21" points="1839.5 177.5 1738.5 177.5 1714.5 231.5 1861.5 231.5 1839.5 177.5"/><rect class="cls-21" x="34.5" y="286.5" width="228" height="528"/><polygon class="cls-21" points="228.38 232.5 79.5 232.5 61.5 241.5 34.5 286.5 262.5 286.5 228.38 232.5"/><rect class="cls-19" x="24.5" y="295.5" width="228" height="528"/><polygon class="cls-21" points="181.7 232.5 144.5 232.5 144.5 212.5 151.5 203.5 181.7 203.5 181.7 232.5"/><rect class="cls-19" x="144.23" y="212.5" width="29.47" height="29"/><polygon class="cls-19" points="218.38 241.5 61.5 241.5 24.5 295.5 252.5 295.5 218.38 241.5"/><rect class="cls-26" x="976.5" y="326.5" width="189" height="412"/><polygon class="cls-26" points="1070.85 235.5 1054.5 239.5 976.2 326.5 1165.5 326.5 1070.85 235.5"/><rect class="cls-10" x="960.5" y="330.5" width="189" height="412"/><polygon class="cls-10" points="1054.85 239.5 960.2 330.5 1149.5 330.5 1054.85 239.5"/><polygon class="cls-18" points="428.5 881.5 406.5 890.5 396.5 888.5 396.5 492.5 428.5 492.5 428.5 881.5"/><polygon class="cls-18" points="332.5 396.5 311.5 400.5 226.35 492.5 428.5 492.5 332.5 396.5"/><rect class="cls-5" x="217.5" y="495.5" width="189" height="395"/><polygon class="cls-5" points="311.5 400.5 217.35 495.5 406.35 495.5 311.5 400.5"/><polygon class="cls-18" points="360.5 965.3 329.64 973.5 315.62 971.68 315.62 610.95 360.5 610.95 360.5 965.3"/><polygon class="cls-18" points="225.85 523.5 196.4 527.14 76.97 610.95 360.5 610.95 225.85 523.5"/><rect class="cls-5" x="64.56" y="613.68" width="265.08" height="359.82"/><polygon class="cls-5" points="196.4 527.14 64.35 613.68 329.43 613.68 196.4 527.14"/><polygon class="cls-12" points="1763.5 768.5 1747.5 780.5 1635.4 768.5 1635.4 414.93 1763.5 414.93 1763.5 768.5"/><polygon class="cls-12" points="1699.35 337.5 1683.5 342.39 1635.2 414.93 1763.5 414.93 1699.35 337.5"/><rect class="cls-19" x="1619.4" y="421.74" width="128.1" height="358.76"/><polygon class="cls-19" points="1683.35 342.5 1619.2 421.74 1747.5 421.74 1683.35 342.5"/><path class="cls-18" d="m1902.66,367.5l-20.16,17-64,95.3v422.7h214V367.5h-129.84Zm101.79,501.22h-158.7v-87.65h158.7v87.65Zm0-127.82h-158.7v-87.65h158.7v87.65Zm0-126.9h-158.7v-87.65h158.7v87.65Zm.8-126.9h-158.7l63.32-87.65h95.38v87.65Z"/><path class="cls-5" d="m1882.66,384.5l-84.16,112.3v422.7h214V384.5h-129.84Zm101.79,501.22h-158.7v-87.65h158.7v87.65Zm0-127.82h-158.7v-87.65h158.7v87.65Zm0-126.9h-158.7v-87.65h158.7v87.65Zm.8-126.9h-158.7l63.32-87.65h95.38v87.65Z"/><polygon class="cls-19" points="1276.5 833.5 1121.5 833.5 1111.5 351.5 1121.5 341.5 1276.5 341.5 1276.5 833.5"/><rect class="cls-1" x="1111.5" y="351.5" width="155" height="492"/><polygon class="cls-1" points="1398.5 876.5 1387.5 885.5 1251.5 876.5 1251.5 488.75 1398.5 488.75 1398.5 876.5"/><polygon class="cls-1" points="1349.5 448.25 1330.5 448.25 1323.5 435.5 1330.5 428.5 1349.5 428.5 1349.5 448.25"/><polygon class="cls-1" points="1376.5 447.5 1275.5 447.5 1264.5 457.5 1251.5 488.75 1398.5 488.75 1376.5 447.5"/><rect class="cls-18" x="1240.5" y="497.75" width="147" height="387.75"/><rect class="cls-18" x="1323.5" y="435.5" width="19" height="21.75"/><polygon class="cls-18" points="1365.5 457.25 1264.5 457.25 1240.5 497.75 1387.5 497.75 1365.5 457.25"/><polygon class="cls-1" points="778.5 951.5 767.5 960.5 631.5 951.5 631.5 563.75 778.5 563.75 778.5 951.5"/><polygon class="cls-1" points="729.5 523.25 710.5 523.25 703.5 510.5 710.5 503.5 729.5 503.5 729.5 523.25"/><polygon class="cls-1" points="756.5 522.5 655.5 522.5 644.5 532.5 631.5 563.75 778.5 563.75 756.5 522.5"/><rect class="cls-18" x="620.5" y="572.75" width="147" height="387.75"/><rect class="cls-18" x="703.5" y="510.5" width="19" height="21.75"/><polygon class="cls-18" points="745.5 532.25 644.5 532.25 620.5 572.75 767.5 572.75 745.5 532.25"/><rect class="cls-5" x="1313.77" y="493.01" width="392.57" height="15" transform="translate(-63.55 734.05) rotate(-26.78)"/><path class="cls-2" d="m1712.5,946.5h-69v-510.72c0-12.86,10.42-23.28,23.28-23.28h29c9.24,0,16.72,7.49,16.72,16.72v517.28Z"/><rect class="cls-2" x="1321.77" y="485.01" width="392.57" height="15" transform="translate(-59.09 736.8) rotate(-26.78)"/><rect class="cls-2" x="1762.75" y="368.77" width="15" height="251.76" transform="translate(138.02 1339.82) rotate(-42.99)"/><polygon class="cls-2" points="1334.5 652.5 1323.5 577.5 1334.5 571.5 1864.5 571.5 1864.5 652.5 1853.5 658.5 1334.5 652.5"/><polygon class="cls-2" points="1726.5 946.5 1715.5 952.5 1630.5 946.5 1619.5 917.5 1630.5 911.5 1726.5 911.5 1726.5 946.5"/><path class="cls-4" d="m1701.5,952.5h-69v-510.72c0-12.86,10.42-23.28,23.28-23.28h29c9.24,0,16.72,7.49,16.72,16.72v517.28Z"/><rect class="cls-4" x="1310.77" y="491.01" width="392.57" height="15" transform="translate(-62.97 732.49) rotate(-26.78)"/><rect class="cls-4" x="1751.75" y="374.77" width="15" height="251.76" transform="translate(130.98 1333.93) rotate(-42.99)"/><rect class="cls-4" x="1323.5" y="577.5" width="530" height="81"/><rect class="cls-4" x="1619.5" y="917.5" width="96" height="35"/><polygon class="cls-5" points="1009.5 887.5 993.5 898.5 796.5 887.5 796.5 644.83 1009.5 644.83 1009.5 887.5"/><polygon class="cls-5" points="1009.5 644.83 796.5 644.83 841.85 527.15 965.53 527.15 1009.5 644.83"/><polygon class="cls-5" points="965.53 527.15 841.85 527.15 841.85 408.34 965.5 408.5 965.53 527.15"/><polygon class="cls-5" points="903.69 349.41 887.5 356.41 841.85 408.5 965.5 408.5 903.69 349.41"/><polygon class="cls-5" points="871.7 395.76 852.46 395.76 846.5 358.5 852.46 352.76 871.7 352.76 871.7 395.76"/><rect class="cls-4" x="780.5" y="651.83" width="213" height="246.67"/><polygon class="cls-4" points="993.5 651.83 780.5 651.83 825.85 534.15 949.53 534.15 993.5 651.83"/><polygon class="cls-4" points="949.53 534.15 825.85 534.15 825.5 415.5 949.5 415.5 949.53 534.15"/><polygon class="cls-4" points="887.5 356.5 825.5 415.5 949.5 415.5 887.5 356.5"/><polygon class="cls-4" points="865.7 401.76 846.46 401.76 846.5 358.5 865.5 358.5 865.7 401.76"/><polygon class="cls-4" points="1525.5 1040.5 1509.5 1051.5 1312.5 1040.5 1312.5 797.83 1525.5 797.83 1525.5 1040.5"/><polygon class="cls-4" points="1525.5 797.83 1312.5 797.83 1357.85 680.15 1481.53 680.15 1525.5 797.83"/><polygon class="cls-4" points="1481.53 680.15 1357.85 680.15 1357.85 561.34 1481.5 561.5 1481.53 680.15"/><polygon class="cls-4" points="1419.69 502.41 1403.5 509.41 1357.85 561.5 1481.5 561.5 1419.69 502.41"/><polygon class="cls-4" points="1387.7 548.76 1368.46 548.76 1362.5 511.5 1368.46 505.76 1387.7 505.76 1387.7 548.76"/><rect class="cls-20" x="1296.5" y="804.83" width="213" height="246.67"/><polygon class="cls-20" points="1509.5 804.83 1296.5 804.83 1341.85 687.15 1465.53 687.15 1509.5 804.83"/><polygon class="cls-20" points="1465.53 687.15 1341.85 687.15 1341.5 568.5 1465.5 568.5 1465.53 687.15"/><polygon class="cls-20" points="1403.5 509.5 1341.5 568.5 1465.5 568.5 1403.5 509.5"/><polygon class="cls-20" points="1381.7 554.76 1362.46 554.76 1362.5 511.5 1381.5 511.5 1381.7 554.76"/><polygon class="cls-2" points="383.5 1020.57 370.51 1025.5 370.51 683.89 383.5 681.08 383.5 1020.57"/><polygon class="cls-2" points="383.5 681.08 370.48 684.99 231.5 587.5 249.69 587.5 383.5 681.08"/><polygon class="cls-4" points="370.51 1025.5 231.5 1025.5 231.5 587.5 370.51 684.52 370.51 1025.5"/><polygon class="cls-4" points="597.5 1067.57 583.06 1072.5 583.06 730.89 597.5 728.08 597.5 1067.57"/><polygon class="cls-4" points="597.5 728.08 583.03 731.99 428.5 634.5 448.72 634.5 597.5 728.08"/><polygon class="cls-20" points="583.06 1072.5 428.5 1072.5 428.5 634.5 583.06 731.52 583.06 1072.5"/><polygon class="cls-20" points="1092.5 1049.79 1063.5 1069.5 801.35 1049.79 772.5 650.5 801.35 627.5 1092.5 627.5 1092.5 1049.79"/><rect class="cls-13" x="772.5" y="650.07" width="291.15" height="419.43"/><rect class="cls-17" x=".5" y="-.5" width="1920" height="1081"/><rect class="cls-11" x="197.36" y="128.97" width="1525" height="822" rx="411" ry="411"/><rect class="cls-21" x="1191.5" y="790.5" width="240" height="24"/><rect class="cls-21" x="1143.5" y="718.5" width="120" height="24" transform="translate(1934 -473) rotate(90)"/><polygon class="cls-21" points="1191.5 670.5 1191.5 550.5 1215.5 560.1 1215.5 670.5 1191.5 670.5"/><polygon class="cls-21" points="1311.5 430.5 1431.5 550.5 1407.5 560.1 1311.5 464.1 1311.5 430.5"/><polygon class="cls-21" points="1311.5 464.1 1215.5 560.1 1191.5 550.5 1311.5 430.5 1311.5 464.1"/><polygon class="cls-21" points="1407.5 670.5 1407.5 560.1 1431.5 550.5 1431.5 670.5 1407.5 670.5"/><polygon class="cls-10" points="1431.5 670.5 1431.5 550.5 1455.5 540.9 1455.5 670.5 1431.5 670.5"/><polygon class="cls-10" points="1455.5 670.5 1455.5 802.98 1431.5 814.5 1431.5 670.5 1455.5 670.5"/><rect class="cls-21" x="1359.5" y="718.5" width="120" height="24" transform="translate(2150 -689) rotate(90)"/><rect class="cls-23" x="1215.5" y="796.9" width="84" height="12"/><rect class="cls-23" x="1323.5" y="796.9" width="84" height="12"/><polygon class="cls-10" points="1455.5 540.9 1431.5 516.9 1431.5 550.5 1455.5 540.9"/><polygon class="cls-10" points="1337.1 422.5 1311.5 430.5 1335.5 454.5 1337.1 422.5"/><polygon class="cls-10" points="1431.5 550.5 1431.5 516.9 1337.1 422.5 1335.5 454.5 1431.5 550.5"/><polygon class="cls-24" points="1431.5 516.9 1337.1 422.5 1311.5 430.5 1335.5 454.5 1431.5 550.5 1455.5 540.9 1431.5 516.9"/><polygon class="cls-24" points="1431.5 550.5 1431.5 670.5 1455.5 670.5 1455.5 540.9 1431.5 550.5"/><polygon class="cls-24" points="1431.5 790.5 1431.5 814.5 1455.5 802.98 1455.5 670.5 1431.5 670.5 1431.5 790.5"/><rect class="cls-24" x="1431.5" y="790.5" width="0" height="24"/><path class="cls-25" d="m1335.5,454.5l-24-24-120,120v264h240v-264l-96-96Zm-39.2,132.8v56h-56v-56h56Zm-4.8-50.4v-40h40v40h-40Zm-1.6,169.6h7.2l-.8,44.8v11.2h-56v-56h49.6Zm80,84h-32v-56h32v56Zm12-147.2h-56v-56h56v56Z"/><polygon class="cls-25" points="1431.5 790.5 1431.5 670.5 1431.5 790.5 1431.5 790.5"/><g class="cls-29"><polygon class="cls-24" points="1347.5 643.3 1373.9 587.3 1373.63 587.3 1346.97 643.3 1347.5 643.3"/><polygon class="cls-24" points="1331.34 643.3 1367.63 587.3 1367.5 587.3 1330.7 643.3 1331.34 643.3"/><polygon class="cls-24" points="1346.97 643.3 1373.63 587.3 1367.63 587.3 1331.34 643.3 1346.97 643.3"/><polygon class="cls-24" points="1290.2 762.5 1296.3 749.7 1296.3 751.3 1297.1 706.5 1290.38 706.5 1254.09 762.5 1290.2 762.5"/><polygon class="cls-24" points="1254.09 762.5 1290.38 706.5 1289.9 706.5 1253.9 762.5 1254.09 762.5"/></g><polygon class="cls-24" points="1296.3 762.5 1296.3 751.3 1290.7 762.5 1296.3 762.5"/><rect class="cls-24" x="1331.5" y="734.5" width="45.6" height="80"/><rect class="cls-24" x="1240.3" y="587.3" width="56" height="56"/><rect class="cls-24" x="1291.5" y="496.9" width="40" height="40"/><polygon class="cls-24" points="1381.9 643.3 1381.9 587.3 1373.9 587.3 1347.5 643.3 1381.9 643.3"/><polygon class="cls-24" points="1325.9 643.3 1330.7 643.3 1367.5 587.3 1325.9 587.3 1325.9 643.3"/><polygon class="cls-24" points="1289.9 706.5 1240.3 706.5 1240.3 762.5 1253.9 762.5 1289.9 706.5"/><polygon class="cls-24" points="1290.2 762.5 1290.7 762.5 1296.3 751.3 1296.3 749.7 1290.2 762.5"/><polygon class="cls-27" points="756.01 490.06 736.54 484.78 740.14 471.27 759.62 476.56 756.01 490.06"/><path class="cls-27" d="m768.95,428.49l-12.75-3.56c-2.95-.82-6.05.62-7.33,3.39l-5.79,12.59c-1.96,4.27-3.23,8.83-3.76,13.5l-1.86,25.59,18.98,5.3,12.27-24.14c1.57-3.41,2.59-7.05,3.02-10.79l1.73-15.18c.35-3.04-1.56-5.88-4.51-6.7Z"/><rect class="cls-27" x="734.63" y="436.08" width="9.45" height="40.21" rx="4.55" ry="4.55" transform="translate(-108.79 268.04) rotate(-19.17)"/><path class="cls-22" d="m709.06,607.23l-7.5-17.53c-.83-1.95-.93-4.13-.28-6.15l31.06-95.43c1.42-4.37,5.97-6.89,10.43-5.78l11.21,2.78c4.4,1.09,7.24,5.37,6.54,9.85l-16.14,102.8c-3.09,17.63-20.68,16.56-29.27,14.55-2.71-.64-4.96-2.52-6.05-5.08Z"/><polygon class="cls-22" points="653.13 715.71 602.87 644.92 704.16 573.86 742.2 604.72 653.13 715.71"/><polygon class="cls-27" points="353.54 490.06 373.02 484.78 369.41 471.27 349.93 476.56 353.54 490.06"/><path class="cls-27" d="m340.6,428.49l12.75-3.56c2.95-.82,6.05.62,7.33,3.39l5.79,12.59c1.96,4.27,3.23,8.83,3.76,13.5l1.86,25.59-18.98,5.3-12.27-24.14c-1.57-3.41-2.59-7.05-3.02-10.79l-1.73-15.18c-.35-3.04,1.56-5.88,4.51-6.7Z"/><rect class="cls-27" x="350.09" y="451.46" width="40.21" height="9.45" rx="4.55" ry="4.55" transform="translate(-182.24 656.08) rotate(-70.83)"/><path class="cls-22" d="m400.49,607.23l7.5-17.53c.83-1.95.93-4.13.28-6.15l-31.06-95.43c-1.42-4.37-5.97-6.89-10.43-5.78l-11.21,2.78c-4.4,1.09-7.24,5.37-6.54,9.85l16.14,102.8c3.09,17.63,20.68,16.56,29.27,14.55,2.71-.64,4.96-2.52,6.05-5.08Z"/><polygon class="cls-22" points="456.42 715.71 506.69 644.92 405.39 573.86 367.35 604.72 456.42 715.71"/><path class="cls-27" d="m636.27,539.97c0,52.12-48.04,123.54-85.79,123.54s-85.79-71.42-85.79-123.54,38.41-94.37,85.79-94.37,85.79,42.25,85.79,94.37Z"/><circle class="cls-20" cx="508.44" cy="554.56" r="8.58"/><circle class="cls-20" cx="589.94" cy="554.56" r="8.58"/><path class="cls-22" d="m471.55,734.72l-.56,145.85h170.28l.15-150.14,31.96-39.95c-2.38-18.4-11.22-34.77-24.17-46.75-13.78-12.75-32.22-20.54-52.47-20.54h-83.07c-39.62,0-72.27,29.81-76.76,68.23l34.64,43.3Z"/><path class="cls-15" d="m632.87,518.25c-4.92,49.59-41.22,98.08-84.97,98.08s-74.9-48.49-79.83-98.08c-2.21,5.49-3.39,12.58-3.39,21.72,0,52.12,48.9,123.54,85.79,123.54s85.79-71.42,85.79-123.54c0-9.14-1.19-16.24-3.39-21.72Z"/><path class="cls-24" d="m636.27,523.67s-38.41,24.88-85.79,24.88-85.79-24.88-85.79-24.88c0,0,0-106.38,85.79-106.38s85.79,106.38,85.79,106.38Z"/><path class="cls-24" d="m636.27,523.67s-38.41-2.57-85.79-2.57-85.79,2.57-85.79,2.57c0,0,0-106.38,85.79-106.38s85.79,106.38,85.79,106.38Z"/><path class="cls-25" d="m571.29,521.1h-41.63c-2.62,0-4.65-2.29-4.34-4.89l11.83-99.35c.26-2.2,2.13-3.85,4.34-3.85h17.97c2.21,0,4.08,1.66,4.34,3.85l11.83,99.35c.31,2.6-1.72,4.89-4.34,4.89Z"/><path class="cls-16" d="m604.96,454.03c9.64,13.88,9.69,36.22,8.72,36.37-.76.12-2.61-10.8-13-23.23-9.04-10.82-28.69-19.54-21.73-27.06,6.5-7.01,16.37.04,26.01,13.92Z"/><path class="cls-8" d="m1311.64,129.03h-703c-226.99,0-411,184.01-411,411h0c0,226.99,184.01,411,411,411h703c226.99,0,411-184.01,411-411h0c0-226.99-184.01-411-411-411Zm309.5,411c0,173.35-140.53,313.87-313.87,313.87h-694.25c-173.35,0-313.87-140.53-313.87-313.87h0c0-173.35,140.53-313.88,313.87-313.88h694.25c173.35,0,313.87,140.53,313.87,313.87h0Z"/></svg>