<?xml version="1.0" encoding="UTF-8"?><svg id="Layer_1" xmlns="http://www.w3.org/2000/svg" viewBox="0 0 185 450"><defs><style>.cls-1,.cls-2{stroke-width:0px;}.cls-2{fill:#39b54a;}</style></defs><path class="cls-1" d="m160.4,5.77H25.59C14.55,5.77,5.59,14.73,5.59,25.77v401.28c0,11.05,8.95,20,20,20h134.81c11.05,0,20-8.95,20-20V25.77c0-11.05-8.95-20-20-20Z"/><rect class="cls-2" x="52.03" y="46.4" width="117.56" height="67.18" rx="31.14" ry="31.14" transform="translate(-24.1 101.78) rotate(-45)"/><path class="cls-2" d="m28.86,46.4h73.96c17.19,0,31.14,13.95,31.14,31.14v4.9c0,17.19-13.95,31.14-31.14,31.14h-55.28c-17.19,0-31.14-13.95-31.14-31.14v-23.58c0-6.87,5.58-12.46,12.46-12.46Z" transform="translate(71.79 189.71) rotate(-135)"/><rect class="cls-2" x="52.03" y="331.51" width="117.56" height="67.18" rx="31.14" ry="31.14" transform="translate(-225.71 185.29) rotate(-45)"/><path class="cls-2" d="m28.86,331.51h73.96c17.19,0,31.14,13.95,31.14,31.14v4.9c0,17.19-13.95,31.14-31.14,31.14h-55.28c-17.19,0-31.14-13.95-31.14-31.14v-23.58c0-6.87,5.58-12.46,12.46-12.46Z" transform="translate(-129.82 676.43) rotate(-135)"/><rect class="cls-2" x="52.16" y="189.31" width="117.2" height="66.97" rx="30.57" ry="30.57" transform="translate(-125.1 143.57) rotate(-45)"/><path class="cls-2" d="m28.87,189.31h74.4c16.87,0,30.57,13.7,30.57,30.57v5.83c0,16.87-13.7,30.57-30.57,30.57h-56.06c-16.87,0-30.57-13.7-30.57-30.57v-24.17c0-6.75,5.48-12.23,12.23-12.23Z" transform="translate(-29.1 433.54) rotate(-135)"/></svg>