<?xml version="1.0" encoding="UTF-8"?><svg id="Layer_1" xmlns="http://www.w3.org/2000/svg" viewBox="0 0 120 240"><defs><style>.cls-1,.cls-2,.cls-3,.cls-4,.cls-5{stroke-width:0px;}.cls-2{fill:gray;}.cls-3{fill:#333;}.cls-4{fill:#e9af4a;}.cls-5{fill:#d38431;}</style></defs><rect class="cls-2" x="57.24" y="119.5" width="6" height="116"/><path class="cls-4" d="m79.68,4.5h-39.36c-2.65,0-5.19,1.05-7.06,2.93L5.43,35.26c-1.87,1.87-2.93,4.41-2.93,7.06v39.36c0,2.65,1.05,5.19,2.93,7.06l27.83,27.83c1.87,1.87,4.41,2.93,7.06,2.93h39.36c2.65,0,5.19-1.05,7.06-2.93l27.83-27.83c1.87-1.87,2.93-4.41,2.93-7.06v-39.36c0-2.65-1.05-5.19-2.93-7.06l-27.83-27.83c-1.87-1.87-4.41-2.93-7.06-2.93Z"/><path class="cls-5" d="m110.07,38.88l-26.95-26.95c-1.08-1.08-2.54-1.68-4.06-1.68h-38.12c-1.52,0-2.98.6-4.06,1.68l-16.83,16.83-10.13,10.13c-1.08,1.08-1.68,2.54-1.68,4.06v38.12c0,1.52.6,2.98,1.68,4.06l26.95,26.95c1.08,1.08,2.54,1.68,4.06,1.68h38.12c1.52,0,2.98-.6,4.06-1.68l16.83-16.83,10.13-10.13c1.08-1.08,1.68-2.54,1.68-4.06v-38.12c0-1.52-.6-2.98-1.68-4.06Zm-4.07,22.2v17.59c0,.56-.08,1.1-.24,1.63-.27.91-.76,1.75-1.44,2.43l-12.18,12.18-11.4,11.4c-1.08,1.08-2.54,1.68-4.06,1.68h-33.35c-1.52,0-2.98-.6-4.06-1.68l-23.59-23.59c-1.08-1.08-1.68-2.54-1.68-4.06v-33.35c0-.56.08-1.1.24-1.63.27-.91.76-1.75,1.44-2.43l12.18-12.18,11.4-11.4c1.08-1.08,2.54-1.68,4.06-1.68h33.35c1.52,0,2.98.6,4.06,1.68l23.58,23.58c1.08,1.08,1.68,2.54,1.68,4.06v15.76Z"/><rect class="cls-1" x="22.95" y="126.11" width="75" height="75" rx="7.19" ry="7.19" transform="translate(224.06 103.15) rotate(90)"/><circle class="cls-3" cx="60.45" cy="163.61" r="34.46"/></svg>