<?xml version="1.0" encoding="UTF-8"?><svg id="Layer_1" xmlns="http://www.w3.org/2000/svg" viewBox="0 0 520 155"><defs><style>.cls-1{fill:#d5685e;}.cls-1,.cls-2,.cls-3{stroke-width:0px;}.cls-2{fill:#ff1d25;}.cls-3{opacity:.5;}</style></defs><rect class="cls-2" x="1.83" y="2.28" width="516.33" height="150.45" rx="11" ry="11"/><rect class="cls-3" x="1.83" y="2.28" width="516.33" height="150.45" rx="11" ry="11"/><path class="cls-2" d="m30.91,7.87h43.72c1.63,0,3.13.52,3.86,1.35l43.82,26.18-16.85-24.75c-.37-1.47,1.64-2.79,4.27-2.79h379.36c10.3,0,18.66,4.79,18.66,10.71v117.84c0,5.91-8.35,10.71-18.66,10.71h-15.56s-2.27,0-2.27,0c-1.83,0-3.46-.66-4.07-1.64l-15.15-35.07-1.54,34.6c-.29,1.21-2.12,2.11-4.27,2.11H30.91c-8.58,0-15.82-3.19-18.01-7.71-.71-1.47-1.14-15.85,1.54-16l75.5-4-73.96-9c-1.89-.28-3.08-1.89-3.08-3l-.65-88.83c0-5.91,8.35-10.71,18.66-10.71Z"/><path class="cls-1" d="m478.88,20.75c14.05,9.91,17.67,37.2,16.5,38.09-.91.7-4.93-11.3-19.65-18.88-12.82-6.6-38.33-2.86-30.99-17.15,6.86-13.35,20.1-11.96,34.14-2.06Z"/></svg>