<?xml version="1.0" encoding="UTF-8"?><svg id="Layer_1" xmlns="http://www.w3.org/2000/svg" viewBox="0 0 520 155"><defs><style>.cls-1{fill:#7bb96b;}.cls-1,.cls-2,.cls-3{stroke-width:0px;}.cls-2{opacity:.5;}.cls-3{fill:#39b54a;}</style></defs><rect class="cls-3" x="2.11" y="2.28" width="516.33" height="150.45" rx="11" ry="11"/><rect class="cls-2" x="2.11" y="2.28" width="516.33" height="150.45" rx="11" ry="11"/><path class="cls-3" d="m31.19,7.87h43.72c1.63,0,3.13.52,3.86,1.35l43.82,26.18-16.85-24.75c-.37-1.47,1.64-2.79,4.27-2.79h379.36c10.3,0,18.66,4.79,18.66,10.71v117.84c0,5.91-8.35,10.71-18.66,10.71h-15.56s-2.27,0-2.27,0c-1.83,0-3.46-.66-4.07-1.64l-15.15-35.07-1.54,34.6c-.29,1.21-2.12,2.11-4.27,2.11H31.19c-8.58,0-15.82-3.19-18.01-7.71-.71-1.47-1.14-15.85,1.54-16l75.5-4-73.96-9c-1.89-.28-3.08-1.89-3.08-3l-.65-88.83c0-5.91,8.35-10.71,18.66-10.71Z"/><path class="cls-1" d="m488.39,39.87c13.98,21.66,8.69,58.43,6.91,58.8-1.39.29-2.09-17.46-17.75-36.64-13.63-16.69-46.84-28.63-32.53-41.86,13.36-12.35,29.39-1.97,43.37,19.69Z"/></svg>