<?xml version="1.0" encoding="UTF-8"?><svg id="Layer_1" xmlns="http://www.w3.org/2000/svg" viewBox="0 0 305 155"><defs><style>.cls-1,.cls-2,.cls-3,.cls-4{stroke-width:0px;}.cls-2{fill:#f6d87b;}.cls-3{fill:#e9af4a;}.cls-4{fill:#d38431;}</style></defs><rect class="cls-4" x="1.88" y="1.62" width="300.89" height="150.45" rx="11" ry="11"/><path class="cls-3" d="m285.83,7.22h-25.48c-.95,0-1.82.52-2.25,1.35l-21.72,42.47,6.01-41.03c.22-1.47-.96-2.79-2.49-2.79H18.83c-6,0-10.87,4.79-10.87,10.71v117.84c0,5.91,4.87,10.71,10.87,10.71h10.39c1.07,0,2.02-.66,2.37-1.64l7.02-19.54,2.7,19.07c.17,1.21,1.23,2.11,2.49,2.11h73.09l2.09-9.94,4.1,9.94h162.75c5,0,9.21-3.32,10.48-7.84.41-1.47-.62-2.96-2.17-3.11l-37.98-3.65,38.67-9.93c1.1-.28,1.87-1.25,1.87-2.36V17.93c0-5.91-4.87-10.71-10.87-10.71Z"/><path class="cls-1" d="m55.64,40.63c3.14,0,7.26.78,12.36,2.33.61.18,1.1.28,1.46.28.3,0,1.22-.28,2.75-.82.49-.18,1.01-.27,1.56-.27,2.04,0,4.2,1.62,6.48,4.85,2.27,3.23,3.41,6.31,3.41,9.24,0,1.71-.51,3.15-1.53,4.33-1.02,1.17-2.27,1.76-3.73,1.76-1.22,0-2.21-.24-2.97-.73s-2.44-1.94-5.03-4.35c-3.66-3.42-7.26-5.13-10.8-5.13-1.71,0-3.07.41-4.1,1.24-1.02.82-1.53,1.91-1.53,3.25,0,2.65,2.33,4.65,7,5.99,6.32,1.86,10.36,3.22,12.13,4.07,7.78,3.78,11.67,9.35,11.67,16.71,0,6.5-2.65,11.81-7.96,15.93-5.43,4.21-12.53,6.32-21.28,6.32-3.91,0-8.03-.46-12.36-1.4-4.33-.93-7.46-2.02-9.38-3.27-1.46-.98-2.78-3.11-3.96-6.38s-1.76-6.48-1.76-9.59c0-1.49.3-2.62.92-3.39.76-.97,1.72-1.46,2.88-1.46s2.27.6,3.34,1.79c.64.67,2.15,2.82,4.53,6.46,1.13,1.71,2.92,3.13,5.38,4.26,2.46,1.13,5,1.69,7.62,1.69,2.26,0,4.09-.42,5.49-1.26,1.4-.84,2.11-1.91,2.11-3.23,0-1.22-.55-2.27-1.65-3.16-1.1-.88-2.88-1.71-5.36-2.47-4.36-1.37-7.69-2.63-9.98-3.78-2.29-1.14-4.42-2.59-6.41-4.33-4.82-4.27-7.23-9.12-7.23-14.55,0-2.68.62-5.3,1.88-7.85,1.25-2.55,3.02-4.75,5.31-6.61,5.13-4.3,11.38-6.46,18.77-6.46Z"/><path class="cls-1" d="m115.51,70.79v15.47c0,1.83.45,3.33,1.35,4.48.9,1.16,2.05,1.74,3.46,1.74,1.19,0,2.76-.55,4.71-1.65.46-.28.92-.41,1.37-.41.73,0,1.4.44,2.01,1.33s.92,1.85.92,2.88c0,1.89-1.04,3.71-3.11,5.45-4.33,3.69-9.58,5.54-15.75,5.54-4.88,0-8.8-1.38-11.76-4.14-2.96-2.76-4.44-6.4-4.44-10.92v-21.14c0-.7-.08-1.14-.25-1.3-.17-.17-.6-.25-1.3-.25h-4.71c-.89,0-1.45-.14-1.69-.43-.24-.29-.37-.97-.37-2.04v-2.01c.03-.92.38-1.59,1.05-2.01l20.96-13.18c.52-.28,1.16-.41,1.92-.41h3.71c.76,0,1.27.18,1.53.53.26.35.39,1.04.39,2.08v6.18c0,.92.14,1.51.43,1.79.29.28.91.41,1.85.41h8.47c1.13,0,1.86.21,2.2.62.33.41.5,1.29.5,2.63v2.7c0,1.46-.21,2.48-.64,3.04-.43.56-1.21.85-2.33.85h-8.28c-.85,0-1.43.15-1.74.46s-.46.88-.46,1.74Z"/><path class="cls-1" d="m158.35,58.75c5.31,0,9.81,1.34,13.5,4.03,1.95,1.44,3.32,3.07,4.1,4.92.78,1.85,1.17,4.39,1.17,7.62l-.09,6.82c0,4.73.33,7.79,1.01,9.2.33.67.66,1.1.96,1.28s.95.35,1.92.5c.98.15,1.46.79,1.46,1.92,0,1.46-.59,2.99-1.76,4.58-1.17,1.59-2.69,2.91-4.55,3.98-2.29,1.34-4.68,2.01-7.19,2.01-3.2,0-5.74-1.1-7.6-3.29-.64-.79-1.24-1.19-1.79-1.19-.61,0-1.42.38-2.43,1.14-3.05,2.23-6.51,3.34-10.39,3.34s-7.23-.86-9.7-2.56c-1.62-1.13-2.9-2.6-3.84-4.42-.95-1.81-1.42-3.71-1.42-5.7,0-3.17,1.28-5.98,3.84-8.42,4-3.84,9.98-5.78,17.94-5.81,1.77,0,2.88-.18,3.34-.53.46-.35.69-1.17.69-2.45,0-3.23-.34-5.58-1.01-7.03-.67-1.45-1.77-2.17-3.3-2.17-.92,0-1.73.27-2.45.82-.72.55-1.61,1.55-2.68,3.02-2.72,3.88-5.55,5.81-8.51,5.81-1.5,0-2.72-.44-3.66-1.33-.95-.88-1.42-2.04-1.42-3.48s.59-2.93,1.76-4.39c1.17-1.46,2.77-2.75,4.78-3.84,5.52-2.93,11.29-4.39,17.3-4.39Zm-3.07,26.5c-1.34,0-2.51.55-3.5,1.65-.99,1.1-1.49,2.41-1.49,3.94s.35,2.65,1.05,3.55c.7.9,1.63,1.35,2.79,1.35,2.44,0,3.66-2.06,3.66-6.18,0-1.68-.18-2.81-.53-3.39-.35-.58-1.01-.88-1.99-.92Z"/><path class="cls-1" d="m206.72,59.07c1.62,0,2.6.23,2.95.69.35.46.66,1.92.94,4.39.15,1.34.62,2.01,1.42,2.01.61,0,1.19-.44,1.74-1.33,2.44-3.81,5.63-5.72,9.57-5.72,2.78,0,5.05.9,6.82,2.7.85.88,1.56,2.02,2.11,3.41.55,1.39.82,2.72.82,4,0,1.44-.34,2.91-1.01,4.42-.67,1.51-1.54,2.75-2.61,3.73-1.95,1.86-4.35,2.79-7.19,2.79-1.56,0-2.86-.28-3.91-.82s-2.43-1.66-4.14-3.34c-.64-.64-1.24-.96-1.79-.96-.85,0-1.41.48-1.67,1.44-.26.96-.39,2.98-.39,6.06,0,4.61.17,7.75.5,9.43.21.91.51,1.55.89,1.9.38.35,1.2.71,2.45,1.08,2.75.82,4.12,2.26,4.12,4.3,0,1.25-.44,2.34-1.33,3.27-.89.93-2.06,1.55-3.52,1.85-2.93.61-7.23.92-12.91.92s-9.5-.47-12.31-1.42c-2.5-.85-3.75-2.33-3.75-4.44,0-1.59.92-3,2.75-4.26.88-.58,1.5-1.11,1.83-1.58.33-.47.56-1.12.69-1.95.49-2.78.73-7.92.73-15.42,0-1.37-.15-2.36-.46-2.95-.31-.59-.92-1.07-1.83-1.44-2.17-.85-3.25-2.09-3.25-3.71,0-1.46.75-2.72,2.24-3.78s4-2.1,7.51-3.14c4.7-1.4,8.7-2.12,11.99-2.15Z"/><path class="cls-1" d="m264.03,70.79v15.47c0,1.83.45,3.33,1.35,4.48.9,1.16,2.05,1.74,3.46,1.74,1.19,0,2.76-.55,4.71-1.65.46-.28.92-.41,1.37-.41.73,0,1.4.44,2.01,1.33.61.88.92,1.85.92,2.88,0,1.89-1.04,3.71-3.11,5.45-4.33,3.69-9.58,5.54-15.74,5.54-4.88,0-8.8-1.38-11.76-4.14-2.96-2.76-4.44-6.4-4.44-10.92v-21.14c0-.7-.08-1.14-.25-1.3-.17-.17-.6-.25-1.3-.25h-4.71c-.88,0-1.45-.14-1.69-.43-.24-.29-.37-.97-.37-2.04v-2.01c.03-.92.38-1.59,1.05-2.01l20.96-13.18c.52-.28,1.16-.41,1.92-.41h3.71c.76,0,1.27.18,1.53.53.26.35.39,1.04.39,2.08v6.18c0,.92.14,1.51.43,1.79.29.28.91.41,1.85.41h8.47c1.13,0,1.86.21,2.2.62.33.41.5,1.29.5,2.63v2.7c0,1.46-.21,2.48-.64,3.04-.43.56-1.21.85-2.33.85h-8.28c-.85,0-1.43.15-1.74.46-.31.3-.46.88-.46,1.74Z"/><path class="cls-2" d="m287.25,30.65c6.83,14.01-.17,36.28-1.35,36.41-.92.1.38-10.82-7.78-23.38-7.1-10.94-27.22-19.98-16.74-27.35,9.78-6.88,19.04.32,25.88,14.32Z"/></svg>