<?xml version="1.0" encoding="UTF-8"?><svg id="Layer_1" xmlns="http://www.w3.org/2000/svg" viewBox="0 0 1920 1080"><defs><style>.cls-1{fill:#999;}.cls-1,.cls-2,.cls-3,.cls-4,.cls-5,.cls-6,.cls-7,.cls-8,.cls-9,.cls-10,.cls-11,.cls-12,.cls-13,.cls-14,.cls-15,.cls-16,.cls-17,.cls-18,.cls-19,.cls-20,.cls-21,.cls-22,.cls-23,.cls-24{stroke-width:0px;}.cls-2{fill:#707070;}.cls-3{fill:#85b0df;}.cls-4{fill:#4d4d4d;}.cls-5{fill:#666;}.cls-6{fill:#bad4ef;}.cls-7{fill:#d6d7d7;}.cls-8{fill:#9cbfe6;}.cls-9{fill:#e6e6e6;}.cls-11{fill:#bdbebe;}.cls-12{fill:#6ca2d8;}.cls-13{fill:#754c24;}.cls-14{fill:#f6d87b;}.cls-15{fill:gray;}.cls-16{fill:#b3b3b3;}.cls-17{fill:#333;}.cls-18{fill:#ccc;}.cls-19{fill:#3e66ae;}.cls-20{fill:#e9af4a;}.cls-21{fill:#d38431;}.cls-22{fill:#f2f2f2;}.cls-23{fill:#c69c6d;}.cls-24{fill:#d7ecfb;}</style></defs><rect class="cls-24" x=".25" y=".33" width="1920" height="750"/><rect class="cls-12" x="-.25" y="1.33" width="1920" height="128"/><rect class="cls-3" x="-.25" y="129.33" width="1920" height="132"/><rect class="cls-8" x="-.25" y="261.33" width="1920" height="148"/><rect class="cls-6" x="-.25" y="409.33" width="1920" height="149"/><rect class="cls-24" x="-.25" y="558.33" width="1920" height="191"/><rect class="cls-15" x=".5" y="739.5" width="1920" height="341"/><rect class="cls-9" x="117.5" y="130.5" width="189" height="678"/><polygon class="cls-22" points="306.5 130.5 117.5 130.5 129.5 121.5 306.5 120.5 306.5 130.5"/><rect class="cls-22" x="306.5" y="120.5" width="10" height="678"/><polygon class="cls-22" points="1614.5 795.3 1468.93 795.3 1454.5 16.09 1468.93 7.5 1614.5 7.5 1614.5 795.3"/><rect class="cls-9" x="1454.5" y="16.03" width="145.57" height="782.47"/><polygon class="cls-17" points="1173.5 794.5 1110.72 794.5 1104.5 63.55 1110.72 55.5 1173.5 55.5 1173.5 794.5"/><rect class="cls-10" x="1104.5" y="63.5" width="62.78" height="734"/><rect class="cls-22" x="723.5" y="125.39" width="225" height="621.96"/><polygon class="cls-22" points="948.5 125.39 723.5 125.39 746.5 30.65 758.5 19.5 913.5 19.5 948.5 125.39"/><rect class="cls-9" x="711.5" y="136.54" width="225" height="621.96"/><polygon class="cls-9" points="936.5 136.54 711.5 136.54 746.5 30.65 901.5 30.65 936.5 136.54"/><polygon class="cls-18" points="488.5 791.5 369.5 791.5 369.5 168.5 488.5 306.5 488.5 791.5"/><polygon class="cls-9" points="383.5 168.5 369.5 168.5 488.5 307 488.5 791.5 498.5 784.5 498.5 302.5 383.5 168.5"/><path class="cls-7" d="m720.5,189.5l-105,123v463h267V189.5h-162Zm127,549h-198v-96h198v96Zm0-140h-198v-96h198v96Zm0-139h-198v-96h198v96Zm1-139h-198l79-96h119v96Z"/><path class="cls-18" d="m705.5,206.5l-105,123v463h267V206.5h-162Zm127,549h-198v-96h198v96Zm0-140h-198v-96h198v96Zm0-139h-198v-96h198v96Zm1-139h-198l79-96h119v96Z"/><polygon class="cls-16" points="537.5 333.5 523.5 333.5 630.48 457.48 630.5 457.47 630.5 890.5 640.5 884.23 640.5 452.5 537.5 333.5"/><polygon class="cls-1" points="630.5 890.5 523.5 890.5 523.5 333.5 630.5 456.88 630.5 890.5"/><polygon class="cls-9" points="1318.5 141.6 1318.5 107.5 1296.5 107.5 1296.5 83.5 1278.86 83.5 1270.5 89.5 1277.66 107.5 1265.12 107.5 1252.5 118.5 1262.15 163.64 1206.5 185.4 1190.5 207.5 1206.5 750.5 1441.5 750.5 1441.5 93.5 1318.5 141.6"/><polygon class="cls-18" points="1307.5 161.94 1307.5 118.5 1289.5 118.5 1289.5 89.5 1270.5 89.5 1270.5 118.5 1252.5 118.5 1252.5 183.13 1190.5 207 1190.5 763.5 1425.5 763.5 1425.5 116.5 1307.5 161.94"/><rect class="cls-9" x="1755.5" y="249.5" width="147" height="517"/><polygon class="cls-9" points="1851.5 197.5 1832.5 197.5 1826.5 174.5 1832.5 168.5 1851.5 168.5 1851.5 197.5"/><polygon class="cls-9" points="1880.5 195.5 1779.5 195.5 1767.5 203.5 1755.5 249.5 1902.5 249.5 1880.5 195.5"/><rect class="cls-18" x="1743.5" y="257.5" width="147" height="517"/><rect class="cls-18" x="1826.5" y="174.5" width="19" height="29"/><polygon class="cls-18" points="1868.5 203.5 1767.5 203.5 1743.5 257.5 1890.5 257.5 1868.5 203.5"/><polygon class="cls-18" points="214.38 298.5 167.7 298.5 167.7 269.5 137.5 269.5 130.5 278.5 130.5 298.5 65.5 298.5 47.5 307.5 20.5 352.5 20.5 880.5 248.5 880.5 248.5 352.5 214.38 298.5"/><polygon class="cls-16" points="204.38 307.5 159.7 307.5 159.7 278.5 130.23 278.5 130.23 307.5 47.5 307.5 10.5 361.5 10.5 889.5 238.5 889.5 238.5 361.5 204.38 307.5"/><polygon class="cls-22" points="1070.85 235.5 1054.5 239.5 976.2 326.5 976.5 326.5 976.5 738.5 1165.5 738.5 1165.5 326.5 1070.85 235.5"/><polygon class="cls-9" points="1054.85 239.5 960.2 330.5 960.5 330.5 960.5 742.5 1149.5 742.5 1149.5 330.5 1054.85 239.5"/><polygon class="cls-15" points="321.5 458.5 300.5 462.5 215.35 554.5 385.5 554.5 385.5 950.5 395.5 952.5 417.5 943.5 417.5 554.5 321.5 458.5"/><polygon class="cls-5" points="395.35 557.5 300.5 462.5 206.35 557.5 206.5 557.5 206.5 952.5 395.5 952.5 395.5 557.5 395.35 557.5"/><polygon class="cls-11" points="1653.37 293.5 1634.81 299.74 1578.24 392.43 1578.48 392.43 1578.48 844.17 1709.76 859.5 1728.5 844.17 1728.5 392.43 1653.37 293.5"/><polygon class="cls-16" points="1634.63 299.89 1559.5 401.13 1559.74 401.13 1559.74 859.5 1709.76 859.5 1709.76 401.13 1634.63 299.89"/><path class="cls-15" d="m1902.66,367.5l-20.16,17-64,95.3v422.7h214V367.5h-129.84Zm101.79,501.22h-158.7v-87.65h158.7v87.65Zm0-127.82h-158.7v-87.65h158.7v87.65Zm0-126.9h-158.7v-87.65h158.7v87.65Zm.8-126.9h-158.7l63.32-87.65h95.38v87.65Z"/><path class="cls-5" d="m1882.66,384.5l-84.16,112.3v422.7h214V384.5h-129.84Zm101.79,501.22h-158.7v-87.65h158.7v87.65Zm0-127.82h-158.7v-87.65h158.7v87.65Zm0-126.9h-158.7v-87.65h158.7v87.65Zm.8-126.9h-158.7l63.32-87.65h95.38v87.65Z"/><polygon class="cls-16" points="1255.5 855.5 1100.5 855.5 1090.5 373.5 1100.5 363.5 1255.5 363.5 1255.5 855.5"/><rect class="cls-1" x="1090.5" y="373.5" width="155" height="492"/><polygon class="cls-1" points="1370.5 469.5 1343.5 469.5 1343.5 450.5 1324.5 450.5 1317.5 457.5 1324.09 469.5 1269.5 469.5 1258.5 479.5 1245.5 510.75 1245.5 898.5 1381.5 907.5 1392.5 898.5 1392.5 510.75 1370.5 469.5"/><polygon class="cls-15" points="1359.5 479.25 1336.5 479.25 1336.5 457.5 1317.5 457.5 1317.5 479.25 1258.5 479.25 1234.5 519.75 1234.5 907.5 1381.5 907.5 1381.5 519.75 1359.5 479.25"/><path class="cls-2" d="m1852.13,599.5l-162.14-173.96-.09-.17-345.01,174.13h-10.39l-11,6,11,75,309,3.57v255.43h-13l-11,6,11,29,85,6,11-6v-35h-14v-254.63l141,1.63,11-6v-81h-12.37Zm-466.1,0l257.47-129.94v129.94h-257.47Zm326.47,0v-127.81l119.13,127.81h-119.13Z"/><path class="cls-4" d="m1853.5,686.5v-81h-12.37l-162.14-173.96-.09-.17-345.01,174.13h-10.39v81h309v259h-13v35h96v-35h-14v-259h152Zm-152-81v-127.81l119.13,127.81h-119.13Zm-334.32,0l265.32-133.9v133.9h-265.32Z"/><polygon class="cls-5" points="973.53 583.71 973.5 462.68 904.67 402.41 886.65 409.55 869.05 427.94 869.05 405.83 847.63 405.83 840.99 411.68 847.63 449.69 848.24 449.69 835.97 462.52 835.81 462.52 835.81 583.71 785.32 703.75 785.32 951.28 1004.68 962.5 1022.5 951.28 1022.5 703.75 973.53 583.71"/><polygon class="cls-4" points="955.72 590.85 955.69 469.82 886.65 409.64 862.25 430.91 862.15 411.68 840.99 411.68 840.96 449.47 817.61 469.82 818 590.85 767.5 710.89 767.5 962.5 1004.68 962.5 1004.68 710.89 955.72 590.85"/><polygon class="cls-23" points="634.39 881.79 616.12 866.36 626.76 853.67 645.03 869.09 634.39 881.79"/><path class="cls-10" d="m110.34,50.03c17.65,0,26.47,5.03,26.47,15.1,0,2.73-.45,4.96-1.36,6.67-.91,1.72-2.63,3.63-5.17,5.73-2.21,1.87-3.61,4.33-4.2,7.37-.59,3.04-.89,9.21-.89,18.49,0,5.46.73,8.82,2.21,10.06.85.78,2.13,1.25,3.86,1.4,1.72.16,5.78.23,12.17.23,5.82,0,9.44-.43,10.86-1.29,1.41-.86,2.12-3,2.12-6.44,0-10.3-.34-17.48-1.02-21.53-.68-4.06-2.01-6.83-3.99-8.31-2.49-1.95-4.13-3.61-4.92-4.97-.79-1.36-1.19-3.18-1.19-5.44,0-3.2.88-6.1,2.63-8.72,1.75-2.61,4.04-4.39,6.87-5.32,5.88-1.95,13.26-2.93,22.14-2.93,10.41,0,18.08,1.31,23.03,3.92,4.95,2.61,7.42,6.69,7.42,12.23,0,4.68-1.75,8.19-5.26,10.53-2.21,1.4-3.65,2.75-4.33,4.04-.68,1.29-1.22,3.69-1.61,7.2-.23,1.95-.51,10.61-.85,25.98-.34,15.37-.51,27.58-.51,36.63,0,15.84.42,25.9,1.27,30.19.45,2.34.96,3.9,1.53,4.68.56.78,2.35,2.34,5.34,4.68,2.15,1.64,3.22,4.14,3.22,7.49,0,5.93-2.56,10.24-7.68,12.93-5.12,2.69-13.42,4.04-24.9,4.04-10.07,0-17.5-1.37-22.31-4.1-4.36-2.5-6.53-6.36-6.53-11.59,0-4.45,1.67-7.92,5-10.42,1.64-1.25,2.76-2.5,3.35-3.74.59-1.25,1.17-3.55,1.74-6.9,1.02-6.55,1.53-14.59,1.53-24.11,0-4.92-.52-7.96-1.57-9.13-1.05-1.17-3.77-1.76-8.19-1.76-10.12,0-16.57.78-19.34,2.34-1.13.63-1.84,2.46-2.12,5.5-.34,3.74-.51,8.35-.51,13.81,0,8.89.9,15.29,2.71,19.19.62,1.25,2.09,2.85,4.41,4.8,2.38,1.87,3.56,4.96,3.56,9.25,0,5.46-2.74,9.64-8.23,12.52-5.49,2.89-13.32,4.33-23.5,4.33-9.28,0-16.85-1.33-22.74-3.98-2.54-1.17-4.54-2.83-5.98-4.97-1.44-2.14-2.16-4.51-2.16-7.08s.45-4.56,1.36-5.97c.9-1.4,2.88-3.2,5.94-5.38,1.58-1.09,2.7-2.5,3.35-4.21.65-1.72,1.15-4.6,1.48-8.66.85-9.13,1.27-21.07,1.27-35.81,0-2.73-.03-5.97-.08-9.71-.23-18.72-.34-29.41-.34-32.07.06-6.71-.35-11.14-1.23-13.28-.88-2.15-3.18-4.51-6.91-7.08-2.49-1.64-3.73-4.1-3.73-7.37,0-7.88,5.54-13.34,16.63-16.38,6.45-1.79,13.06-2.69,19.85-2.69Z"/><path class="cls-10" d="m287,49.33c14.53,0,27.23,5.73,38.09,17.2,7.35,7.88,13.32,18.1,17.9,30.66,4.47,12.48,6.7,24.97,6.7,37.45,0,18.41-4.41,34.87-13.23,49.39-7.47,12.33-17.22,21.18-29.27,26.57-7.41,3.28-14.84,4.92-22.31,4.92-9.78,0-19.14-2.81-28.08-8.43-10.8-6.79-19.26-17.05-25.36-30.78-5.94-13.26-8.91-27.89-8.91-43.89,0-18.57,3.82-34.95,11.45-49.15,6.79-12.64,15.92-21.92,27.4-27.85,7.69-4.06,16.23-6.09,25.62-6.09Zm-8.06,33.59c-4.75,0-8.51,2.93-11.28,8.78-2.15,4.37-3.22,9.56-3.22,15.56,0,8.82,1.3,19.02,3.9,30.6,2.6,11.59,5.88,21.87,9.84,30.84,1.75,3.82,3.92,6.87,6.49,9.13,2.57,2.26,5.19,3.39,7.85,3.39,4.3,0,7.76-2.22,10.39-6.67,2.63-4.45,3.94-10.3,3.94-17.55,0-9.44-1.1-19.62-3.31-30.54-2.21-10.92-5.06-20.25-8.57-27.97-2.15-4.76-4.64-8.5-7.47-11.23-2.83-2.73-5.68-4.17-8.57-4.33Z"/><path class="cls-10" d="m449.74,163.9l-10.18,31.48c-1.75,5.31-3.17,8.88-4.24,10.71-1.08,1.83-2.26,2.75-3.56,2.75s-2.35-.74-3.31-2.22c-.62-.94-2.05-4.37-4.28-10.3-2.24-5.93-4.09-11.19-5.56-15.8l-11.2-34.76c-1.53-4.84-3.14-7.26-4.83-7.26-1.81,0-2.8,2.07-2.97,6.2-.4,9.21-.59,17.71-.59,25.51s.28,13.62.85,16.5c.4,1.72.92,2.97,1.57,3.75.65.78,2.42,2.19,5.3,4.21,1.87,1.33,2.8,3.63,2.8,6.9,0,8.74-8.12,13.11-24.35,13.11-13.69,0-20.53-4.25-20.53-12.76,0-2.18.35-3.76,1.06-4.74.71-.97,2.53-2.44,5.47-4.39,1.87-1.17,3.12-2.77,3.78-4.8.65-2.03,1.2-5.97,1.65-11.82.51-6.24.99-16.48,1.44-30.72.45-14.24.68-26.43.68-36.57,0-12.72-.71-21.34-2.12-25.86-.51-1.56-1.09-2.73-1.74-3.51-.65-.78-1.88-1.79-3.69-3.04-4.02-2.65-6.02-6.09-6.02-10.3,0-2.73.75-5.23,2.25-7.49,1.5-2.26,3.49-3.86,5.98-4.8,2.49-1.01,5.81-1.89,9.97-2.63,4.16-.74,7.68-1.11,10.56-1.11,7.24,0,12.36.82,15.35,2.46,1.47.78,2.63,1.83,3.48,3.16.85,1.33,2.06,4.06,3.65,8.19l17.65,44.82c1.92,4.92,3.25,7.92,3.99,9.01.73,1.09,1.75,1.64,3.05,1.64,1.13,0,2.13-.58,3.01-1.76s1.91-3.35,3.1-6.55l11.96-32.18c1.47-4.13,2.43-6.83,2.88-8.08,2.77-7.8,5.51-12.99,8.23-15.56,3.45-3.35,9.73-5.03,18.83-5.03,16,0,24.01,5.03,24.01,15.1,0,2.26-.31,4.08-.93,5.44-.62,1.37-1.9,3.02-3.82,4.97-2.6,2.73-4.24,6.67-4.92,11.82-1.3,10.77-1.95,23.87-1.95,39.32,0,19.9.68,37.33,2.04,52.31.34,3.67.86,6.16,1.57,7.49.71,1.33,2.53,3.32,5.47,5.97,2.04,1.87,3.05,4.37,3.05,7.49,0,5.46-2.63,9.32-7.89,11.59-2.71,1.25-5.57,2.07-8.57,2.46-3,.39-7.61.58-13.83.58-9.56,0-16.68-.94-21.38-2.81-5.2-2.11-7.8-5.69-7.8-10.77,0-1.87.34-3.41,1.02-4.62.68-1.21,2.43-3.41,5.26-6.61,1.47-1.64,2.47-4.8,3.01-9.48.54-4.68.81-12.64.81-23.87,0-6.24-.21-10.34-.64-12.29-.42-1.95-1.32-2.93-2.67-2.93-1.58,0-3.11,1.5-4.58,4.51-1.47,3-3.68,8.99-6.62,17.96Z"/><path class="cls-10" d="m545.54,52.6h43.6c8.82,0,15.25-.25,19.3-.76,4.04-.51,7.99-1.54,11.83-3.1,1.19-.47,2.12-.7,2.8-.7,2.94,0,5.54,2.19,7.8,6.55,3.73,7.1,5.6,15.68,5.6,25.75,0,5.07-.78,9.07-2.33,12-1.56,2.93-3.69,4.39-6.4,4.39-1.87,0-3.32-.53-4.37-1.58-1.05-1.05-2.45-3.41-4.2-7.08-2.49-5.23-5.64-8.72-9.46-10.47s-10.08-2.63-18.79-2.63c-6.5,0-10.46,1.6-11.88,4.8-.74,1.72-1.17,4.02-1.31,6.9-.14,2.89-.21,10.26-.21,22.12,0,4.68.57,7.59,1.7,8.72,1.13,1.13,4.1,1.7,8.91,1.7,2.38,0,4.1-.68,5.17-2.05,1.07-1.36,1.75-3.8,2.04-7.31.39-4.52.81-7.62,1.23-9.3.42-1.68,1.2-3.14,2.33-4.39,1.19-1.4,2.57-2.11,4.16-2.11,2.32,0,4.3,1.52,5.94,4.56,1.19,2.26,2.19,6.26,3.01,12,.82,5.73,1.23,11.72,1.23,17.96,0,12.33-1.39,22.43-4.16,30.31-1.53,4.29-3.85,6.44-6.96,6.44-1.92,0-3.25-.68-3.99-2.05-.74-1.36-1.3-4.19-1.7-8.48-.85-8.82-4.58-13.22-11.2-13.22-2.54,0-4.28,1.11-5.22,3.34-.93,2.22-1.4,6.34-1.4,12.35,0,3.67.18,8.41.55,14.22.37,5.81.75,9.65,1.15,11.53.45,2.34,1.85,3.96,4.2,4.86,2.35.9,6.26,1.35,11.75,1.35,8.48,0,14.87-1.5,19.17-4.51,4.3-3,7.8-8.44,10.52-16.33,1.58-4.52,3.01-7.57,4.28-9.13,1.27-1.56,2.93-2.34,4.96-2.34,2.38,0,4.34,1.42,5.9,4.27,1.55,2.85,2.33,6.42,2.33,10.71,0,4.68-.88,10.53-2.63,17.55-1.75,7.02-3.9,13.26-6.45,18.72-1.3,2.65-2.38,4.43-3.22,5.32-.85.9-1.92,1.35-3.22,1.35-1.08,0-2.63-.23-4.67-.7-3.62-.94-8.46-1.52-14.51-1.76h-71.94c-2.88,0-5.12-.88-6.7-2.63-1.58-1.76-2.38-4.23-2.38-7.43,0-2.26.34-3.9,1.02-4.92.68-1.01,2.23-2.3,4.67-3.86,1.7-1.01,2.96-2.26,3.78-3.75.82-1.48,1.46-3.67,1.91-6.55,1.87-11.78,2.8-27.66,2.8-47.63,0-30.11-1.36-49.11-4.07-56.99-.57-1.56-1.19-2.65-1.87-3.28-.68-.62-2.09-1.36-4.24-2.22-3.22-1.33-4.83-4.29-4.83-8.89,0-2.5.54-4.72,1.61-6.67,1.07-1.95,2.49-3.24,4.24-3.86,2.21-.7,6.47-1.05,12.81-1.05Z"/><path class="cls-10" d="m859.05,212.23l-11.37.12c-7.97.16-13.8.39-17.48.7-3.28.39-5.63.58-7.04.58-3.45,0-6.19-1.21-8.23-3.63-1.98-2.42-2.97-5.3-2.97-8.66,0-2.18.37-3.9,1.1-5.15.73-1.25,2.52-3.2,5.34-5.85,1.64-1.56,2.77-4,3.39-7.31.62-3.32,1.3-10.43,2.04-21.36,1.07-17.01,1.61-37.96,1.61-62.84,0-9.13-.44-15.19-1.31-18.2-.88-3-2.93-5.48-6.15-7.43-3.73-2.18-5.6-5.38-5.6-9.6,0-3.43,1.12-6.24,3.35-8.43,2.23-2.18,5.1-3.28,8.61-3.28,1.92,0,4.38.12,7.38.35,4.98.31,10.35.47,16.12.47,4.24,0,12.58-.23,25.03-.7,3.9-.16,7.44-.23,10.6-.23,7.52,0,13.59.84,18.2,2.52,4.61,1.68,8.61,4.51,12,8.48,5.54,6.48,8.31,15.14,8.31,25.98,0,5.38-.82,10.63-2.46,15.74-1.64,5.11-3.85,9.19-6.62,12.23-1.98,2.19-2.97,4.17-2.97,5.97,0,1.95,1.19,3.59,3.56,4.92,4.64,2.57,8.85,6.9,12.64,12.99,3.9,6.32,5.85,14.24,5.85,23.76,0,11.23-2.97,21.49-8.91,30.78-7.86,12.25-19.48,18.37-34.87,18.37-2.09,0-7.24-.2-15.44-.59-7.46-.39-12.05-.62-13.74-.7Zm5.85-126.98v24.11c0,3.82.35,6.52,1.06,8.08.71,1.56,1.94,2.34,3.69,2.34,4.18,0,7.27-1.77,9.25-5.32,1.98-3.55,2.97-9.11,2.97-16.68s-1.02-13.01-3.05-17.03c-2.04-4.02-4.92-6.03-8.65-6.03-1.98,0-3.35.76-4.11,2.28-.76,1.52-1.14,4.27-1.14,8.25Zm0,67.41v11.12c0,10.22.54,17.01,1.61,20.36,1.07,3.36,3.25,5.03,6.53,5.03,8.6,0,12.89-6.94,12.89-20.83,0-17.32-4.81-25.98-14.42-25.98-2.49,0-4.21.74-5.17,2.22-.96,1.48-1.44,4.17-1.44,8.07Z"/><path class="cls-10" d="m1070.74,111.12v28.56c0,17.24-.93,29.45-2.8,36.63-4.02,15.14-12.84,26.1-26.47,32.89-8.26,4.21-17.59,6.32-27.99,6.32-18.15,0-32.69-5.97-43.6-17.91-5.32-5.85-8.99-12.64-11.03-20.36-2.04-7.72-3.05-18.88-3.05-33.47,0-5.69.14-15.06.42-28.09.17-9.2.25-15.29.25-18.26,0-6.47-.35-10.96-1.06-13.46-.71-2.5-2.25-4.84-4.62-7.02-3.73-3.35-5.6-7.1-5.6-11.23,0-3.04.95-5.73,2.84-8.08,1.89-2.34,4.4-3.94,7.51-4.8,6.22-1.72,13.57-2.57,22.06-2.57,9.33,0,17.08.98,23.24,2.93,6.05,1.87,9.08,6.13,9.08,12.76,0,3.28-.88,5.89-2.63,7.84-.4.47-2.09,1.68-5.09,3.63-1.81,1.09-3.04,3.08-3.69,5.97-.65,2.89-.98,7.65-.98,14.28s-.23,21.46-.68,44c-.28,13.42,2.35,23.64,7.89,30.66,4.52,5.77,10.35,8.66,17.48,8.66,4.52,0,8.62-1.15,12.3-3.45,3.68-2.3,6.47-5.44,8.4-9.42,1.53-3.04,2.57-6.44,3.14-10.18.56-3.75.85-8.85.85-15.33v-25.75c-.28-19.74-.69-31.31-1.23-34.7-.54-3.39-2.36-6.07-5.47-8.02-2.94-1.79-4.95-3.43-6.02-4.92-1.07-1.48-1.61-3.32-1.61-5.5,0-4.68,2.02-8.09,6.07-10.24,4.04-2.15,10.53-3.22,19.47-3.22s15.11,1.05,19.04,3.16c3.93,2.11,5.9,5.46,5.9,10.06,0,2.26-.34,3.94-1.02,5.03-.68,1.09-2.46,2.77-5.34,5.03-3,2.34-4.71,4.86-5.13,7.55-.42,2.69-.69,12.7-.81,30.02Z"/><path class="cls-10" d="m1247.72,103.75v53.72c0,12.09.76,19.9,2.29,23.41,1.87,4.14,5.8,6.2,11.79,6.2,6.45,0,11.54-1.95,15.27-5.85,3.73-3.9,6.33-9.99,7.8-18.26.85-5.07,2.77-7.61,5.77-7.61s5.44,1.85,7.34,5.56c1.89,3.71,2.84,8.52,2.84,14.45,0,9.67-2.6,20.01-7.8,31.01-1.64,3.51-3.08,5.91-4.33,7.2-1.24,1.29-2.74,1.93-4.5,1.93l-18.83-3.16h-59.3c-3.9,0-6.65-.62-8.23-1.87-2.32-1.79-3.48-4.49-3.48-8.07,0-2.18.38-3.8,1.15-4.86.76-1.05,2.62-2.55,5.56-4.51,3.22-2.11,5.29-5.07,6.19-8.89.73-3.2,1.1-12.52,1.1-27.97,0-7.18-.14-17.51-.42-31.01-.28-12.95-.45-22.7-.51-29.26,0-6.24-.35-10.51-1.06-12.81-.71-2.3-2.19-3.96-4.45-4.97-3.73-1.79-6.11-3.24-7.13-4.33-1.81-1.95-2.71-4.17-2.71-6.67,0-5.69,3.42-10.02,10.26-12.99,5.82-2.57,13.63-3.86,23.41-3.86,10.97,0,19.17.78,24.6,2.34,7.01,2.11,10.52,6.32,10.52,12.64,0,2.57-.47,4.49-1.4,5.73-.93,1.25-3.21,2.93-6.83,5.03-2.15,1.33-3.51,3.59-4.07,6.79-.57,3.2-.85,10.18-.85,20.95Z"/><path class="cls-10" d="m1347.35,212.35h-6.11c-3.56,0-7.55.23-11.96.7-2.77.31-4.69.47-5.77.47-3.79,0-6.87-1.21-9.25-3.63-2.38-2.42-3.56-5.58-3.56-9.48,0-2.73.52-4.86,1.57-6.38,1.05-1.52,2.76-2.75,5.13-3.69,2.26-.78,3.79-2.05,4.58-3.8.79-1.76,1.41-5.17,1.87-10.24.45-5.85.86-17.24,1.23-34.17.37-16.93.55-33.74.55-50.44,0-6.55-.37-10.92-1.1-13.11-.74-2.18-2.46-3.94-5.17-5.27-3.9-2.03-5.85-5.5-5.85-10.42,0-3.82,1.34-6.81,4.03-8.95,2.69-2.15,6.43-3.22,11.24-3.22,1.58,0,3.45.04,5.6.12,4.75.23,8.2.35,10.35.35,8.09,0,17.22-.35,27.4-1.05,2.15-.16,4.84-.23,8.06-.23,12.95,0,23.19,2.03,30.71,6.09,11.2,6.09,19.62,16.31,25.28,30.66,5.03,12.64,7.55,27.7,7.55,45.17,0,8.82-.93,17.65-2.8,26.51-1.87,8.86-4.38,16.52-7.55,23-6.56,13.11-15.61,22.31-27.15,27.62-6.79,3.12-14.03,4.68-21.72,4.68l-10.26-.47-8.82-.35c-6.84-.31-12.87-.47-18.07-.47Zm17.81-126.86v90.58c0,4.92.76,8.41,2.29,10.47,1.53,2.07,4.07,3.1,7.63,3.1,16.51,0,24.77-17.32,24.77-51.96,0-19.11-1.92-33.94-5.77-44.47-4.24-11.62-11.42-17.44-21.55-17.44-2.71,0-4.62.74-5.73,2.22-1.1,1.48-1.65,3.98-1.65,7.49Z"/><path class="cls-10" d="m1477.43,52.6h43.6c8.82,0,15.25-.25,19.3-.76,4.04-.51,7.99-1.54,11.83-3.1,1.19-.47,2.12-.7,2.8-.7,2.94,0,5.54,2.19,7.8,6.55,3.73,7.1,5.6,15.68,5.6,25.75,0,5.07-.78,9.07-2.33,12-1.56,2.93-3.69,4.39-6.4,4.39-1.87,0-3.32-.53-4.37-1.58-1.05-1.05-2.45-3.41-4.2-7.08-2.49-5.23-5.64-8.72-9.46-10.47s-10.08-2.63-18.79-2.63c-6.5,0-10.46,1.6-11.88,4.8-.74,1.72-1.17,4.02-1.32,6.9-.14,2.89-.21,10.26-.21,22.12,0,4.68.56,7.59,1.7,8.72,1.13,1.13,4.1,1.7,8.91,1.7,2.38,0,4.1-.68,5.17-2.05,1.07-1.36,1.75-3.8,2.04-7.31.4-4.52.81-7.62,1.23-9.3.42-1.68,1.2-3.14,2.33-4.39,1.19-1.4,2.57-2.11,4.16-2.11,2.32,0,4.3,1.52,5.94,4.56,1.19,2.26,2.19,6.26,3.01,12,.82,5.73,1.23,11.72,1.23,17.96,0,12.33-1.39,22.43-4.16,30.31-1.53,4.29-3.85,6.44-6.96,6.44-1.92,0-3.25-.68-3.99-2.05-.74-1.36-1.3-4.19-1.7-8.48-.85-8.82-4.58-13.22-11.2-13.22-2.54,0-4.28,1.11-5.22,3.34-.93,2.22-1.4,6.34-1.4,12.35,0,3.67.18,8.41.55,14.22.37,5.81.75,9.65,1.15,11.53.45,2.34,1.85,3.96,4.2,4.86,2.35.9,6.26,1.35,11.75,1.35,8.48,0,14.87-1.5,19.17-4.51,4.3-3,7.8-8.44,10.52-16.33,1.58-4.52,3.01-7.57,4.28-9.13,1.27-1.56,2.93-2.34,4.96-2.34,2.38,0,4.34,1.42,5.9,4.27,1.55,2.85,2.33,6.42,2.33,10.71,0,4.68-.88,10.53-2.63,17.55s-3.9,13.26-6.45,18.72c-1.3,2.65-2.38,4.43-3.22,5.32-.85.9-1.92,1.35-3.22,1.35-1.07,0-2.63-.23-4.67-.7-3.62-.94-8.46-1.52-14.51-1.76h-71.94c-2.88,0-5.12-.88-6.7-2.63-1.58-1.76-2.38-4.23-2.38-7.43,0-2.26.34-3.9,1.02-4.92.68-1.01,2.23-2.3,4.67-3.86,1.7-1.01,2.96-2.26,3.78-3.75.82-1.48,1.46-3.67,1.91-6.55,1.87-11.78,2.8-27.66,2.8-47.63,0-30.11-1.36-49.11-4.07-56.99-.57-1.56-1.19-2.65-1.87-3.28-.68-.62-2.09-1.36-4.24-2.22-3.22-1.33-4.84-4.29-4.84-8.89,0-2.5.54-4.72,1.61-6.67,1.07-1.95,2.49-3.24,4.24-3.86,2.21-.7,6.48-1.05,12.81-1.05Z"/><path class="cls-10" d="m1644.07,145.17c-2.15,0-3.52.9-4.11,2.69-.59,1.8-.89,5.97-.89,12.52,0,9.91.45,17.63,1.36,23.17.28,1.56.71,2.77,1.27,3.63.56.86,1.64,1.91,3.22,3.16,3.39,2.57,5.09,5.97,5.09,10.18,0,5.15-2.36,8.8-7.08,10.94-4.72,2.15-12.71,3.22-23.96,3.22-20.93,0-31.39-5.46-31.39-16.38,0-1.87.31-3.37.93-4.51.62-1.13,2.04-2.71,4.24-4.74,2.49-2.26,4.17-4.93,5.05-8.02.88-3.08,1.48-8.41,1.82-15.97.28-5.54.42-25.4.42-59.57,0-10.84-.4-18.22-1.19-22.12-.79-3.9-2.49-6.75-5.09-8.54-2.49-1.64-4.16-3.14-5.01-4.51-.85-1.36-1.27-3.14-1.27-5.32,0-2.89.81-5.4,2.42-7.55,1.61-2.15,3.86-3.73,6.74-4.74,2.43-.86,5.77-1.29,10.01-1.29,1.87,0,6.53.39,14,1.17,1.41.16,3.65.23,6.7.23,5.09,0,11.88-.47,20.36-1.4,5.37-.54,9.13-.82,11.28-.82,12.1,0,22.11,4.02,30.03,12.05,7.12,7.26,10.69,17.32,10.69,30.19,0,7.18-1.25,13.71-3.73,19.6-2.49,5.89-5.91,10.32-10.26,13.28-1.81,1.25-2.71,2.73-2.71,4.45,0,2.26,1.38,4.1,4.16,5.5,5.94,2.97,10.29,7.45,13.06,13.46,2.77,6.01,4.75,15.21,5.94,27.62.51,5.15,1.24,8.48,2.21,10.01.96,1.52,3.19,2.98,6.7,4.39,1.07.47,1.98,1.46,2.71,2.98.73,1.52,1.1,3.22,1.1,5.09,0,2.42-.68,4.86-2.04,7.31s-3.11,4.39-5.26,5.79c-4.75,3.04-11.25,4.56-19.51,4.56-11.03,0-18.92-4.02-23.67-12.05-2.15-3.59-3.97-8.11-5.47-13.58-1.5-5.46-3.27-13.96-5.3-25.51-1.3-7.41-2.96-12.64-4.96-15.68-2.01-3.04-4.88-4.68-8.61-4.92Zm-4.92-59.68l-.93,27.27v1.05c0,2.81.3,4.68.89,5.62s1.79,1.4,3.61,1.4c4.98,0,8.6-1.77,10.86-5.32,2.26-3.55,3.39-9.23,3.39-17.03,0-15.06-3.88-22.59-11.62-22.59-2.21,0-3.76.7-4.67,2.11-.91,1.4-1.41,3.9-1.53,7.49Z"/><path class="cls-10" d="m1783.4,49.33c5.82,0,13.46,1.99,22.9,5.97,1.13.47,2.04.7,2.71.7.56,0,2.26-.7,5.09-2.11.9-.47,1.87-.7,2.88-.7,3.79,0,7.79,4.14,12,12.4,4.21,8.27,6.32,16.15,6.32,23.64,0,4.37-.95,8.06-2.84,11.06-1.9,3-4.2,4.51-6.91,4.51-2.26,0-4.1-.62-5.51-1.87-1.41-1.25-4.53-4.95-9.33-11.12-6.79-8.74-13.46-13.11-20.02-13.11-3.17,0-5.7,1.05-7.59,3.16-1.9,2.11-2.84,4.88-2.84,8.31,0,6.79,4.33,11.9,12.98,15.33,11.71,4.76,19.2,8.23,22.48,10.42,14.42,9.67,21.63,23.91,21.63,42.72,0,16.62-4.92,30.19-14.76,40.73-10.07,10.77-23.22,16.15-39.45,16.15-7.24,0-14.88-1.19-22.9-3.57-8.03-2.38-13.83-5.17-17.39-8.37-2.71-2.5-5.16-7.94-7.34-16.33-2.18-8.39-3.27-16.56-3.27-24.52,0-3.82.56-6.71,1.7-8.66,1.41-2.5,3.19-3.74,5.34-3.74s4.21,1.52,6.19,4.56c1.19,1.72,3.99,7.22,8.4,16.5,2.09,4.37,5.41,8,9.97,10.88,4.55,2.89,9.26,4.33,14.12,4.33,4.18,0,7.58-1.07,10.18-3.22,2.6-2.15,3.9-4.9,3.9-8.25,0-3.12-1.02-5.81-3.05-8.08-2.04-2.26-5.34-4.37-9.93-6.32-8.09-3.51-14.25-6.73-18.49-9.65-4.24-2.93-8.2-6.61-11.88-11.06-8.94-10.92-13.4-23.33-13.4-37.22,0-6.86,1.16-13.56,3.48-20.07,2.32-6.51,5.6-12.15,9.84-16.91,9.5-11,21.09-16.5,34.78-16.5Z"/><polygon class="cls-20" points="1453.85 775.28 1460.86 779.2 1460.86 785.5 1514.5 785.5 1514.5 774.5 1460.5 774.5 1453.6 768.13 1454.5 773.5 1453.85 775.28"/><path class="cls-20" d="m1605.5,878.5v-162l-16,6.4h0s16-6.4,16-6.4l-30-30-41.83-41.83-15.62,26.38h0s14,14,14,14v6.45l-24.55-16.82-14,15.82,14,53-14.42-25-13.58,16,7,27,41-3-5,98-79-12v-59h13.09l-.09-6-6-4,1-3-1.23-7.44.48.44-3.25-3-14,16,14,129-22.46-105-15.54,18-14,22-15-19-14,16,9.66,43.62-15.66-37.62-71,82.17v114.83h286v16l30-14.4v-165.6s-16,0-16,0h0s16,0,16,0Zm-50.03,64.92l-16.97,98.08h-248l12-125,131,7,122.52-21.91-.55,41.84Z"/><polygon class="cls-20" points="1474.05 835.44 1475.87 831.81 1474.26 829.8 1469.28 828.48 1468.6 833.62 1465.88 834.53 1464.97 838.16 1453.37 844.52 1483.13 844.52 1481.31 838.16 1474.05 835.44"/><polygon class="cls-20" points="1462.25 833.62 1464.97 831.81 1467.69 825.45 1474.84 824.66 1478.59 820.91 1474.05 820.91 1471.33 817.28 1464.24 824.78 1454.98 827.27 1443.5 824.5 1443.5 844.5 1452.02 844.52 1462.25 837.25 1462.25 833.62"/><polygon class="cls-20" points="1460.86 785.5 1463.61 787.67 1467.69 795.49 1477.68 795.49 1483.13 805.48 1483.13 810.02 1484.94 811.83 1487.67 811.83 1491.3 811.83 1493.12 807.29 1496.75 807.29 1500.38 803.66 1500.52 800.94 1501.29 798.21 1503.07 796.4 1506.74 796.4 1502.2 798.46 1502.2 802.66 1499.47 809.11 1495.27 809.11 1492.95 813.65 1489.5 815.01 1487.4 816.27 1488.9 816.27 1493.12 818.19 1495.84 820 1495.84 825.45 1497.66 826.36 1506.74 822.73 1510.12 825.45 1513.34 827.27 1509.29 827.27 1506.74 824.54 1496.75 830.9 1492.8 827.72 1492.21 821.82 1489.48 820.91 1485.63 822.01 1478.92 827.85 1479.91 831.81 1478.59 833.62 1483.13 836.35 1484.7 844.52 1513.46 844.52 1513.46 785.5 1460.86 785.5"/><polygon class="cls-20" points="1467.22 818.11 1463.61 817.5 1463.15 810.02 1459.52 810.02 1458.61 807.29 1454.98 801.84 1459.52 805.48 1460.43 807.29 1464.06 806.33 1465.88 809.11 1465.16 813.65 1472.23 813.65 1475.87 817.28 1479.99 815.22 1477.68 810.02 1479.77 805.13 1476.77 798.21 1465.88 800.03 1461.34 788.22 1456.59 785.5 1443.5 785.5 1443.5 823.5 1454.98 824.54 1463.61 821.33 1467.22 818.11"/><polygon class="cls-20" points="1363.5 930.5 1362 932.53 1368.5 939.5 1369.5 935.5 1368.5 930.5 1372.5 928.5 1374.5 923.5 1360.5 923.5 1362.5 927.5 1363.5 930.5"/><polygon class="cls-20" points="1371.5 931.62 1372.5 936.5 1372.5 941.5 1387.5 938.5 1389.5 929.5 1397.5 928.5 1405.5 932.45 1405.5 923.5 1374.5 923.5 1374.5 929.97 1371.5 931.62"/><polygon class="cls-20" points="1397.5 930.5 1392.05 932.5 1391.56 941.5 1371.5 946.5 1371.5 954.5 1367.5 961.5 1372.5 973.5 1365.5 961.5 1367.5 954.5 1363.5 953.5 1359.5 949.5 1363.8 944.49 1362.5 943.92 1355.5 941.5 1347.5 936.5 1345.5 930.5 1339.5 928.5 1335.5 929.56 1335.5 993.5 1405.5 993.5 1405.5 932.48 1397.5 930.5"/><polygon class="cls-20" points="1347.5 929.5 1349.5 935.5 1356.5 939.5 1362.5 938.5 1363.23 938.23 1358.5 933.5 1360.5 929.5 1360.5 923.5 1354.64 923.5 1335.5 923.5 1335.5 929.56 1339.5 927.5 1347.5 929.5"/><polygon class="cls-20" points="1361.5 949.5 1363.5 952.5 1367.5 954.5 1366.5 944.5 1361.5 949.5"/><polygon class="cls-20" points="1009.53 1046.31 1028.99 1058.57 1223.29 997.79 1283.83 935.46 1272.87 919.1 1195.4 927.7 1186.66 941.73 1173.95 924.15 1159.32 907.41 1128.5 954.5 1157.18 930.13 1141.99 913.59 1114.2 936.39 1108.61 907.81 1091.8 890.52 1065.5 955.5 1063.43 941.99 1045.12 925.84 1034.5 940.5 1033.51 921.95 1014.2 905.14 988.5 953.68 1009.53 1046.31"/><polygon class="cls-21" points="1028.99 1058.57 1235.86 1011.61 1283.83 935.46 1208.86 943.78 1200.4 957.36 1173.95 924.15 1126.64 993.62 1157.18 930.13 1130.28 952.19 1108.61 907.81 1077.5 978.5 1063.43 941.99 1043.62 969.69 1033.51 921.95 1008.64 968.93 1028.99 1058.57"/><polygon class="cls-20" points="1052.38 977.6 1063.78 979.06 1064.93 973.65 1071.79 967.12 1060.41 961.95 1060.99 955.56 1042.39 983.27 1048.58 987.42 1049.23 984.15 1053.5 983.3 1052.38 977.6"/><polygon class="cls-20" points="1106.39 991.18 1104.5 987.33 1106.52 984.31 1103.47 977.88 1100.47 975.87 1097.12 985.43 1095.72 989.44 1091.92 986.88 1085.13 992.23 1082.27 996.49 1084.26 999.07 1076.95 997.54 1085.36 1013.42 1091.61 1017.61 1104.14 998.93 1107.73 992.08 1106.39 991.18"/><polygon class="cls-20" points="1092.5 984.5 1091.5 979.5 1091.5 976.5 1087.5 979.5 1088.5 976.5 1087.45 974.36 1082.08 973.23 1081.66 966.14 1080.07 969.41 1073.21 975.94 1072.05 981.35 1086.85 988.8 1092.5 984.5"/><polygon class="cls-20" points="1080.55 995.92 1078.56 993.35 1081.42 989.08 1066.63 981.63 1055.23 980.17 1056.36 985.88 1052.08 986.72 1051.44 990 1081.66 1010.27 1073.24 994.39 1080.55 995.92"/><polygon class="cls-20" points="1114.7 973.5 1107.84 972.63 1105.9 975.6 1108.95 982.03 1106.93 985.05 1108.81 988.9 1110.15 989.8 1106.56 996.65 1122.65 972.67 1121.47 971.88 1114.7 973.5"/><polygon class="cls-20" points="1217.71 965.46 1216.83 958.61 1211.54 957.87 1209.96 954.66 1210.29 952.54 1206.91 955.2 1207.04 952.97 1204.93 949.45 1201.06 947.22 1199.97 951.21 1197.36 960.72 1194.31 958.96 1192.62 961.98 1183.69 961.45 1179.43 963.61 1221.56 987.87 1230.3 972.69 1230.44 966.44 1219.04 962.19 1217.71 965.46"/><polygon class="cls-20" points="1251.37 939.57 1245.08 935.95 1244.67 939.18 1240.58 940.28 1242.05 945.75 1230.89 945.09 1230.13 950.42 1223.9 957.22 1235.3 961.48 1235.16 967.73 1251.37 939.57"/><polygon class="cls-20" points="1208.54 950.1 1211.92 947.44 1211.59 949.56 1213.17 952.77 1218.46 953.51 1219.34 960.37 1220.67 957.09 1226.89 950.29 1227.65 944.96 1212.79 938.71 1206.56 944.35 1208.67 947.87 1208.54 950.1"/><polygon class="cls-20" points="1089.78 958.21 1087.3 960.17 1089.26 962.65 1087.51 963.3 1088.71 969.53 1090.73 973.18 1093.5 973.5 1092.5 975.5 1094.5 982.5 1095.85 983.71 1097.16 979.79 1100.32 970.45 1103.27 972.38 1104.84 969.91 1104.84 969.91 1105.13 969.46 1114.01 970.5 1118.39 968.59 1087.74 948.5 1093.36 954.58 1090.59 955.15 1089.78 958.21"/><rect class="cls-20" x="1449.5" y="958.5" width="57" height="100"/><path class="cls-21" d="m1518.05,671.05v36.45l-24.55-16.82v68.82l-14-25-8,40h42v70h-70v-57.74l-10-8.26v145l-22.46-105-29.54,40-15-19-4.34,59.62-14.66-38.62-72,83.17v114.83h300v-180s0-150,0-150l-57.45-57.45Zm21.42,288.37l-20.22-3.14-6.6,37.27-2.19-37.66-30.68-2.82,25.21-6.23-36.23-19.13,43.87,12.13,27.39-22.27-18.86,28.51,18.31,13.32Zm-203.97,27.08v-63h70v63h-70Z"/><rect class="cls-20" x="1450.5" y="958.5" width="57" height="100"/><path class="cls-23" d="m474.7,677.57c0,61.58-56.77,145.98-101.37,145.98s-101.37-84.39-101.37-145.98,45.39-111.51,101.37-111.51,101.37,49.92,101.37,111.51Z"/><circle class="cls-17" cx="323.65" cy="694.81" r="10.14"/><circle class="cls-17" cx="419.96" cy="694.81" r="10.14"/><path class="cls-19" d="m427.98,775.9h-98.15c-50.44,0-91.33,40.89-91.33,91.33l6.08,212.79h61.85v-165.24h3.47v165.24s165.84,0,165.84,0l.03-164.22h43.52v-48.57c0-50.44-40.89-91.33-91.33-91.33Z"/><polygon class="cls-23" points="634.34 880.84 616.12 865.46 626.72 852.79 644.95 868.18 634.34 880.84"/><path class="cls-23" d="m678.93,821.36l-11.88-10.18c-2.74-2.35-6.79-2.36-9.55-.02l-12.48,10.59c-4.24,3.59-7.87,7.84-10.77,12.58l-14.77,26.48,17.68,15.15,25.19-19.73c3.39-2.87,6.3-6.26,8.62-10.04l9.43-15.39c1.89-3.08,1.26-7.08-1.48-9.43Z"/><rect class="cls-23" x="609.66" y="830.66" width="47.51" height="11.16" rx="4.55" ry="4.55" transform="translate(-262.81 1381.5) rotate(-84.17)"/><path class="cls-19" d="m530.54,975.39l.51-21.56c.06-2.4.98-4.69,2.6-6.46l76.74-83.59c3.51-3.82,9.38-4.28,13.44-1.06l10.22,8.12c4.02,3.19,4.93,8.92,2.1,13.2l-64.84,98.18c-11.45,16.69-29.05,7.33-36.94,1.23-2.49-1.93-3.92-4.92-3.84-8.07Z"/><path class="cls-19" d="m423.2,884.92l90.3-48.69,68.66,129.08-12.13,18.35c-10.11,14.27-24.34,15.23-35.42,7.22l-111.41-105.95Z"/><path class="cls-13" d="m470.69,651.9c-5.82,58.59-48.7,115.89-100.4,115.89s-88.51-57.3-94.32-115.89c-2.61,6.48-4.01,14.86-4.01,25.67,0,61.58,57.78,145.98,101.37,145.98s101.37-84.39,101.37-145.98c0-10.81-1.4-19.18-4.01-25.67Z"/><path class="cls-20" d="m474.7,655.27s-45.39,29.4-101.37,29.4-101.37-29.4-101.37-29.4c0,0,0-125.7,101.37-125.7s101.37,125.7,101.37,125.7Z"/><path class="cls-20" d="m474.7,655.27s-45.39-3.04-101.37-3.04-101.37,3.04-101.37,3.04c0,0,0-125.7,101.37-125.7s101.37,125.7,101.37,125.7Z"/><path class="cls-21" d="m397.92,652.23h-49.19c-3.09,0-5.5-2.7-5.13-5.78l13.98-117.4c.31-2.6,2.51-4.55,5.13-4.55h21.24c2.62,0,4.82,1.96,5.13,4.55l13.98,117.4c.37,3.07-2.03,5.78-5.13,5.78Z"/><path class="cls-14" d="m437.7,572.99c11.39,16.4,11.45,42.8,10.3,42.98-.9.14-3.08-12.76-15.36-27.45-10.68-12.78-33.9-23.09-25.68-31.97,7.68-8.29,19.34.04,30.73,16.44Z"/></svg>