<?xml version="1.0" encoding="UTF-8"?><svg id="Layer_1" xmlns="http://www.w3.org/2000/svg" viewBox="0 0 410 155"><defs><style>.cls-1{fill:#999;}.cls-1,.cls-2,.cls-3,.cls-4{stroke-width:0px;}.cls-3{fill:#c5c9cb;}.cls-4{fill:#333;}</style></defs><rect class="cls-4" x="2.57" y="2.28" width="405" height="150.45" rx="11" ry="11"/><path class="cls-1" d="m384.76,146.97l-64.41.29c-1.2.03-2.03.21-2.42-2l-6.04-28-30.21,28c-1.21,1-3.99,2-6.04,2l-250.26-.29c-8.08,0-14.63-4.79-14.63-10.71V18.43c0-5.91,6.55-10.71,14.63-10.71h12.21s1.78,0,1.78,0c1.44,0,2.72.66,3.19,1.64l15.54,22.9-2.44-22.43c.23-1.21,1.66-2.11,3.35-2.11h14.31l1.71,11.54,9.07-11.54h300.68c6.73,0,12.4,3.32,14.11,7.84.56,1.47-.83,2.96-2.93,3.11l-51.12,3.65,52.05,9.93c1.48.28,2.52,1.25,2.52,2.36v101.64c0,5.91-6.55,10.71-14.63,10.71Z"/><path class="cls-2" d="m54.54,42.57h24.12c2.59-.09,4.96-.44,7.09-1.05.92-.24,1.72-.37,2.43-.37,2.47,0,4.87,1.83,7.21,5.49,2.33,3.66,3.5,7.43,3.5,11.3,0,2.65-.81,4.59-2.43,5.81-1.22.92-2.69,1.37-4.39,1.37-1.62,0-3.02-.45-4.21-1.35-1.19-.9-2.37-2.39-3.52-4.46-1.01-1.89-1.8-3.13-2.38-3.71-.58-.58-1.28-.87-2.11-.87-1.13,0-1.94.47-2.43,1.42-.49.95-.73,2.5-.73,4.67v25.63c0,2.62.27,4.53.82,5.72.55,1.19,1.59,2.11,3.11,2.75,1.65.7,2.77,1.37,3.36,1.99.59.63.89,1.49.89,2.59,0,2.2-1.49,3.83-4.46,4.9s-7.54,1.6-13.71,1.6c-7.57,0-13.18-.63-16.84-1.88-3.08-1.04-4.62-2.72-4.62-5.04,0-1.25.55-2.23,1.65-2.93.27-.15,1.36-.52,3.25-1.1,1.16-.33,1.96-.98,2.4-1.92.44-.95.8-2.76,1.08-5.45.24-2.38.47-6.23.69-11.56.21-5.32.32-9.94.32-13.84,0-2.75-.21-4.7-.64-5.86-.43-1.16-1.13-1.74-2.11-1.74-1.19,0-2.35.85-3.48,2.56-2.04,3.11-3.72,5.17-5.03,6.18-1.56,1.19-3.07,1.79-4.53,1.79-1.65,0-3.01-.62-4.07-1.85-1.07-1.24-1.6-2.82-1.6-4.74s.43-3.97,1.28-6.25c.85-2.27,2-4.37,3.43-6.29,2.32-3.11,4.61-4.67,6.87-4.67.61,0,1.31.09,2.11.27,1.65.34,3,.57,4.05.69,1.05.12,2.27.18,3.64.18Z"/><path class="cls-2" d="m137.29,84.54h-21.51c-.95,0-1.42.41-1.42,1.24,0,1.98,1.08,3.85,3.23,5.61,2.15,1.75,4.46,2.63,6.93,2.63,1.46,0,3.09-.28,4.88-.85,1.79-.56,3.26-1.26,4.42-2.08,1.04-.73,1.86-1.1,2.47-1.1.79,0,1.57.49,2.33,1.46s1.14,1.98,1.14,3.02c0,2.2-1.37,4.32-4.12,6.36-4.85,3.63-10.45,5.45-16.8,5.45s-11.78-1.86-16.11-5.58c-2.11-1.83-3.84-4.04-5.22-6.64-1.8-3.45-2.7-7.08-2.7-10.89,0-5.13,1.56-9.73,4.67-13.82,2.68-3.54,6.1-6.18,10.25-7.92,3.11-1.31,6.48-1.97,10.12-1.97,5.8,0,10.72,1.65,14.78,4.94,2.04,1.65,3.69,3.6,4.94,5.86,1.43,2.56,2.15,5.07,2.15,7.51,0,1.98-.41,3.61-1.24,4.88s-1.89,1.9-3.2,1.9Zm-20.32-8.56h4.62c1.95,0,2.93-.9,2.93-2.7,0-1.65-.47-2.99-1.42-4.03-.95-1.04-2.18-1.56-3.71-1.56-1.71,0-3.05.67-4.03,2.01-.92,1.25-1.37,2.52-1.37,3.8,0,.92.22,1.56.66,1.92.44.37,1.21.55,2.31.55Z"/><path class="cls-2" d="m171.2,44.81l-.41,14.33c-.03,1.43-.05,3.54-.05,6.32,0,3.08.05,4.9.14,5.45.21,1.25.85,1.88,1.92,1.88.92,0,2.32-.59,4.21-1.76,1.89-1.17,2.84-2.05,2.84-2.63,0-.34-.34-.95-1.01-1.83-.49-.64-.73-1.25-.73-1.83,0-3.29,4.06-4.94,12.17-4.94,4.21,0,7.54.43,9.98,1.28.98.34,1.79.92,2.43,1.74.64.82.96,1.71.96,2.65,0,1.37-.66,2.33-1.97,2.88-.27.12-1.16.32-2.65.59-1.34.24-3.08,1.08-5.22,2.49s-3.2,2.45-3.2,3.09c0,.43,1.29,2.43,3.87,6.02,2.58,3.58,4.98,6.71,7.21,9.36,1.43,1.74,2.56,2.96,3.36,3.66.81.7,1.93,1.45,3.36,2.24,2.2,1.19,3.29,2.55,3.29,4.07,0,1.62-.69,2.88-2.08,3.8-1.39.92-3.29,1.37-5.7,1.37h-14.83c-1.86-.03-3.31-.72-4.35-2.06l-7.6-9.75c-2.01-2.56-3.24-4.09-3.68-4.58-.44-.49-.82-.73-1.12-.73-.37,0-.61.27-.73.82-.12.55-.18,1.59-.18,3.11,0,1.37.15,2.37.46,3,.3.63,1.01,1.38,2.11,2.27.79.64,1.19,1.59,1.19,2.84,0,2.14-1.13,3.68-3.39,4.62-2.26.95-5.98,1.42-11.17,1.42-6.1,0-10.07-.26-11.9-.78-1.04-.3-1.92-.92-2.65-1.85-.73-.93-1.1-1.91-1.1-2.95,0-1.16.64-2.17,1.92-3.02,1.1-.7,1.8-1.24,2.11-1.6s.55-.95.73-1.74c.7-4.27,1.04-10.86,1.01-19.77v-10.02c0-3.42-.18-5.6-.53-6.54-.35-.95-1.21-1.51-2.59-1.69-2.5-.33-3.75-1.37-3.75-3.11,0-1.16.55-2.2,1.65-3.13,1.1-.93,2.9-1.85,5.4-2.77,7.99-2.96,13.91-4.44,17.76-4.44,1.74,0,2.58.75,2.52,2.24Z"/><path class="cls-2" d="m269.01,76.34l.64,16.11c.06,1.22.25,2.12.57,2.7.32.58,1.26,1.69,2.82,3.34.46.49.69,1.17.69,2.06,0,2.01-1.21,3.42-3.62,4.21s-6.71,1.19-12.91,1.19c-4.21,0-7.19-.37-8.92-1.1-1.8-.76-2.7-2-2.7-3.71,0-.61.09-1.06.28-1.35.18-.29.79-1,1.83-2.13,1.22-1.28,1.83-5.55,1.83-12.81,0-4.21-.49-7.32-1.46-9.34-.79-1.62-2.26-2.43-4.39-2.43s-3.45.66-4.21,1.97c-.76,1.31-1.14,3.69-1.14,7.14v9.06c0,1.8.11,3.04.34,3.71.23.67.98,1.97,2.27,3.89.33.55.5,1.17.5,1.88,0,1.8-1.25,3.13-3.75,3.98s-6.41,1.28-11.72,1.28c-8.48,0-12.72-1.75-12.72-5.26,0-.73.13-1.29.39-1.67.26-.38.88-.92,1.85-1.62.79-.58,1.3-1.24,1.51-1.99.21-.75.41-2.59.59-5.51.21-3.48.32-7.12.32-10.94,0-2.11-.16-3.49-.48-4.14-.32-.66-1.24-1.46-2.77-2.4-1.31-.82-1.97-1.83-1.97-3.02s.53-2.22,1.6-3c1.07-.78,3.26-1.76,6.59-2.95,2.93-1.04,5.75-1.92,8.47-2.63,2.71-.72,4.58-1.08,5.58-1.08.92,0,1.69.34,2.31,1.01.62.67.94,1.46.94,2.38,0,.09-.02.47-.05,1.14-.03.25-.05.46-.05.64,0,1.46.61,2.2,1.83,2.2.73,0,1.51-.58,2.33-1.74,2.62-3.78,6.44-5.67,11.44-5.67,3.84,0,7.14,1.01,9.89,3.02,1.92,1.43,3.26,3.12,4.03,5.06s1.24,4.78,1.42,8.54Z"/><path class="cls-2" d="m301.82,62.61v26.59c0,2.11.19,3.65.57,4.62.38.98,1.15,1.88,2.31,2.7.95.67,1.58,1.24,1.9,1.72.32.47.48,1.08.48,1.81,0,3.94-4.99,5.9-14.97,5.9-5.37,0-9.63-.43-12.77-1.28-1.07-.3-1.93-.84-2.59-1.6s-.98-1.63-.98-2.61c0-.82.17-1.46.5-1.92.33-.46,1.19-1.19,2.56-2.2.95-.7,1.62-1.85,2.01-3.43.4-1.59.59-3.95.59-7.09,0-1.01-.07-2.89-.21-5.65s-.24-4.37-.3-4.83c-.18-1.25-1.04-2.21-2.56-2.88-1.89-.82-2.84-2.04-2.84-3.66,0-1.92,1.24-3.36,3.71-4.3,3.42-1.31,7.08-2.43,10.98-3.34,3.91-.92,6.93-1.37,9.06-1.37,1.68,0,2.52.95,2.52,2.84Zm-9.06-20.05c2.65,0,4.76.5,6.32,1.49,1.56.99,2.33,2.33,2.33,4,0,2.35-1.17,4.21-3.52,5.58-3.72,2.17-8.22,3.25-13.5,3.25-2.23,0-4-.43-5.31-1.28-1.77-1.1-2.65-2.62-2.65-4.58,0-2.62,1.88-4.68,5.63-6.18,3.81-1.53,7.38-2.29,10.71-2.29Z"/><path class="cls-2" d="m336.29,44.81l-.41,14.33c-.03,1.43-.05,3.54-.05,6.32,0,3.08.05,4.9.14,5.45.21,1.25.85,1.88,1.92,1.88.92,0,2.32-.59,4.21-1.76,1.89-1.17,2.84-2.05,2.84-2.63,0-.34-.34-.95-1.01-1.83-.49-.64-.73-1.25-.73-1.83,0-3.29,4.06-4.94,12.17-4.94,4.21,0,7.54.43,9.98,1.28.98.34,1.79.92,2.43,1.74.64.82.96,1.71.96,2.65,0,1.37-.66,2.33-1.97,2.88-.27.12-1.16.32-2.65.59-1.34.24-3.08,1.08-5.22,2.49s-3.2,2.45-3.2,3.09c0,.43,1.29,2.43,3.87,6.02,2.58,3.58,4.98,6.71,7.21,9.36,1.43,1.74,2.56,2.96,3.36,3.66.81.7,1.93,1.45,3.36,2.24,2.2,1.19,3.29,2.55,3.29,4.07,0,1.62-.69,2.88-2.08,3.8-1.39.92-3.29,1.37-5.7,1.37h-14.83c-1.86-.03-3.31-.72-4.35-2.06l-7.6-9.75c-2.01-2.56-3.24-4.09-3.68-4.58-.44-.49-.82-.73-1.12-.73-.37,0-.61.27-.73.82-.12.55-.18,1.59-.18,3.11,0,1.37.15,2.37.46,3,.3.63,1.01,1.38,2.11,2.27.79.64,1.19,1.59,1.19,2.84,0,2.14-1.13,3.68-3.39,4.62-2.26.95-5.98,1.42-11.17,1.42-6.1,0-10.07-.26-11.9-.78-1.04-.3-1.92-.92-2.65-1.85-.73-.93-1.1-1.91-1.1-2.95,0-1.16.64-2.17,1.92-3.02,1.1-.7,1.8-1.24,2.11-1.6s.55-.95.73-1.74c.7-4.27,1.04-10.86,1.01-19.77v-10.02c0-3.42-.18-5.6-.53-6.54-.35-.95-1.21-1.51-2.59-1.69-2.5-.33-3.75-1.37-3.75-3.11,0-1.16.55-2.2,1.65-3.13,1.1-.93,2.9-1.85,5.4-2.77,7.99-2.96,13.91-4.44,17.76-4.44,1.74,0,2.58.75,2.52,2.24Z"/><path class="cls-3" d="m309.71,16.31c-39.64-6.51-85.15,1.01-84.31,2.19.66.92,25.06-.63,62.63,7.25,32.7,6.85,73.7,26.77,80.75,16.12,6.58-9.94-19.43-19.04-59.08-25.56Z"/></svg>