<?xml version="1.0" encoding="UTF-8"?><svg id="Layer_1" xmlns="http://www.w3.org/2000/svg" viewBox="0 0 500 500"><defs><style>.cls-1{fill:#4d4d4d;}.cls-1,.cls-2,.cls-3{stroke-width:0px;}.cls-2{fill:#333;}.cls-3{fill:#d38431;}</style></defs><polygon class="cls-3" points="330.35 399.79 330.35 395.26 330.73 353.93 330.35 353.93 324.9 353.93 324.52 353.93 324.52 404.75 433.9 512.26 444.11 514.22 330.35 399.79"/><polygon class="cls-3" points="259.54 459.13 259.92 353.93 259.54 353.93 254.08 353.93 253.71 353.93 253.71 475.56 293.15 513.3 304.06 515.97 259.54 471.44 259.54 459.13"/><polygon class="cls-3" points="274.54 353.93 274.08 353.93 268.7 353.93 268.25 353.93 268.66 461.4 268.66 461.4 322.21 513.17 332.82 515.54 274.54 457.27 274.54 353.93"/><polygon class="cls-3" points="288.7 353.93 288.24 353.93 282.87 353.93 282.41 353.93 282.83 447.23 282.83 447.23 350.31 512.91 360.75 515.1 288.7 443.11 288.7 353.93"/><polygon class="cls-3" points="302.86 353.93 302.4 353.93 297.03 353.93 296.57 353.93 296.99 433.07 296.99 433.07 377.96 512.2 388.26 514.25 302.86 428.95 302.86 353.93"/><polygon class="cls-3" points="316.19 408.03 316.57 353.93 316.19 353.93 310.73 353.93 310.36 353.93 310.36 418.91 407.14 513.02 417.44 515.07 316.19 413.95 316.19 408.03"/><polygon class="cls-3" points="202.55 433.07 202.97 353.93 202.51 353.93 197.14 353.93 196.68 353.93 196.68 428.95 111.28 514.25 121.58 512.2 202.55 433.07 202.55 433.07"/><polygon class="cls-3" points="216.72 447.23 217.13 353.93 216.68 353.93 211.3 353.93 210.84 353.93 210.84 443.11 138.79 515.1 149.23 512.91 216.72 447.23 216.72 447.23"/><polygon class="cls-3" points="230.88 461.4 231.3 353.93 230.84 353.93 225.46 353.93 225.01 353.93 225.01 457.27 166.72 515.54 177.33 513.17 230.88 461.4 230.88 461.4"/><polygon class="cls-3" points="240 353.93 239.63 353.93 240 459.13 240 471.44 195.48 515.97 206.39 513.3 245.83 475.56 245.83 353.93 245.46 353.93 240 353.93"/><polygon class="cls-3" points="189.18 353.93 188.81 353.93 183.35 353.93 182.98 353.93 183.35 408.03 183.35 413.95 82.11 515.07 92.4 513.02 189.18 418.91 189.18 353.93"/><polygon class="cls-3" points="175.02 353.93 174.64 353.93 169.19 353.93 168.81 353.93 169.19 395.26 169.19 399.79 55.43 514.22 65.64 512.26 175.02 404.75 175.02 353.93"/><polygon class="cls-3" points="169.19 100.21 169.19 104.74 168.81 146.07 169.19 146.07 174.64 146.07 175.02 146.07 175.02 95.25 65.64 -12.26 55.43 -14.22 169.19 100.21"/><polygon class="cls-3" points="240 40.87 239.63 146.07 240 146.07 245.46 146.07 245.83 146.07 245.83 24.44 206.39 -13.3 195.48 -15.97 240 28.56 240 40.87"/><polygon class="cls-3" points="225.01 146.07 225.46 146.07 230.84 146.07 231.3 146.07 230.88 38.6 230.88 38.6 177.33 -13.17 166.72 -15.54 225.01 42.73 225.01 146.07"/><polygon class="cls-3" points="210.84 146.07 211.3 146.07 216.68 146.07 217.13 146.07 216.72 52.77 216.72 52.77 149.23 -12.91 138.79 -15.1 210.84 56.89 210.84 146.07"/><polygon class="cls-3" points="196.68 146.07 197.14 146.07 202.51 146.07 202.97 146.07 202.55 66.93 202.55 66.93 121.58 -12.2 111.28 -14.25 196.68 71.05 196.68 146.07"/><polygon class="cls-3" points="183.35 91.97 182.98 146.07 183.35 146.07 188.81 146.07 189.18 146.07 189.18 81.09 92.4 -13.02 82.11 -15.07 183.35 86.05 183.35 91.97"/><polygon class="cls-3" points="296.99 66.93 296.57 146.07 297.03 146.07 302.4 146.07 302.86 146.07 302.86 71.05 388.26 -14.25 377.96 -12.2 296.99 66.93 296.99 66.93"/><polygon class="cls-3" points="282.83 52.77 282.41 146.07 282.87 146.07 288.24 146.07 288.7 146.07 288.7 56.89 360.75 -15.1 350.31 -12.91 282.83 52.77 282.83 52.77"/><polygon class="cls-3" points="268.66 38.6 268.25 146.07 268.7 146.07 274.08 146.07 274.54 146.07 274.54 42.73 332.82 -15.54 322.21 -13.17 268.66 38.6 268.66 38.6"/><polygon class="cls-3" points="259.54 146.07 259.92 146.07 259.54 40.87 259.54 28.56 304.06 -15.97 293.15 -13.3 253.71 24.44 253.71 146.07 254.08 146.07 259.54 146.07"/><polygon class="cls-3" points="310.36 146.07 310.73 146.07 316.19 146.07 316.57 146.07 316.19 91.97 316.19 86.05 417.44 -15.07 407.14 -13.02 310.36 81.09 310.36 146.07"/><polygon class="cls-3" points="324.52 146.07 324.9 146.07 330.35 146.07 330.73 146.07 330.35 104.74 330.35 100.21 444.11 -14.22 433.9 -12.26 324.52 95.25 324.52 146.07"/><polygon class="cls-3" points="399.37 169.62 394.84 169.62 353.51 169.25 353.51 169.62 353.51 175.08 353.51 175.46 404.33 175.46 511.84 66.07 513.8 55.86 399.37 169.62"/><polygon class="cls-3" points="458.71 240.44 353.51 240.06 353.51 240.44 353.51 245.89 353.51 246.27 475.14 246.27 512.89 206.83 515.55 195.91 471.02 240.44 458.71 240.44"/><polygon class="cls-3" points="353.51 225.44 353.51 225.9 353.51 231.27 353.51 231.73 460.98 231.31 460.98 231.31 512.75 177.77 515.12 167.15 456.86 225.44 353.51 225.44"/><polygon class="cls-3" points="353.51 211.28 353.51 211.74 353.51 217.11 353.51 217.57 446.82 217.15 446.82 217.15 512.49 149.67 514.69 139.23 442.69 211.28 353.51 211.28"/><polygon class="cls-3" points="353.51 197.12 353.51 197.57 353.51 202.95 353.51 203.4 432.66 202.99 432.66 202.99 511.79 122.01 513.84 111.72 428.53 197.12 353.51 197.12"/><polygon class="cls-3" points="407.61 183.79 353.51 183.41 353.51 183.79 353.51 189.24 353.51 189.62 418.49 189.62 512.6 92.84 514.65 82.54 413.53 183.79 407.61 183.79"/><polygon class="cls-3" points="432.66 297.42 353.51 297.01 353.51 297.46 353.51 302.84 353.51 303.3 428.53 303.3 513.84 388.69 511.79 378.4 432.66 297.42 432.66 297.42"/><polygon class="cls-3" points="446.82 283.26 353.51 282.84 353.51 283.3 353.51 288.68 353.51 289.13 442.69 289.13 514.69 361.19 512.49 350.74 446.82 283.26 446.82 283.26"/><polygon class="cls-3" points="460.98 269.1 353.51 268.68 353.51 269.14 353.51 274.51 353.51 274.97 456.86 274.97 515.12 333.26 512.75 322.64 460.98 269.1 460.98 269.1"/><polygon class="cls-3" points="353.51 259.97 353.51 260.35 458.71 259.97 471.02 259.97 515.55 304.5 512.89 293.58 475.14 254.14 353.51 254.14 353.51 254.52 353.51 259.97"/><polygon class="cls-3" points="353.51 310.79 353.51 311.17 353.51 316.63 353.51 317 407.61 316.63 413.53 316.63 514.65 417.87 512.6 407.57 418.49 310.79 353.51 310.79"/><polygon class="cls-3" points="353.51 324.96 353.51 325.33 353.51 330.79 353.51 331.16 394.84 330.79 399.37 330.79 513.8 444.55 511.84 434.34 404.33 324.96 353.51 324.96"/><polygon class="cls-3" points="100.63 330.79 105.16 330.79 146.49 331.16 146.49 330.79 146.49 325.33 146.49 324.96 95.67 324.96 -11.84 434.34 -13.8 444.55 100.63 330.79"/><polygon class="cls-3" points="41.29 259.97 146.49 260.35 146.49 259.97 146.49 254.52 146.49 254.14 24.86 254.14 -12.89 293.58 -15.55 304.5 28.98 259.97 41.29 259.97"/><polygon class="cls-3" points="146.49 274.97 146.49 274.51 146.49 269.14 146.49 268.68 39.02 269.1 39.02 269.1 -12.75 322.64 -15.12 333.26 43.14 274.97 146.49 274.97"/><polygon class="cls-3" points="146.49 289.13 146.49 288.68 146.49 283.3 146.49 282.84 53.18 283.26 53.18 283.26 -12.49 350.74 -14.69 361.19 57.31 289.13 146.49 289.13"/><polygon class="cls-3" points="146.49 303.3 146.49 302.84 146.49 297.46 146.49 297.01 67.34 297.42 67.34 297.42 -11.79 378.4 -13.84 388.69 71.47 303.3 146.49 303.3"/><polygon class="cls-3" points="92.39 316.63 146.49 317 146.49 316.63 146.49 311.17 146.49 310.79 81.51 310.79 -12.6 407.57 -14.65 417.87 86.47 316.63 92.39 316.63"/><polygon class="cls-3" points="67.34 202.99 146.49 203.4 146.49 202.95 146.49 197.57 146.49 197.12 71.47 197.12 -13.84 111.72 -11.79 122.01 67.34 202.99 67.34 202.99"/><polygon class="cls-3" points="53.18 217.15 146.49 217.57 146.49 217.11 146.49 211.74 146.49 211.28 57.31 211.28 -14.69 139.23 -12.49 149.67 53.18 217.15 53.18 217.15"/><polygon class="cls-3" points="39.02 231.31 146.49 231.73 146.49 231.27 146.49 225.9 146.49 225.44 43.14 225.44 -15.12 167.15 -12.75 177.77 39.02 231.31 39.02 231.31"/><polygon class="cls-3" points="146.49 240.44 146.49 240.06 41.29 240.44 28.98 240.44 -15.55 195.91 -12.89 206.83 24.86 246.27 146.49 246.27 146.49 245.89 146.49 240.44"/><polygon class="cls-3" points="146.49 189.62 146.49 189.24 146.49 183.79 146.49 183.41 92.39 183.79 86.47 183.79 -14.65 82.54 -12.6 92.84 81.51 189.62 146.49 189.62"/><polygon class="cls-3" points="146.49 175.46 146.49 175.08 146.49 169.62 146.49 169.25 105.16 169.62 100.63 169.62 -13.8 55.86 -11.84 66.07 95.67 175.46 146.49 175.46"/><path class="cls-2" d="m146.05,336.88l-.42-182.5c0-4.59,3.73-8.31,8.33-8.31h196.12c2.11,0,3.83,1.71,3.83,3.82v195.73c0,4.59-4.15,8.73-8.75,8.73h-182.45s-16.66-17.46-16.66-17.46Z"/><path class="cls-1" d="m152.27,331.68l-.39-171.55c0-4.32,3.51-7.82,7.83-7.82h184.35c1.99,0,3.6,1.61,3.6,3.59v183.98c0,4.32-3.9,8.21-8.22,8.21h-171.5s-15.66-16.41-15.66-16.41Z"/></svg>