<?xml version="1.0" encoding="UTF-8"?><svg id="Layer_1" xmlns="http://www.w3.org/2000/svg" viewBox="0 0 185 250"><defs><style>.cls-1{fill:#666;}.cls-1,.cls-2{stroke-width:0px;}.cls-2{fill:#d7ecfb;}</style></defs><path class="cls-2" d="m105.25,25.5l18.12-7.5h-23.38v100h65V31.38l-5.75-2.88-54-3Zm44.42,80.23l-9.27-9.27-4.12,10.3,1.03-13.39-10.3-11.33,11.33,6.18,10.3-7.21-5.15,7.21,17.52,1.03-16.48,4.12,5.15,12.36Z"/><polygon class="cls-2" points="157.27 176.87 147.4 177.97 143.85 172.04 138.35 172.79 138.35 172.79 143.13 177.11 144.97 181.62 151.05 181.62 152.26 184.05 151.12 182.53 143.02 182.53 141.32 177.97 136.23 174.97 136.43 187.48 144.97 196.2 143.75 198.63 143.75 196.2 135.25 187.69 134.34 175.02 127.95 180.4 115.42 177.2 117.02 176.75 117.1 176.76 117.02 176.74 108.51 179.18 100 176.84 100 233 165 233 165 182 157.12 176.75 157.27 176.87"/><polygon class="cls-2" points="115.8 156.09 127.95 159.74 128.39 152.97 128.39 152.97 118.23 143.94 124.31 136.65 134.03 133 104.86 133 110.94 143.94 115.8 156.09"/><polygon class="cls-2" points="120.66 170.68 126.03 167.45 126.74 160.95 114.58 156.09 109.72 143.94 104.86 133 100 133 100 168.25 108.51 164.6 120.66 170.68"/><polygon class="cls-2" points="117.02 176.04 126.74 177.97 131.99 171.85 126.74 169.46 120.66 171.89 108.51 165.82 100 168.25 100 176.84 108.51 177.97 117.02 176.04"/><polygon class="cls-2" points="133.46 147.77 134.64 153.7 136.83 161.04 149.2 156.55 153.48 147.58 163.2 140.29 163.67 133 134.03 133 139.5 140.65 133.46 147.77"/><polygon class="cls-2" points="119.45 143.94 130.38 153.66 129.83 160.01 134.03 161.72 132.82 147.58 138.89 140.29 134.03 133 124.31 137.86 119.45 143.94"/><polygon class="cls-2" points="163.67 140.62 153.48 148.8 149.83 158.52 139.21 169.28 139.21 169.33 146.18 169.46 147.4 175.54 157.12 175.54 165 182 165 133 163.67 133 163.67 140.62"/><polygon class="cls-2" points="30 50 34 52 36.21 50.23 37.66 44.75 32 44 31 41 27 40 20 27.22 20 60 27 58 30 50"/><polygon class="cls-2" points="28 37 32 37 34 40 41 43 41.88 50.88 46 55 46 50 50 47 41.74 39.19 39 29 41.74 18 20 18 20 25.73 28 37"/><polygon class="cls-2" points="85 35.48 82.61 38.5 74 43 74 54 63 60 58 60 56 62 56 65 56 69 61 71 61 75 65 79 68 79.16 71 80 73 81.96 73 86 70.72 81 66.1 81 59 78 59 73.38 54 70.82 52.5 67.02 51.11 64.71 51.11 66.36 49 71 47 74 41 74 40 76 44 86 41 89.72 39 93.28 39 88.82 42 86 35 75 38.5 70.65 45 70 46 67 44.79 62.76 38.36 55.37 34 56.45 32 55 29 60 20 61.73 20 118 85 118 85 35.48"/><polygon class="cls-2" points="45.54 38.5 49.09 42.48 49.75 38.5 58 38 58 34 61 33 67 29 63 34 61 35 62.06 39 59 41 54 40.21 54 48 50 52 52.27 56.55 58 54 63.38 56.3 71 53 69 41 82 36 85 30.77 85 18 43 18 42 29 45.54 38.5"/><polygon class="cls-2" points="39.25 232.5 38.5 229.54 41.25 227.5 48.25 227.5 48.18 222.78 63.12 212.34 68.25 211.5 69.19 208.1 74.92 204.09 74.25 210.5 66.16 221 62.25 223.5 59.88 233 68.66 233 68.73 232.42 69.55 233 70.15 233 69.23 228.22 69.25 218.5 71.45 224.8 70.25 229.5 71.73 227.15 72.29 231.83 71.83 233 78.19 233 76.99 222.14 78.25 222.5 76.71 219.77 76.25 206.5 76.86 212.21 77.25 214.5 78.12 216.42 80.11 223.09 80.25 227.5 82.18 230.02 82.61 233 85 233 85 133.54 85 133 79.07 133 20 133 20 233 33.55 233 36.75 230.77 39.25 232.5"/><path class="cls-1" d="m180,38.88l-15-7.5v86.62h-65V18h23.38l10.88-4.5,8.01-11H5.25v245h7.56l1.44-1,12-5,.99-4.09,6.31-4.41h-13.55v-100h59.07l-6.55-.6,10.34-2.55-14.86-7.85,17.99,4.97,11.23-9.13-7.73,11.69,7.51,5.46-8.29-1.29-2.71,15.29-.9-15.45h-.1s0,99.45,0,99.45h-2.39l.64,4.5,1.63,1.55.65,5.49.88,2.96h93.59V38.88Zm-95-8.1v87.23H20V18h65v12.77Zm80,151.23v51h-65v-100h65v49Z"/></svg>