<?xml version="1.0" encoding="UTF-8"?><svg id="Layer_1" xmlns="http://www.w3.org/2000/svg" viewBox="0 0 370 500"><defs><style>.cls-1{fill:#666;}.cls-1,.cls-2,.cls-3{stroke-width:0px;}.cls-2{fill:none;}.cls-3{fill:#d7ecfb;}</style></defs><polygon class="cls-3" points="47.45 31.23 46.52 21.94 43.07 29.25 47.45 31.23"/><polygon class="cls-3" points="350.55 442.81 347.86 447.02 349.73 449.34 356.14 445.2 350.55 442.81"/><polygon class="cls-3" points="277.71 476.25 287.56 483.65 283.9 473.85 277.71 476.25"/><polygon class="cls-3" points="192.54 233.52 191 227.94 194.67 222.37 189.77 214.94 193.58 212.05 193.18 203.34 199.57 196.36 202.01 179.64 187.31 183.37 183.63 173.18 183.65 233.52 192.54 233.52"/><polygon class="cls-3" points="231.83 138.09 232.42 141.55 233.86 138.76 231.83 138.09"/><polygon class="cls-3" points="245.64 178.92 241.21 175.04 238.77 181.48 236.02 180.98 233.87 188.91 233.92 187.06 228.46 187.06 225.29 201.92 232.64 200.06 228.75 212.95 228.97 213.06 220.72 218.13 239.61 233.49 248.58 233.49 248.57 192.83 247.56 178.92 245.64 178.92"/><polygon class="cls-3" points="223.28 179.27 218.67 175.36 221.98 179.95 223.28 179.27"/><polygon class="cls-3" points="204.47 203.79 224.07 200.06 226.74 187.52 221.62 194.49 221.97 188.58 220.72 193.95 218.58 190.04 219.65 185.21 218.7 181.49 215.06 177.78 208.99 181.5 208.26 189.13 203.43 184.86 202.02 194.5 204.47 203.79"/><polygon class="cls-3" points="233.28 180.01 228.71 183.21 232.19 183.33 233.28 180.01"/><polygon class="cls-3" points="226.52 213.07 222.85 211.21 219.07 211.21 219.93 206.51 218.92 209.36 216.4 203.15 203.24 205.65 190.99 214.94 195.9 222.37 192.22 227.94 193.76 233.52 237.16 233.49 218.27 218.13 226.52 213.07"/><polygon class="cls-3" points="247.84 119.4 248.9 117.95 250.48 122.16 244.65 125.17 247.84 133.92 249.91 131.48 248.9 128.11 249.67 124.72 251.5 125.91 251.5 133.85 255.25 125.21 253.62 123.76 253.13 120.85 253.62 120 251.5 117.95 253.62 116.5 244.25 116.5 246.93 117.95 247.84 119.4"/><polygon class="cls-3" points="190.99 174.54 189.76 166.65 189.58 173.17 188.23 172.22 188.23 168.16 185.05 169.68 187.31 175.94 194.31 174.16 190.99 174.54"/><polygon class="cls-3" points="192.14 161.93 186.34 158.21 188.53 151.79 199.02 154.49 201.41 165.71 206.54 175.93 212.61 172.21 215.81 175.47 216.25 175.92 217.2 179.64 218.91 173.16 217.94 168.49 213.41 164.88 208 156.42 209.36 153.63 205.68 151.78 206.9 146.21 205.68 140.63 208.13 136.92 198.28 133.21 183.63 133.21 183.63 163.04 186.08 159.22 192.14 161.93"/><polygon class="cls-3" points="228.96 155.48 227.73 155.48 225.28 159.2 228.96 155.48"/><polygon class="cls-3" points="235.21 180.55 238.76 177.77 237.54 175.91 238.76 174.32 239.99 169.62 239.99 161.05 238.29 161.05 232.67 170.32 235.21 180.55"/><polygon class="cls-3" points="237.95 159.69 235.08 158.34 232.24 160.11 230.18 156.49 230.24 162.91 236.94 162.91 237.95 159.69"/><polygon class="cls-3" points="230.7 170.65 230.92 167.55 233.28 166.39 227.64 162.91 224.58 166.01 223.56 170.65 226.62 172.2 229.52 169.67 230.7 170.65"/><polygon class="cls-3" points="196.7 155.73 195.57 156.46 193.53 155.55 194.33 161.39 192.67 160.34 192.5 167.78 198.1 175.01 203.86 176.59 203.09 173.82 199.4 170.14 202.61 172.11 200.22 163.56 198.47 164.69 196.7 155.73"/><polygon class="cls-3" points="220.87 185.98 223.06 184.44 221.11 186.85 225.52 187.29 226.45 186.59 225.18 185.18 225.6 181.86 225.88 180.59 223.04 181.3 221.09 182.73 220.87 185.98"/><polygon class="cls-3" points="231.21 171.27 231.21 171.29 231.21 171.27 231.21 171.27"/><polygon class="cls-3" points="230.61 349.45 234.14 348.52 231.65 348.52 230.61 349.45"/><polygon class="cls-3" points="243.77 360.47 243.78 348.52 240.04 348.52 243.77 360.47"/><polygon class="cls-3" points="259.01 335.18 248.79 339.52 248.79 342.44 259.01 335.18"/><polygon class="cls-3" points="243.78 348.52 248.79 348.52 248.79 342.44 243.79 345.99 243.78 348.52"/><polygon class="cls-3" points="234.14 348.52 240.04 348.52 239.59 347.08 234.14 348.52"/><polygon class="cls-3" points="196.49 247.23 204.79 248.52 197.28 243.06 203.58 233.52 202.36 233.52 193.78 240.5 175.79 235.52 190.65 243.37 180.3 245.92 192.89 247.07 192.97 248.52 196.26 248.52 196.49 247.23"/><polygon class="cls-3" points="103.47 282.07 103.79 280.55 103.79 273.02 103.47 282.07"/><polygon class="cls-3" points="93.7 284.61 103.79 270.59 103.79 265.89 93.7 284.61"/><polygon class="cls-3" points="92.81 245.96 107.86 247.95 108.43 244.42 92.81 245.96"/><polygon class="cls-3" points="109.1 248.11 107.86 247.95 107.77 248.52 109.06 248.52 109.1 248.11"/><polygon class="cls-3" points="103.79 270.59 103.79 273.02 103.87 270.47 103.79 270.59"/><polygon class="cls-3" points="106.1 258.92 107.77 248.52 103.79 248.52 103.79 265.89 103.87 249.21 106.1 258.92"/><polygon class="cls-3" points="110.31 233.52 110.18 233.52 108.43 244.42 109.41 244.33 110.31 233.52"/><polygon class="cls-3" points="267.17 369.9 270.79 371.99 270.79 375.52 276.74 379.06 280.26 379.06 277.79 369.52 276.74 365.52 281.2 365.52 283.79 357.52 283.79 352.52 280.79 351.52 287.52 348.8 272.11 340.52 264.79 340.52 264.79 362.41 265.6 369.9 267.17 369.9"/><polygon class="cls-3" points="72.53 201.46 78.35 202.09 75.77 203.45 73.64 207.13 77.4 211.86 70.72 217.76 75.42 216.31 88.18 216.04 94.63 212.59 88.59 196.14 77.08 195.52 75.07 199.86 72.53 201.46"/><polygon class="cls-3" points="142.55 107.91 138.52 109.26 138.31 112.5 170.03 128.28 159.91 114 167.16 114.56 164.92 112.33 167.14 107.85 151.93 102.52 140.75 102.54 142.55 107.91"/><polygon class="cls-3" points="282.58 283.72 282.05 276.82 284.94 274.78 284.57 270.62 283.67 269.34 289.32 264.36 266.33 280.55 267.13 281.68 273.85 282.56 279.78 285.75 282.58 283.72"/><polygon class="cls-3" points="69.79 295.52 57.79 297.52 58.27 301.02 54.09 295.52 49.13 297.52 46.52 295.76 46.16 295.52 45.39 293.52 43.99 297.01 43.99 297.01 44.79 299.52 48.48 301.47 52.9 306.02 51.79 307.52 54.79 308.52 53.79 311.52 54.79 314.52 52.79 316.52 60.82 318.52 72.79 318.52 72.79 301.01 69.79 295.52"/><polygon class="cls-3" points="231.79 112.52 233.79 110.52 232.79 107.52 233.79 104.52 230.79 103.52 231.9 102.02 227.48 97.47 223.79 95.52 222.99 93.01 221.79 91.52 218.2 89.52 213.74 89.52 214.79 93.52 217.26 103.06 213.74 103.06 213.78 105.99 213.78 105.99 213.79 106.52 205.79 110.52 203.17 114.52 239.82 114.52 231.79 112.52"/><polygon class="cls-3" points="240.05 248.52 241.56 254.08 237.95 259.63 242.77 267.04 230.73 276.3 233.14 285.56 230.73 302.22 245.17 298.52 248.79 308.68 248.79 248.52 240.05 248.52"/><polygon class="cls-3" points="211.47 304.08 213.4 296.67 214.33 300.37 217.91 304.08 223.87 300.37 228.91 310.56 228.32 304.08 230.73 287.41 228.32 278.15 209.06 281.85 205.95 296.67 210.27 300.37 211.47 304.08"/><polygon class="cls-3" points="198.18 323.6 191.01 317.04 191.01 310.5 186.66 306.62 184.77 306.62 183.79 292.76 183.79 344.82 185.45 344.82 190.98 335.58 198.23 330 198.18 323.6"/><polygon class="cls-3" points="223.51 344.82 225.92 341.11 224.71 335.56 225.92 330 222.3 328.15 223.64 325.37 218.32 316.94 213.88 313.34 212.92 308.68 211.47 305.93 207.15 302.22 201.79 302.22 203.05 309.63 206.03 327.3 201.79 327.3 201.83 332.73 201.83 332.73 201.84 333.71 192.21 341.11 189.06 348.52 229.79 348.52 223.51 344.82"/><polygon class="cls-3" points="159.57 133.52 161.16 139.43 157.35 145.34 162.43 153.22 149.73 163.07 152.27 172.92 149.73 190.65 164.97 186.71 168.79 197.52 168.79 133.52 159.57 133.52"/><polygon class="cls-3" points="106.86 187.92 111.21 191.79 111.21 198.34 118.38 204.89 122.62 204.89 119.64 187.22 118.38 179.82 123.75 179.82 126.86 165 126.86 155.74 123.25 153.89 131.35 148.84 112.8 133.52 103.99 133.52 103.99 174.06 104.97 187.92 106.86 187.92"/><polygon class="cls-3" points="130.47 189.08 132.4 181.67 133.33 185.37 136.91 189.08 142.87 185.37 147.91 195.56 147.32 189.08 149.73 172.41 147.32 163.15 128.06 166.85 124.95 181.67 129.27 185.37 130.47 189.08"/><polygon class="cls-3" points="155.75 144.63 159.36 139.08 157.85 133.52 115.21 133.52 133.76 148.84 125.66 153.89 129.27 155.74 129.27 165 148.53 161.3 160.56 152.04 155.75 144.63"/><polygon class="cls-3" points="117.18 208.6 110.01 202.04 110.01 195.5 105.66 191.62 103.77 191.62 102.79 177.76 102.79 229.82 104.45 229.82 109.98 220.58 117.23 215 117.18 208.6"/><polygon class="cls-3" points="293.47 344.09 296.7 341.45 294.16 338.35 295.2 336.35 291.83 333.2 292.75 333.59 294.32 329.42 287.75 324.18 286.57 330.15 281.19 324.73 281.07 324.87 280.9 317.61 267.72 329.11 265.14 335.96 285.62 343.68 292.91 345.56 293.47 344.09"/><polygon class="cls-3" points="272.74 96.4 268.97 112.07 274.52 116.5 272.48 111.26 275.36 112.65 273.02 110.68 275.6 109.79 277.73 111.52 279.87 111.5 282.79 109.43 282.67 104.09 279.03 102.08 282.57 99.2 278.13 96.29 272.74 96.4"/><polygon class="cls-3" points="63.54 345.32 64.56 348.31 66.43 350.76 63.99 351.74 65.71 351.47 64.29 355.13 71.87 362.86 81.9 367.79 82.66 362.18 86.87 362.75 88.49 359.94 67.04 331.75 69.79 349.03 63.54 345.32"/><polygon class="cls-3" points="42.03 339.16 40.74 339.74 40.36 336.5 46.25 336.5 45.55 329.8 43.13 330.68 43.21 333.19 41.7 335.12 40.37 333.74 42.3 328.62 36.89 332.95 37.98 334.43 37.7 336.46 37.07 336.85 38.44 338.87 36.21 339.11 44.49 342.22 42.47 340.4 42.03 339.16"/><polygon class="cls-3" points="60.38 85.38 61.21 89.67 61.5 86.16 62.58 86.72 62.49 88.9 65.12 88.19 63.41 84.75 57.67 85.47 60.38 85.38"/><polygon class="cls-3" points="94.44 374.77 97.99 371.04 100.59 373.93 96.21 381.43 89.87 381.13 83.24 383.1 83.37 388.44 80.8 390.27 80.45 390.52 78.3 390.54 81.07 393.08 83.71 393.22 86.83 390.45 92.65 387.92 93.66 389.49 95.65 387.04 98.11 389.03 101.27 389.15 102.43 391.73 107.14 384.91 111.36 373.72 96.34 368.06 97.55 370.65 94.44 374.77"/><polygon class="cls-3" points="34.03 426.63 32.65 424.98 26.22 424.85 34.03 426.63"/><polygon class="cls-3" points="32.91 402.81 30.46 409.97 40.28 413.54 32.91 402.81"/><polygon class="cls-3" points="46.56 134.21 25.61 132.56 45.11 139.77 46.56 134.21"/><polygon class="cls-3" points="79.08 390.83 69.13 398.13 80.91 394.56 79.08 390.83"/><polygon class="cls-3" points="113.33 369.01 124.4 387.72 119.01 368.6 113.33 369.01"/><polygon class="cls-3" points="66.22 429.72 55.14 425.49 62.53 432.84 66.22 429.72"/><polygon class="cls-3" points="50.65 150.09 47.78 151.38 45 160.58 50.65 150.09"/><polygon class="cls-3" points="70.81 415.79 71.91 421.34 78.89 419.03 70.81 415.79"/><polygon class="cls-3" points="46.02 340.61 46.21 342.34 50.4 345.34 46.02 340.61"/><polygon class="cls-3" points="29.68 326.34 39.41 323.78 31.07 321.28 29.68 326.34"/><polygon class="cls-3" points="80.98 150.68 78.44 148.81 69.06 150.9 80.98 150.68"/><polygon class="cls-3" points="57.6 82.28 46.45 81.44 47.15 95.94 57.6 82.28"/><polygon class="cls-3" points="30.67 237.39 39.9 227.97 29.62 233.87 30.67 237.39"/><polygon class="cls-3" points="64.16 79.83 69.55 66.26 60.37 75.24 64.16 79.83"/><polygon class="cls-3" points="45.81 256.69 46.15 254.45 42.06 248.99 45.81 256.69"/><polygon class="cls-3" points="63.07 240.14 56.07 242.78 59.76 253.33 63.07 240.14"/><polygon class="cls-3" points="53.65 219.97 72.9 200.33 51.46 212.63 53.65 219.97"/><polygon class="cls-3" points="92.97 73.57 101.32 52.53 87.08 66.46 92.97 73.57"/><polygon class="cls-3" points="81.34 60.18 84.22 55.38 79.17 39.32 81.34 60.18"/><polygon class="cls-3" points="58.56 116.58 41.18 109.24 50.82 122.41 58.56 116.58"/><polygon class="cls-3" points="86.32 303.85 82.38 285.24 79.36 298.54 86.32 303.85"/><polygon class="cls-3" points="60.41 278.06 61.15 273.19 52.04 261.3 60.41 278.06"/><polygon class="cls-3" points="92.83 97.6 81.68 96.76 82.38 111.26 92.83 97.6"/><polygon class="cls-3" points="78.4 239.82 87.95 227.3 72.42 225.73 78.4 239.82"/><polygon class="cls-3" points="74.39 248.39 81.05 260.18 78.45 246.91 74.39 248.39"/><polygon class="cls-3" points="117.07 98.42 117.92 102.72 132.71 108.71 117.07 98.42"/><polygon class="cls-3" points="36.24 400.77 48.07 400.22 38.37 396.43 36.24 400.77"/><polygon class="cls-3" points="299.69 384.03 327.16 374.44 298.25 376.65 299.69 384.03"/><polygon class="cls-3" points="243.67 383.84 244.39 372.66 238.55 380.66 243.67 383.84"/><polygon class="cls-3" points="280.16 400.62 291.17 409.45 292.72 395.82 280.16 400.62"/><polygon class="cls-3" points="337.12 322.56 337.25 325.63 344.77 331.19 337.12 322.56"/><polygon class="cls-3" points="328.29 289.36 339.97 286.86 330.36 283.82 328.29 289.36"/><polygon class="cls-3" points="324.35 330.93 334.09 305.07 317.37 327.23 324.35 330.93"/><polygon class="cls-3" points="118.79 412.81 108.07 406.9 109.38 419.36 118.79 412.81"/><polygon class="cls-3" points="68.7 91.54 71.75 90.56 72.03 88.52 70.94 87.05 67.64 85.8 64.4 88.44 67.07 88.79 68.7 91.54"/><polygon class="cls-3" points="73.5 376.72 74.88 377.98 75.7 381.02 74.32 380.74 71.82 382.4 71.95 383.5 70.39 385.3 72.64 386.87 71.26 388.78 71.55 391.04 74.31 387.95 80.88 380.61 77.94 377.48 73.5 376.72"/><polygon class="cls-3" points="303.68 369.04 305.13 368.3 307.89 368.91 306.48 363.87 308.75 364.63 308.5 358.1 300.62 352.29 292.87 351.46 294.07 353.81 299.2 356.68 294.81 355.26 298.52 362.52 300.77 361.37 303.68 369.04"/><polygon class="cls-3" points="80.65 328.15 78.6 327.38 77.74 328.23 80.97 329.61 76.64 329.04 75.88 331.65 74.64 337.91 78.08 338.68 84.43 338.99 88.81 331.49 86.2 328.6 82.66 332.32 85.77 328.21 84.56 325.61 83.19 325.1 80.8 325.44 80.65 328.15"/><polygon class="cls-3" points="113.5 75.07 112.8 57.64 108.55 64.79 100.95 70.08 105.99 81.35 113.5 75.07"/><polygon class="cls-3" points="29.77 52.53 27.95 53.29 29.59 52.06 26 51.67 25.23 52.02 26.24 52.81 25.82 54.59 25.56 55.26 27.9 54.97 29.51 54.27 29.77 52.53"/><polygon class="cls-3" points="242.42 67.18 246.75 67.74 243.52 66.37 244.39 65.52 246.43 66.29 246.58 63.57 242.78 64.11 241.66 69.79 242.42 67.18"/><polygon class="cls-3" points="257.79 103.52 258.3 102.16 256.27 98.29 257.79 103.52"/><polygon class="cls-3" points="271.36 94.33 272.28 91.88 268.61 84.89 271.36 94.33"/><polygon class="cls-3" points="329.34 73.63 324.47 78.43 330.1 76.31 329.34 73.63"/><polygon class="cls-3" points="307.58 68.23 308.06 66.05 302.39 60.2 307.58 68.23"/><polygon class="cls-3" points="303.02 156.92 300.46 161.29 306.56 164.92 303.02 156.92"/><polygon class="cls-3" points="311.2 149.95 313.09 150.58 318.78 146.08 311.2 149.95"/><polygon class="cls-3" points="218.05 80.83 218.2 82.79 217.55 80.85 216.05 84.13 216.14 84.97 217.21 84.27 218.77 85.22 219.32 85.68 219.78 83.37 219.62 81.62 218.05 80.83"/><polygon class="cls-3" points="293.98 294.35 282.89 290.17 276.84 299.89 287.79 317.52 293.98 294.35"/><polygon class="cls-3" points="62.33 343.04 65.85 339.06 63.36 335.52 54.92 337.91 62.33 343.04"/><polygon class="cls-3" points="287.45 392.45 290.76 387.08 287.66 383.77 278.86 388.63 287.45 392.45"/><polygon class="cls-3" points="60.02 61.94 59.12 63.61 59.88 60.86 56.52 60.86 56.52 66.3 62.26 65.58 60.02 61.94"/><polygon class="cls-3" points="258.15 84.53 255.63 84.23 253.39 88.12 253.39 92.09 256.62 94.01 257.12 88.44 257.12 94.3 260.07 96.06 264.03 96.06 263.1 92.5 261.25 92.09 262.56 90.4 262.56 90.39 260.07 80.86 260.13 79.74 258.15 84.53"/><polygon class="cls-3" points="302.03 321.79 299.79 321.52 297.79 324.99 297.79 328.52 300.67 330.23 301.11 325.27 301.11 330.5 303.74 332.06 307.26 332.06 306.44 328.88 304.79 328.52 305.95 327.02 305.95 327.01 303.74 318.52 303.79 317.52 302.03 321.79"/><polygon class="cls-3" points="55.03 98.79 52.79 98.52 50.79 101.99 50.79 105.52 53.67 107.23 54.11 102.27 54.11 107.5 56.74 109.06 60.26 109.06 59.44 105.88 57.79 105.52 58.95 104.02 58.95 104.01 56.74 95.52 56.79 94.52 55.03 98.79"/><polygon class="cls-3" points="297.35 106.96 298.15 114.62 303.53 114.51 301.86 108.31 297.35 106.96"/><polygon class="cls-3" points="68.35 107.96 69.15 115.62 74.53 115.51 72.86 109.31 68.35 107.96"/><polygon class="cls-3" points="132.24 92.44 131.12 96.53 133.7 98.52 164.49 81.01 147 81.43 151.5 75.73 148.4 76.35 145.93 72 133.01 81.65 126.79 90.94 132.24 92.44"/><polygon class="cls-3" points="294.16 134.48 289.12 129.73 289.88 126.28 286.81 123.45 285.28 123.11 286.1 115.63 280.01 143.07 281.36 143.37 286.92 139.49 293.46 137.86 294.16 134.48"/><polygon class="cls-3" points="114.79 110.52 112.79 98.52 109.29 99.01 114.79 94.82 112.79 89.87 114.54 87.26 114.79 86.9 116.79 86.13 113.3 84.73 113.3 84.73 110.79 85.52 108.84 89.21 104.29 93.63 102.79 92.52 101.79 95.52 98.79 94.52 95.79 95.52 93.79 93.52 91.79 101.56 91.79 113.52 109.3 113.52 114.79 110.52"/><polygon class="cls-3" points="269.5 200.12 272.05 203.46 275.87 201.79 279.69 203.46 280.96 198.46 282.87 200.31 288.67 192.94 291.15 186.79 294.35 185.46 296.24 183.45 298.79 177.47 298.79 170.04 293.69 171.78 281.54 175.91 281.54 170.04 277.81 170.1 277.81 170.1 277.14 170.11 272.05 156.78 266.95 152.42 266.95 213.52 269.5 200.12"/><polygon class="cls-3" points="53.76 389.52 56.32 391.32 55.05 395.12 56.92 397.93 58.76 397.25 62.99 405.69 56.6 388.47 54.55 386.56 53.76 389.52"/><polygon class="cls-3" points="333.7 386.83 331.14 390.35 333.9 388.17 334.22 389.34 332.57 390.77 334.88 392.2 336.23 388.61 331.79 384.9 333.7 386.83"/><polygon class="cls-3" points="285.18 426.91 272.08 410.49 280.12 429.65 285.18 426.91"/><polygon class="cls-3" points="256.51 438.08 256.89 443.56 263.89 442.21 256.51 438.08"/><polygon class="cls-3" points="308.49 436.39 305.09 452.93 313.32 435.52 308.49 436.39"/><polygon class="cls-3" points="269.36 393.79 248.36 393.31 268.22 399.43 269.36 393.79"/><polygon class="cls-3" points="212.94 391.53 210.59 387.01 205.15 390.75 212.94 391.53"/><polygon class="cls-3" points="221.57 415.94 206.66 411.27 221.91 420.47 221.57 415.94"/><polygon class="cls-3" points="297.14 369.22 295.37 369.83 292.3 369.09 293.21 368.01 292.95 365.02 291.93 364.61 291.09 362.37 288.64 363.6 287.62 361.47 285.5 360.65 286.89 364.54 290.18 373.83 294.34 372.76 297.14 369.22"/><polygon class="cls-3" points="333.41 358.9 331.61 358.08 333.64 358.44 331.47 355.56 330.69 355.23 330.79 356.51 329.21 357.41 328.54 357.68 330.35 359.19 331.96 359.9 333.41 358.9"/><polygon class="cls-3" points="165.79 261.52 161.79 256.52 158.79 263.52 163.38 266.22 159.4 269.13 159.82 277.9 153.16 284.93 150.61 301.76 165.94 298.01 169.78 308.27 169.79 262.52 165.79 261.52"/><polygon class="cls-3" points="119.51 343.59 118.89 340.1 117.4 342.91 119.51 343.59"/><polygon class="cls-3" points="105.11 302.48 109.73 306.39 112.28 299.91 115.15 300.41 117.39 292.42 117.33 294.29 123.03 294.29 126.33 279.33 118.66 281.2 122.72 268.22 122.49 268.11 131.1 263.01 117.79 268.52 114.79 257.52 113.79 275.52 103.1 302.48 105.11 302.48"/><polygon class="cls-3" points="128.43 302.13 133.24 306.07 129.78 301.44 128.43 302.13"/><polygon class="cls-3" points="148.05 277.45 127.61 281.2 124.82 293.82 130.16 286.81 129.8 292.76 131.1 287.36 133.33 291.29 132.22 296.16 133.2 299.9 137 303.63 143.33 299.89 144.09 292.2 149.14 296.5 150.61 286.8 148.05 277.45"/><polygon class="cls-3" points="118 301.39 122.76 298.16 119.14 298.05 118 301.39"/><polygon class="cls-3" points="162.11 306.9 163.39 314.84 163.58 308.27 164.98 309.23 164.98 313.32 168.3 311.78 165.94 305.49 158.65 307.27 162.11 306.9"/><polygon class="cls-3" points="160.91 319.59 166.96 323.33 164.67 329.8 153.73 327.08 151.23 315.78 145.89 305.5 139.56 309.24 136.22 305.96 135.76 305.5 134.77 301.76 132.99 308.28 134 312.98 138.72 316.62 144.37 325.13 142.95 327.94 146.78 329.81 145.51 335.42 146.79 341.03 144.23 344.77 154.5 348.5 169.79 348.49 169.78 318.47 167.22 322.32 160.91 319.59"/><polygon class="cls-3" points="122.51 326.08 123.78 326.08 126.34 322.34 122.51 326.08"/><polygon class="cls-3" points="145.51 341.03 144.23 335.42 140.4 339.16 133.34 334.96 136.29 333.55 136.56 329.81 138.05 330.99 141.67 327.94 143.09 325.13 137.44 316.62 132.73 312.98 131.71 308.28 130.17 305.51 125.58 301.77 119.89 301.77 122.5 303.64 123.56 307.78 126.82 305.89 127.64 310.18 128.89 311.12 128.89 316.73 127.62 318.6 131.44 320.46 133.76 319.61 129.8 325.75 124.39 327.09 119.89 327.09 119.94 332.57 119.94 332.57 119.95 333.56 116.12 333.56 116.59 336.02 121.23 339.17 119.9 341.09 123.92 342.27 135.79 341.52 135.79 345.52 137.79 344.52 140.79 348.52 153.22 348.5 142.95 344.77 145.51 341.03"/><polygon class="cls-3" points="115.98 300.84 112.28 303.65 113.56 305.51 112.28 307.11 111 311.85 111.01 320.47 112.78 320.47 118.64 311.14 115.98 300.84"/><polygon class="cls-3" points="113.13 321.84 116.12 323.2 119.08 321.41 121.23 325.07 121.17 318.6 114.18 318.6 113.13 321.84"/><polygon class="cls-3" points="120.69 310.81 120.46 313.93 118 315.1 123.88 318.6 127.08 315.48 128.14 310.81 124.95 309.25 121.92 311.79 120.69 310.81"/><polygon class="cls-3" points="156.15 325.82 157.32 325.09 159.45 326.01 158.63 320.13 160.36 321.18 160.53 313.7 154.69 306.42 148.69 304.83 149.49 307.61 153.34 311.32 149.99 309.33 152.48 317.94 154.3 316.81 156.15 325.82"/><polygon class="cls-3" points="130.95 295.38 128.66 296.93 130.7 294.5 126.09 294.06 125.13 294.77 126.45 296.18 126.01 299.53 125.71 300.8 128.68 300.09 130.71 298.65 130.95 295.38"/><polygon class="cls-3" points="120.16 310.19 120.16 310.17 120.16 310.19 120.16 310.19"/><polygon class="cls-3" points="288.14 438.66 283.78 438.58 284.38 444.21 288.14 438.66"/><polygon class="cls-3" points="333.27 406.17 327.16 413.52 333.5 410.69 333.27 406.17"/><polygon class="cls-3" points="318.49 415.7 320.95 409.32 316.52 414.47 318.49 415.7"/><polygon class="cls-3" points="300.42 494.92 299.94 493.77 296.4 492.54 300.42 494.92"/><polygon class="cls-3" points="277.11 470.19 278.65 470.92 283.96 467.68 277.11 470.19"/><polygon class="cls-3" points="278.07 430.49 275.95 430.74 274.86 428.24 272.62 427.66 272 428.85 265.99 426.5 277.11 432.32 279.03 432.35 278.07 430.49"/><polygon class="cls-3" points="250.35 494.75 251.67 495.46 249.5 494.86 249.5 497.5 253.78 497.5 253.22 493 250.35 494.75"/><polygon class="cls-3" points="276.15 455.92 270.06 458.46 271.48 462.85 276.16 459.95 276.15 455.92"/><polygon class="cls-3" points="137.72 60.57 137.68 56.87 132.92 57.51 137.72 60.57"/><polygon class="cls-3" points="173.57 97.22 166.67 91.8 169.43 97.55 173.57 97.22"/><polygon class="cls-3" points="164.44 83.9 170.36 86 165.52 82.07 164.44 83.9"/><polygon class="cls-3" points="90.25 72.36 91.22 71.93 92.17 68.89 90.25 72.36"/><polygon class="cls-3" points="106.02 81.5 105.44 82.82 108.31 87.25 106.02 81.5"/><polygon class="cls-3" points="139.09 26.26 138.82 24.46 140.92 23.47 141.35 21.56 140.32 21.06 142.18 15.9 137.51 25.49 137.52 27.12 139.09 26.26"/><polygon class="cls-3" points="91.09 16.4 90.47 17.64 90.97 15.62 88.53 15.69 88.64 19.65 92.8 19.01 91.09 16.4"/><polygon class="cls-3" points="122.77 50.81 120.46 45.7 116.77 47.01 119.35 50.91 122.77 50.81"/><polygon class="cls-3" points="310.61 62.31 305.96 56.97 305.6 61.19 310.61 62.31"/><polygon class="cls-3" points="342.16 78.53 323.93 80.37 336.23 89.22 342.16 78.53"/><polygon class="cls-3" points="346.42 77.71 350.5 76.67 344.38 74.31 346.42 77.71"/><polygon class="cls-3" points="306.57 110.36 306.29 109.21 303.12 104.71 306.57 110.36"/><polygon class="cls-3" points="304.35 117.35 308.01 117.11 317.29 109.32 304.35 117.35"/><polygon class="cls-3" points="275.92 23.64 273.6 21.22 272.88 18.34 270.58 15.27 269.7 15.25 263.69 6.5 274.57 23.61 276.61 25.96 275.92 23.64"/><polygon class="cls-3" points="249.28 41.26 250.57 43.3 248.35 40.3 247.88 41.93 252.47 47.13 252.67 43.66 249.28 41.26"/><polygon class="cls-3" points="299.21 59.59 292.24 53.77 292.97 58.22 298.5 62.09 299.21 59.59"/><polygon class="cls-3" points="89.05 421.15 92.71 427.18 90.85 421.48 89.05 421.15"/><polygon class="cls-3" points="31.01 488.37 28.98 487.72 23.46 490.99 31.01 488.37"/><polygon class="cls-3" points="24.18 492.39 20.53 495.26 24.81 499.5 24.18 492.39"/><polygon class="cls-3" points="111.52 476.32 118.53 491.84 116.04 475.18 111.52 476.32"/><polygon class="cls-3" points="22.54 488.97 19.82 485.23 14.56 489 22.54 488.97"/><polygon class="cls-3" points="83.04 427.71 85.77 430.55 89.75 431.09 90.61 435.07 93.19 430.34 85.53 426.02 83.04 427.71"/><polygon class="cls-3" points="83.44 427.04 83.26 425.02 85.67 424.06 86.28 421.97 85.17 421.34 87.58 415.73 81.74 426.07 81.65 427.88 83.44 427.04"/><polygon class="cls-3" points="51.66 399.1 52.84 398.57 53.19 401.53 47.81 401.53 48.44 407.64 50.65 406.84 50.59 404.55 51.96 402.79 53.17 404.05 51.41 408.72 56.35 404.77 55.36 403.42 55.61 401.57 56.19 401.21 54.94 399.36 56.97 399.15 49.41 396.31 51.25 397.98 51.66 399.1"/><polygon class="cls-3" points="7.41 417.59 4.62 418.49 4.37 420.35 5.37 421.7 8.38 422.83 11.33 420.42 8.89 420.1 7.41 417.59"/><polygon class="cls-3" points="117.15 390.99 116.87 388.63 115.94 389.05 115.61 388.15 114.14 386.82 111 385.64 110.64 386.58 112.86 390.99 117.15 390.99"/><polygon class="cls-3" points="61.62 476.26 60.89 469.27 55.98 469.37 57.51 475.03 61.62 476.26"/><polygon class="cls-3" points="116.29 44.98 119.92 37.26 114.23 42.15 116.29 44.98"/><polygon class="cls-3" points="109.71 57.89 111.48 55.34 109.09 46.16 109.71 57.89"/><polygon class="cls-3" points="145.65 26.39 146.45 24.78 143.12 19.09 145.65 26.39"/><polygon class="cls-3" points="85.36 38.94 87.26 37.46 87.78 35.05 90.32 34.79 87.46 32.88 84.4 37.3 85.36 38.94"/><polygon class="cls-3" points="75.47 40.16 73 40.14 72.09 37.13 69.6 36.14 68.73 37.41 62.15 33.86 74.12 42.11 76.32 42.43 75.47 40.16"/><polygon class="cls-3" points="5.27 25.35 5.15 23.61 3.85 24.73 5.27 25.35"/><polygon class="cls-3" points="38.52 7.83 38.71 12.12 39.5 8.75 40.48 9.46 40.08 11.58 42.75 11.28 41.58 7.67 35.85 7.5 38.52 7.83"/><polygon class="cls-3" points="9.05 9.95 8.61 11.39 6.79 11.61 10.58 14.08 13.08 13.04 14.25 10.97 12.16 9.79 9.82 10.58 9.05 9.95"/><polygon class="cls-3" points="17.6 4.03 15.87 4.45 17.51 3.58 14.34 2.74 13.6 2.94 14.39 3.79 13.79 5.32 13.46 5.88 15.6 5.96 17.14 5.55 17.6 4.03"/><polygon class="cls-3" points="122.85 446.15 123.29 437.85 119.97 444.36 122.85 446.15"/><polygon class="cls-3" points="116.81 464.23 117.4 461.52 112.37 454.74 116.81 464.23"/><polygon class="cls-3" points="142.37 418.51 142.5 416.77 137.45 412.88 142.37 418.51"/><polygon class="cls-3" points="90.48 456.82 91.54 454.95 91.16 452.78 93.16 451.7 90.18 451.09 89.15 455.79 90.48 456.82"/><polygon class="cls-3" points="82.78 461.19 80.75 462.01 78.99 459.83 76.62 459.86 76.32 461.21 69.74 460.5 82.32 463.26 84.23 462.78 82.78 461.19"/><polygon class="cls-3" points="16.26 469.65 15.52 468.13 14.77 469.62 16.26 469.65"/><polygon class="cls-3" points="41.63 446.99 43.23 450.48 42.75 447.42 43.79 447.68 44.16 449.56 46.26 448.41 44.09 445.82 39.33 447.63 41.63 446.99"/><polygon class="cls-3" points="14.04 454.38 14.17 455.84 12.62 456.71 16.91 457.54 18.78 455.67 19.07 453.37 16.77 453.08 14.96 454.66 14.04 454.38"/><polygon class="cls-3" points="19.54 445.88 18.14 446.9 19.29 445.51 16.14 445.92 15.56 446.38 16.58 446.85 16.59 448.46 16.51 449.08 18.45 448.35 19.68 447.42 19.54 445.88"/><polygon class="cls-2" points="248.1 332.12 239.25 341.14 226.71 332.08 236.85 343.84 231.65 348.52 230.61 349.45 234.14 348.52 240.04 348.52 243.77 360.47 243.78 348.52 248.79 348.52 248.79 342.44 259.01 335.19 248.79 339.52 243.54 341.75 248.1 332.12"/><polygon class="cls-2" points="199.87 142.58 211.23 133.52 183.79 133.52 183.79 233.52 202.36 233.52 193.78 240.5 175.79 235.52 190.65 243.37 180.3 245.92 192.89 247.07 192.97 248.52 193.79 262.52 196.26 248.52 204.79 248.52 197.28 243.06 203.58 233.52 248.79 233.52 248.79 140.2 244.88 137.97 199.87 142.58"/><polygon class="cls-2" points="92.81 245.96 107.86 247.95 107.77 248.52 103.79 248.52 103.79 265.89 93.7 284.61 103.79 270.59 103.79 273.02 103.47 282.07 103.79 280.55 106.66 266.66 114.74 262.76 108.15 259.47 109.06 248.52 112.2 248.52 109.1 248.11 109.41 244.33 148.3 240.51 147.56 233.52 110.31 233.52 110.45 231.83 110.18 233.52 108.43 244.42 92.81 245.96"/><polygon class="cls-1" points="248.79 140.2 248.79 233.52 203.58 233.52 197.28 243.06 204.79 248.52 217.82 248.52 247.45 248.52 248.79 248.52 248.79 297.52 248.79 339.52 259.01 335.19 248.79 342.44 248.79 348.52 243.78 348.52 243.77 360.47 240.04 348.52 234.14 348.52 230.61 349.45 231.65 348.52 183.79 348.52 183.79 292.36 183.79 283.77 183.79 265.49 168.79 257.28 168.79 348.52 139.13 348.52 125.79 357.99 125.78 363.02 263.79 363.02 263.79 148.76 248.79 140.2"/><polygon class="cls-1" points="112.64 356.48 105.9 350.57 91.68 360.7 102.66 348.31 91.82 339.96 103.41 344.13 95.57 329.29 103.79 338.49 103.79 280.55 103.47 282.07 103.79 273.02 103.79 270.59 93.7 284.61 103.79 265.89 103.79 248.52 107.77 248.52 107.86 247.95 92.81 245.96 108.43 244.42 110.18 233.52 103.79 233.52 103.79 177.25 103.79 175.52 103.79 142.74 103.79 141.25 103.79 133.52 125.53 133.52 126.79 133.52 168.79 133.52 168.79 146.29 168.79 151 168.79 205.26 177.95 177 172.86 242.79 183.79 253.19 183.79 248.52 188.65 248.52 192.97 248.52 192.89 247.07 180.3 245.92 190.65 243.37 175.79 235.52 193.78 240.5 202.36 233.52 183.79 233.52 183.79 133.52 211.23 133.52 222.69 124.38 223.53 118.02 88.79 118.02 88.79 363.02 122.82 363.02 121.59 359.08 112.61 361.45 118.85 355.84 112.54 348.52 110.05 348.52 112.64 356.48"/></svg>