<?xml version="1.0" encoding="UTF-8"?><svg id="Layer_1" xmlns="http://www.w3.org/2000/svg" width="180" height="250" viewBox="0 0 180 250"><defs><style>.cls-1{fill:#666;}.cls-1,.cls-2,.cls-3,.cls-4{stroke-width:0px;}.cls-2{opacity:.15;}.cls-2,.cls-3{fill:#6ca2d8;}.cls-3{opacity:.25;}.cls-4{fill:#fff;}</style></defs><rect class="cls-4" x="2.62" y="2" width="175" height="245"/><path class="cls-1" d="m2.5,2.5v245h175V2.5H2.5Zm80,230.5H17.5s0-100,0-100h65s0,100,0,100Zm0-115H17.5s0-100,0-100h65s0,100,0,100Zm80,115h-65s0-100,0-100h65s0,100,0,100Zm0-115h-65s0-100,0-100h65s0,100,0,100Z"/><rect class="cls-3" x="17.5" y="133" width="65" height="100"/><rect class="cls-3" x="17.5" y="18" width="65" height="100"/><polygon class="cls-3" points="97.5 18 97.5 118 126.5 118 137.5 18 97.5 18"/><polygon class="cls-3" points="155.5 18 148.5 118 162.5 118 162.5 18 155.5 18"/><polygon class="cls-2" points="148.5 118 126.5 118 137.5 18 155.5 18 148.5 118"/><polygon class="cls-3" points="97.5 133 97.5 233 110.5 233 124.5 133 97.5 133"/><polygon class="cls-3" points="146.5 133 137.5 233 162.5 233 162.5 133 146.5 133"/><polygon class="cls-2" points="124.5 133 146.5 133 137.5 233 110.5 233 124.5 133"/></svg>