<?xml version="1.0" encoding="UTF-8"?><svg id="Layer_1" xmlns="http://www.w3.org/2000/svg" viewBox="0 0 394 542.5"><defs><style>.cls-1{fill:#0071bc;}.cls-1,.cls-2,.cls-3,.cls-4,.cls-5,.cls-6{stroke-width:0px;}.cls-3{fill:#754c24;}.cls-4{fill:#f7931e;}.cls-5{fill:#fbb03b;}.cls-6{fill:#c69c6d;}</style></defs><path class="cls-1" d="m237.19,409.25h44.5v-80.91c0-49.75-40.33-90.09-90.09-90.09h-96.82c-49.75,0-90.09,40.33-90.09,90.09v209.91h232.5v-129Z"/><path class="cls-6" d="m143.69,298.75c-19.95,0-44.52-18.32-65.71-49-21.16-30.62-33.79-65.95-33.79-94.5,0-60.38,44.64-109.5,99.5-109.5s99.5,49.12,99.5,109.5-56.72,143.5-99.5,143.5Z"/><path class="cls-2" d="m143.69,46.25c54.59,0,99,48.9,99,109,0,14.37-3.24,30.9-9.38,47.79-5.82,16.04-14.11,32.09-23.95,46.43-20.97,30.55-45.52,48.78-65.68,48.78s-44.2-18.24-65.3-48.79c-21.1-30.54-33.7-65.76-33.7-94.21,0-60.1,44.41-109,99-109m0-1c-55.23,0-100,49.25-100,110s57,144,100,144,100-83.25,100-144-44.77-110-100-110h0Z"/><path class="cls-3" d="m239.73,129.93c-5.74,57.8-37.51,125.32-96.05,125.32s-90.31-67.52-96.05-125.32c-2.57,6.4-3.95,14.66-3.95,25.32,0,60.75,57,144,100,144s100-83.25,100-144c0-10.66-1.38-18.92-3.95-25.32Z"/><path class="cls-5" d="m243.69,133.25s-44.77,29-100,29-100-29-100-29c0,0,0-124,100-124s100,124,100,124Z"/><path class="cls-5" d="m243.69,133.25s-44.77-3-100-3-100,3-100,3c0,0,0-124,100-124s100,124,100,124Z"/><path class="cls-4" d="m167.95,130.25h-48.52c-3.05,0-5.42-2.67-5.06-5.7l13.79-115.81c.31-2.56,2.48-4.49,5.06-4.49h20.95c2.58,0,4.75,1.93,5.06,4.49l13.79,115.81c.36,3.03-2.01,5.7-5.06,5.7Z"/><circle class="cls-2" cx="89.69" cy="172.25" r="10"/><circle class="cls-2" cx="194.69" cy="172.25" r="10"/><path class="cls-1" d="m389.31,269.74c-8.62,49.51-12.31,80.17-31.62,111.51-20.23,32.83-88,28-125,28-11.54-16.16-13-39-13-61,37,0,68,8,85-5,14.99-11.46,20.35-35.2,29-80q30,5,55.62,6.49Z"/></svg>