<?xml version="1.0" encoding="UTF-8"?><svg id="Layer_1" xmlns="http://www.w3.org/2000/svg" viewBox="0 0 360 550"><defs><style>.cls-1{fill:#754c24;}.cls-1,.cls-2,.cls-3,.cls-4,.cls-5,.cls-6,.cls-7,.cls-8{stroke-width:0px;}.cls-2{fill:#f6d87b;}.cls-3{fill:#333;}.cls-4{fill:#3e66ae;}.cls-5{fill:#fff;}.cls-6{fill:#e9af4a;}.cls-7{fill:#d38431;}.cls-8{fill:#c69c6d;}</style></defs><path class="cls-8" d="m236.82,152c0,60.75-56,144-100,144S36.82,212.75,36.82,152s44.77-110,100-110,100,49.25,100,110Z"/><circle class="cls-3" cx="87.82" cy="169" r="10"/><circle class="cls-3" cx="182.82" cy="169" r="10"/><path class="cls-4" d="m190.73,249h-96.82c-49.75,0-90.09,40.33-90.09,90.09l6,209.91h61.02v-163h3.43v163s163.59,0,163.59,0l-.04-198,43-15s-40.33-87-90.09-87Z"/><path class="cls-1" d="m232.87,126.68c-5.74,57.8-48.05,114.32-99.05,114.32s-87.31-56.52-93.05-114.32c-2.57,6.4-3.95,14.66-3.95,25.32,0,60.75,57,144,100,144s100-83.25,100-144c0-10.66-1.38-18.92-3.95-25.32Z"/><path class="cls-4" d="m213.93,362.7l7.67-67.11,95.58-30.37,30.27,9.29c10.02,10.06,10.81,21.32,5.4,30.24-1.94,3.19-4.91,5.63-8.39,6.99l-130.54,50.96Z"/><path class="cls-8" d="m139.76,271.18c-1.08,4.45,2.22,8.88,7.26,9.67,2.95.47,5.93.73,8.93.79l34.87-.64,2.82-22.55-32.99-11.65c-2.64-.83-5.35-1.45-8.11-1.84-3.49-.5-6.78,1.5-7.53,4.57l-5.26,21.66Z"/><path class="cls-8" d="m179.97,278.6l-38.2,15.63c-2.54,1.04-5.58.03-6.78-2.26l-.91-1.73c-1.2-2.29-.11-4.99,2.44-6.03l38.2-15.63c2.54-1.04,5.58-.03,6.78,2.26l.91,1.73c1.2,2.29.11,4.99-2.44,6.03Z"/><path class="cls-4" d="m349.53,298.93l-20.63,10.37c-2.29,1.15-4.99,1.52-7.58,1.02l-122.78-23.33c-5.62-1.07-9.41-5.82-8.69-10.9l1.81-12.76c.71-5.01,5.59-8.66,11.25-8.4l129.73,5.91c22.29,1.37,24.43,26.4,23.19,36.17-.39,3.08-3.28.41-6.29,1.93Z"/><path class="cls-5" d="m306.55,307.13c-59.23-11.2-102.53-19.48-106.43-20.34-.07-.02-.19-.04-.35-.07-1.84-.36-6.55-1.32-10.58-3.69-.9-.53-2.13-1.34-3.29-2.46l4.92.43c.77.63,2.15,1.61,4.28,2.55,2.21.98,4.26,1.47,5.5,1.71,35.42,6.77,70.84,13.53,106.26,20.3l-.3,1.58Z"/><path class="cls-6" d="m236.82,130s-44.77,29-100,29-100-29-100-29c0,0,0-124,100-124s100,124,100,124Z"/><path class="cls-6" d="m236.82,130s-44.77-3-100-3-100,3-100,3c0,0,0-124,100-124s100,124,100,124Z"/><path class="cls-7" d="m161.09,127h-48.52c-3.05,0-5.42-2.67-5.06-5.7L121.29,5.49c.31-2.56,2.48-4.49,5.06-4.49h20.95c2.58,0,4.75,1.93,5.06,4.49l13.79,115.81c.36,3.03-2.01,5.7-5.06,5.7Z"/><path class="cls-2" d="m200.33,48.83c11.24,16.18,11.3,42.22,10.16,42.4-.88.14-3.04-12.59-15.15-27.08-10.54-12.61-33.45-22.78-25.33-31.54,7.57-8.18,19.08.04,30.32,16.22Z"/></svg>