<?xml version="1.0" encoding="UTF-8"?><svg id="Layer_1" xmlns="http://www.w3.org/2000/svg" viewBox="0 0 520 550"><defs><style>.cls-1{fill:#754c24;}.cls-1,.cls-2,.cls-3,.cls-4,.cls-5,.cls-6,.cls-7{stroke-width:0px;}.cls-2{fill:#f6d87b;}.cls-3{fill:#333;}.cls-4{fill:#3e66ae;}.cls-5{fill:#e9af4a;}.cls-6{fill:#d38431;}.cls-7{fill:#c69c6d;}</style></defs><polygon class="cls-7" points="494.57 92.33 471.86 86.16 476.07 70.42 498.77 76.58 494.57 92.33"/><path class="cls-7" d="m509.64,20.56l-14.86-4.15c-3.43-.96-7.06.72-8.54,3.96l-6.75,14.67c-2.29,4.98-3.77,10.29-4.38,15.73l-2.17,29.83,22.12,6.18,14.3-28.14c1.84-3.98,3.02-8.22,3.52-12.57l2.02-17.69c.4-3.54-1.82-6.85-5.26-7.81Z"/><rect class="cls-7" x="469.64" y="29.4" width="11.01" height="46.87" rx="4.55" ry="4.55" transform="translate(8.99 158.93) rotate(-19.17)"/><path class="cls-4" d="m439.84,228.9l-8.74-20.44c-.97-2.27-1.09-4.82-.32-7.17l36.21-111.23c1.66-5.09,6.96-8.03,12.16-6.74l13.06,3.24c5.13,1.27,8.44,6.26,7.62,11.48l-18.81,119.83c-3.6,20.55-24.11,19.3-34.12,16.96-3.16-.74-5.78-2.94-7.05-5.92Z"/><polygon class="cls-4" points="374.64 355.34 316.05 272.82 434.13 190 478.47 225.97 374.64 355.34"/><polygon class="cls-7" points="25.43 92.33 48.14 86.16 43.93 70.42 21.23 76.58 25.43 92.33"/><path class="cls-7" d="m10.36,20.56l14.86-4.15c3.43-.96,7.06.72,8.54,3.96l6.75,14.67c2.29,4.98,3.77,10.29,4.38,15.73l2.17,29.83-22.12,6.18-14.3-28.14c-1.84-3.98-3.02-8.22-3.52-12.57l-2.02-17.69c-.4-3.54,1.82-6.85,5.26-7.81Z"/><rect class="cls-7" x="21.42" y="47.33" width="46.87" height="11.01" rx="4.55" ry="4.55" transform="translate(-19.78 77.85) rotate(-70.83)"/><path class="cls-4" d="m80.16,228.9l8.74-20.44c.97-2.27,1.09-4.82.32-7.17l-36.21-111.23c-1.66-5.09-6.96-8.03-12.16-6.74l-13.06,3.24c-5.13,1.27-8.44,6.26-7.62,11.48l18.81,119.83c3.6,20.55,24.11,19.3,34.12,16.96,3.16-.74,5.78-2.94,7.05-5.92Z"/><polygon class="cls-4" points="145.36 355.34 203.95 272.82 85.87 190 41.53 225.97 145.36 355.34"/><path class="cls-7" d="m354.99,150.5c0,60.75-56,144-100,144s-100-83.25-100-144,44.77-110,100-110,100,49.25,100,110Z"/><circle class="cls-3" cx="205.99" cy="167.5" r="10"/><circle class="cls-3" cx="300.99" cy="167.5" r="10"/><path class="cls-4" d="m162.99,377.5l-.66,170h198.48l.17-175,37.25-46.56c-2.77-21.44-13.07-40.52-28.18-54.5-16.06-14.86-37.55-23.94-61.16-23.94h-96.82c-46.18,0-84.24,34.75-89.47,79.52l40.38,50.48Z"/><path class="cls-1" d="m351.03,125.18c-5.74,57.8-48.05,114.32-99.05,114.32s-87.31-56.52-93.05-114.32c-2.57,6.4-3.95,14.66-3.95,25.32,0,60.75,57,144,100,144s100-83.25,100-144c0-10.66-1.38-18.92-3.95-25.32Z"/><path class="cls-5" d="m354.99,131.5s-44.77,29-100,29-100-29-100-29c0,0,0-124,100-124s100,124,100,124Z"/><path class="cls-5" d="m354.99,131.5s-44.77-3-100-3-100,3-100,3c0,0,0-124,100-124s100,124,100,124Z"/><path class="cls-6" d="m279.25,128.5h-48.52c-3.05,0-5.42-2.67-5.06-5.7l13.79-115.81c.31-2.56,2.48-4.49,5.06-4.49h20.95c2.58,0,4.75,1.93,5.06,4.49l13.79,115.81c.36,3.03-2.01,5.7-5.06,5.7Z"/><path class="cls-2" d="m318.49,50.33c11.24,16.18,11.3,42.22,10.16,42.4-.88.14-3.04-12.59-15.15-27.08-10.54-12.61-33.45-22.78-25.33-31.54,7.57-8.18,19.08.04,30.32,16.22Z"/></svg>