<?xml version="1.0" encoding="UTF-8"?><svg id="Layer_1" xmlns="http://www.w3.org/2000/svg" viewBox="0 0 450 550"><defs><style>.cls-1{fill:#754c24;}.cls-1,.cls-2,.cls-3,.cls-4,.cls-5,.cls-6,.cls-7{stroke-width:0px;}.cls-2{fill:#f6d87b;}.cls-3{fill:#333;}.cls-4{fill:#3e66ae;}.cls-5{fill:#e9af4a;}.cls-6{fill:#d38431;}.cls-7{fill:#c69c6d;}</style></defs><path class="cls-7" d="m239.5,152c0,60.75-56,144-100,144S39.5,212.75,39.5,152s44.77-110,100-110,100,49.25,100,110Z"/><circle class="cls-3" cx="90.5" cy="169" r="10"/><circle class="cls-3" cx="185.5" cy="169" r="10"/><path class="cls-4" d="m193.41,249h-96.82c-49.75,0-90.09,40.33-90.09,90.09l6,209.91h61.02v-163h3.43v163s163.59,0,163.59,0l.03-162h42.93v-47.91c0-49.75-40.33-90.09-90.09-90.09Z"/><polygon class="cls-7" points="396.98 352.52 379 337.34 389.47 324.85 407.44 340.02 396.98 352.52"/><path class="cls-7" d="m440.97,293.84l-11.72-10.04c-2.71-2.32-6.7-2.33-9.42-.02l-12.31,10.45c-4.18,3.54-7.76,7.73-10.62,12.41l-14.57,26.12,17.44,14.95,24.85-19.46c3.34-2.83,6.21-6.17,8.5-9.91l9.31-15.18c1.86-3.04,1.24-6.98-1.46-9.3Z"/><rect class="cls-7" x="372.63" y="303.02" width="46.87" height="11.01" rx="4.55" ry="4.55" transform="translate(48.93 671.22) rotate(-84.17)"/><path class="cls-4" d="m294.58,445.79l.5-21.27c.06-2.36.97-4.63,2.57-6.37l75.7-82.46c3.46-3.77,9.25-4.23,13.26-1.04l10.09,8.01c3.96,3.15,4.86,8.8,2.07,13.02l-63.96,96.85c-11.29,16.46-28.65,7.23-36.44,1.21-2.46-1.9-3.86-4.85-3.79-7.96Z"/><path class="cls-4" d="m188.7,356.54l89.07-48.03,67.73,127.33-11.96,18.1c-9.97,14.08-24.01,15.03-34.94,7.12l-109.9-104.52Z"/><path class="cls-1" d="m235.54,126.68c-5.74,57.8-48.05,114.32-99.05,114.32s-87.31-56.52-93.05-114.32c-2.57,6.4-3.95,14.66-3.95,25.32,0,60.75,57,144,100,144s100-83.25,100-144c0-10.66-1.38-18.92-3.95-25.32Z"/><path class="cls-5" d="m239.5,130s-44.77,29-100,29-100-29-100-29c0,0,0-124,100-124s100,124,100,124Z"/><path class="cls-5" d="m239.5,130s-44.77-3-100-3-100,3-100,3c0,0,0-124,100-124s100,124,100,124Z"/><path class="cls-6" d="m163.76,127h-48.52c-3.05,0-5.42-2.67-5.06-5.7L123.96,5.49c.31-2.56,2.48-4.49,5.06-4.49h20.95c2.58,0,4.75,1.93,5.06,4.49l13.79,115.81c.36,3.03-2.01,5.7-5.06,5.7Z"/><path class="cls-2" d="m203,48.83c11.24,16.18,11.3,42.22,10.16,42.4-.88.14-3.04-12.59-15.15-27.08-10.54-12.61-33.45-22.78-25.33-31.54,7.57-8.18,19.08.04,30.32,16.22Z"/></svg>